<?xml version="1.0" encoding="UTF-8" standalone="no"?>
<svg
   id="svg"
   width="699.91968"
   height="265.95386"
   viewBox="0 0 699.91968 265.95386"
   version="1.1"
   sodipodi:docname="catppuccin_ekg_1.svg"
   xml:space="preserve"
   xmlns:inkscape="http://www.inkscape.org/namespaces/inkscape"
   xmlns:sodipodi="http://sodipodi.sourceforge.net/DTD/sodipodi-0.dtd"
   xmlns:xlink="http://www.w3.org/1999/xlink"
   xmlns="http://www.w3.org/2000/svg"
   xmlns:svg="http://www.w3.org/2000/svg"><defs
     id="defs1"><linearGradient
       id="linearGradient37"
       inkscape:collect="always"><stop
         style="stop-color:#f9e2af;stop-opacity:1"
         offset="0"
         id="stop37" /><stop
         style="stop-color:#a6e3a1;stop-opacity:1"
         offset="0.2"
         id="stop39" /><stop
         style="stop-color:#f38ba8;stop-opacity:1"
         offset="0.40000001"
         id="stop40" /><stop
         style="stop-color:#fab387;stop-opacity:1"
         offset="0.60000002"
         id="stop41" /><stop
         style="stop-color:#b4befe;stop-opacity:1"
         offset="0.80000001"
         id="stop42" /><stop
         style="stop-color:#74c7ec;stop-opacity:1"
         offset="1"
         id="stop38" /></linearGradient><linearGradient
       inkscape:collect="always"
       xlink:href="#linearGradient37"
       id="linearGradient38"
       x1="-1741.2477"
       y1="1160.6367"
       x2="-1041.3281"
       y2="1160.6367"
       gradientUnits="userSpaceOnUse"
       gradientTransform="translate(1741.2477,-1027.6599)" /></defs><sodipodi:namedview
     id="namedview1"
     pagecolor="#505050"
     bordercolor="#eeeeee"
     borderopacity="1"
     inkscape:showpageshadow="0"
     inkscape:pageopacity="0"
     inkscape:pagecheckerboard="0"
     inkscape:deskcolor="#505050"
     showgrid="false" /><path
     id="path35"
     style="opacity:1;fill:none;stroke:url(#linearGradient38);stroke-width:7;stroke-linecap:round;stroke-linejoin:round;stroke-dasharray:none"
     d="m 308.30253,185.97859 h 19.7521 m 368.36501,-1.1316 h -56.8838 l -16.3327,-15.5814 -16.3327,46.8771 -16.3327,-67.684 -16.3326,112.863 -14.1717,-163.454196 -18.4935,86.979496 -103.4612,1.1348 m -244.10471,0 h -56.884 l -16.3326,-15.5813 -16.3328,46.877 -16.332601,-67.6839 -16.3327,112.8629 -14.1716,-163.454296 -18.4935,86.979596 -35.5942001,0.2737 m 190.4740011,-0.2737 h -56.884 l -16.3326,-15.5813 -16.3328,46.877 -16.332601,-67.6839 -16.3327,112.8629 -14.1716,-163.454296 -18.4935,86.979596 -35.5942001,0.2737 m 304.8025011,-0.2769 -16.3327,-15.5814 -16.3326,46.8771 -16.3327,-67.684 -16.3326,112.8629 -14.1717,-163.454196 -18.4936,86.979596 h -16.3326 M 430.91684,15.448694 c 0,0 -5.1963,-11.9487002 -9.6808,-11.9487002 -4.4846,0 -10.9556,12.4351002 -10.9556,12.4351002 m 7.8686,6.0307 c 18.1381,0 22.3924,21.9522 36.1739,21.9522 m -24.4827,-0.4199 a 7.3647472,5.7223101 68.071275 0 1 -2.5581,8.9693 7.3647472,5.7223101 68.071275 0 1 -8.0586,-4.695 7.3647472,5.7223101 68.071275 0 1 2.5577,-8.9688 7.3647472,5.7223101 68.071275 0 1 8.059,4.6945 v 0 m -23.3943,-13.8751 c 0,0 -7.2645,-22.5717002 -13.4079,-22.5717002 -6.14331,0 -16.88891,29.4522002 -16.88891,73.8634002 0,11.1465 -56.4885,39.889096 -48.0639,105.303296 M 432.87764,82.854894 c 0,0 17.3241,-1.3566 23.3088,-28.3924 m -18.1725,131.776396 c 2.8003,-11.0973 5.6248,-23.5156 5.6248,-37.6351 0,-28.0084 -3.3789,-52.673796 -4.285,-67.955396" /></svg>
