<?xml version="1.0" encoding="UTF-8" standalone="no"?>
<!-- Created with Inkscape (http://www.inkscape.org/) -->

<svg
   width="697.54395"
   height="236.99023"
   viewBox="0 0 184.5585 62.703664"
   version="1.1"
   id="svg1"
   inkscape:version="1.3.2 (091e20ef0f, 2023-11-25, custom)"
   sodipodi:docname="cat_terminal.svg"
   xmlns:inkscape="http://www.inkscape.org/namespaces/inkscape"
   xmlns:sodipodi="http://sodipodi.sourceforge.net/DTD/sodipodi-0.dtd"
   xmlns="http://www.w3.org/2000/svg"
   xmlns:svg="http://www.w3.org/2000/svg">
  <sodipodi:namedview
     id="namedview1"
     pagecolor="#45475a"
     bordercolor="#89dceb"
     borderopacity="1"
     inkscape:showpageshadow="0"
     inkscape:pageopacity="0"
     inkscape:pagecheckerboard="0"
     inkscape:deskcolor="#313244"
     inkscape:document-units="px"
     inkscape:zoom="0.99582162"
     inkscape:cx="348.95808"
     inkscape:cy="118.49512"
     inkscape:window-width="1892"
     inkscape:window-height="1015"
     inkscape:window-x="0"
     inkscape:window-y="0"
     inkscape:window-maximized="1"
     inkscape:current-layer="layer1" />
  <defs
     id="defs1" />
  <g
     inkscape:label="Warstwa 1"
     inkscape:groupmode="layer"
     id="layer1"
     transform="translate(1172.3776,-994.50566)">
    <g
       id="g16"
       transform="matrix(0.1791082,0,0,0.1791082,-971.56229,912.47672)"
       style="fill:#f9e2af">
      <path
         d="m -951.42295,660.52062 v -7.62 h 30.32125 v 7.62 z m 68.58,35.95688 q -3.4925,-1.82563 -6.58813,-4.445 -3.01625,-2.54 -5.47687,-5.63563 -2.46063,-3.09562 -4.28625,-6.6675 -1.74625,-3.57187 -2.8575,-7.38187 -1.11125,-3.81 -1.5875,-7.69938 -0.47625,-3.96875 -0.47625,-7.9375 0,-3.96875 0.47625,-7.85812 0.47625,-3.96875 1.5875,-7.77875 1.11125,-3.81 2.8575,-7.38188 1.82562,-3.57187 4.28625,-6.6675 2.46062,-3.09562 5.47687,-5.63562 3.09563,-2.61938 6.58813,-4.445 l 4.28625,6.6675 q -4.28625,2.46062 -7.62,6.11187 -3.25438,3.65125 -5.31813,8.09625 -2.06375,4.36563 -2.93687,9.2075 -0.79375,4.84188 -0.79375,9.68375 0,4.84188 0.79375,9.68375 0.87312,4.84188 2.93687,9.28688 2.06375,4.36562 5.31813,8.01687 3.33375,3.65125 7.62,6.11188 z m 41.275,0 q -3.4925,-1.82563 -6.58813,-4.445 -3.01625,-2.54 -5.47687,-5.63563 -2.46063,-3.09562 -4.28625,-6.6675 -1.74625,-3.57187 -2.8575,-7.38187 -1.11125,-3.81 -1.5875,-7.69938 -0.47625,-3.96875 -0.47625,-7.9375 0,-3.96875 0.47625,-7.85812 0.47625,-3.96875 1.5875,-7.77875 1.11125,-3.81 2.8575,-7.38188 1.82562,-3.57187 4.28625,-6.6675 2.46062,-3.09562 5.47687,-5.63562 3.09563,-2.61938 6.58813,-4.445 l 4.28625,6.6675 q -4.28625,2.46062 -7.62,6.11187 -3.25438,3.65125 -5.31813,8.09625 -2.06375,4.36563 -2.93687,9.2075 -0.79375,4.84188 -0.79375,9.68375 0,4.84188 0.79375,9.68375 0.87312,4.84188 2.93687,9.28688 2.06375,4.36562 5.31813,8.01687 3.33375,3.65125 7.62,6.11188 z m 41.27499,0 q -3.4925,-1.82563 -6.58812,-4.445 -3.01625,-2.54 -5.47688,-5.63563 -2.46062,-3.09562 -4.28625,-6.6675 -1.74625,-3.57187 -2.8575,-7.38187 -1.11125,-3.81 -1.5875,-7.69938 -0.47625,-3.96875 -0.47625,-7.9375 0,-3.96875 0.47625,-7.85812 0.47625,-3.96875 1.5875,-7.77875 1.11125,-3.81 2.8575,-7.38188 1.82563,-3.57187 4.28625,-6.6675 2.46063,-3.09562 5.47688,-5.63562 3.09562,-2.61938 6.58812,-4.445 l 4.28625,6.6675 q -4.28625,2.46062 -7.62,6.11187 -3.25437,3.65125 -5.31812,8.09625 -2.06375,4.36563 -2.93688,9.2075 -0.79375,4.84188 -0.79375,9.68375 0,4.84188 0.79375,9.68375 0.87313,4.84188 2.93688,9.28688 2.06375,4.36562 5.31812,8.01687 3.33375,3.65125 7.62,6.11188 z m 13.97001,-35.95688 v -7.62 h 30.32125 v 7.62 z m 41.275,0 v -7.62 h 30.32125 v 7.62 z m 41.27499,0 v -7.62 h 30.32125 v 7.62 z m 68.57999,35.95688 q -3.4925,-1.82563 -6.58812,-4.445 -3.01625,-2.54 -5.47688,-5.63563 -2.46062,-3.09562 -4.28625,-6.6675 -1.74625,-3.57187 -2.8575,-7.38187 -1.11125,-3.81 -1.5875,-7.69938 -0.47625,-3.96875 -0.47625,-7.9375 0,-3.96875 0.47625,-7.85812 0.47625,-3.96875 1.5875,-7.77875 1.11125,-3.81 2.8575,-7.38188 1.82563,-3.57187 4.28625,-6.6675 2.46063,-3.09562 5.47688,-5.63562 3.09562,-2.61938 6.58812,-4.445 l 4.28625,6.6675 q -4.28625,2.46062 -7.62,6.11187 -3.25437,3.65125 -5.31812,8.09625 -2.06375,4.36563 -2.93688,9.2075 -0.79375,4.84188 -0.79375,9.68375 0,4.84188 0.79375,9.68375 0.87313,4.84188 2.93688,9.28688 2.06375,4.36562 5.31812,8.01687 3.33375,3.65125 7.62,6.11188 z m 41.27503,0 q -3.4925,-1.82563 -6.58813,-4.445 -3.01625,-2.54 -5.47687,-5.63563 -2.46063,-3.09562 -4.28625,-6.6675 -1.74625,-3.57187 -2.8575,-7.38187 -1.11125,-3.81 -1.5875,-7.69938 -0.47625,-3.96875 -0.47625,-7.9375 0,-3.96875 0.47625,-7.85812 0.47625,-3.96875 1.5875,-7.77875 1.11125,-3.81 2.8575,-7.38188 1.82562,-3.57187 4.28625,-6.6675 2.46062,-3.09562 5.47687,-5.63562 3.09563,-2.61938 6.58813,-4.445 l 4.28625,6.6675 q -4.28625,2.46062 -7.62,6.11187 -3.25438,3.65125 -5.31813,8.09625 -2.06375,4.36563 -2.93687,9.2075 -0.79375,4.84188 -0.79375,9.68375 0,4.84188 0.79375,9.68375 0.87312,4.84188 2.93687,9.28688 2.06375,4.36562 5.31813,8.01687 3.33375,3.65125 7.62,6.11188 z m 41.27499,0 q -3.4925,-1.82563 -6.58812,-4.445 -3.01625,-2.54 -5.47688,-5.63563 -2.46062,-3.09562 -4.28625,-6.6675 -1.74625,-3.57187 -2.8575,-7.38187 -1.11125,-3.81 -1.5875,-7.69938 -0.47625,-3.96875 -0.47625,-7.9375 0,-3.96875 0.47625,-7.85812 0.47625,-3.96875 1.5875,-7.77875 1.11125,-3.81 2.8575,-7.38188 1.82563,-3.57187 4.28625,-6.6675 2.46063,-3.09562 5.47688,-5.63562 3.09562,-2.61938 6.58812,-4.445 l 4.28625,6.6675 q -4.28625,2.46062 -7.62,6.11187 -3.25437,3.65125 -5.31812,8.09625 -2.06375,4.36563 -2.93688,9.2075 -0.79375,4.84188 -0.79375,9.68375 0,4.84188 0.79375,9.68375 0.87313,4.84188 2.93688,9.28688 2.06375,4.36562 5.31812,8.01687 3.33375,3.65125 7.62,6.11188 z m 13.97,-35.95688 v -7.62 h 30.32125 v 7.62 z m 41.27499,0 v -7.62 h 30.32125 v 7.62 z m 41.27499,0 v -7.62 h 30.32125 v 7.62 z m 41.27503,0 v -7.62 h 30.32125 v 7.62 z m 41.27496,0 v -7.62 h 30.32125 v 7.62 z m 41.27503,0 v -7.62 h 30.32125 v 7.62 z m 41.27502,0 v -7.62 h 30.32125 v 7.62 z m 41.27496,0 v -7.62 h 30.32125 v 7.62 z"
         id="text14"
         style="font-weight:bold;font-size:79.375px;line-height:72.336px;font-family:Iosevka;-inkscape-font-specification:'Iosevka Bold';letter-spacing:1.5875px;fill:#f9e2af;stroke-width:3.96875;stroke-linecap:round;stroke-linejoin:round"
         aria-label="-(((---(((--------" />
      <path
         d="m -856.22364,611.40882 v -7.62 h 30.32125 v 7.62 z m 56.43563,-6.985 q -1.5875,0 -3.09562,-0.47625 -1.50813,-0.47625 -2.61938,-1.50813 -1.11125,-1.11125 -1.5875,-2.61937 -0.39687,-1.5875 -0.39687,-3.09563 0,-1.5875 0.39687,-3.09562 0.47625,-1.50813 1.5875,-2.61938 1.11125,-1.11125 2.61938,-1.5875 1.50812,-0.47625 3.09562,-0.47625 1.5875,0 3.09563,0.47625 1.50812,0.47625 2.61937,1.5875 1.11125,1.11125 1.50813,2.61938 0.47625,1.50812 0.47625,3.09562 0,1.50813 -0.47625,3.09563 -0.39688,1.50812 -1.50813,2.61937 -1.11125,1.03188 -2.61937,1.50813 -1.50813,0.47625 -3.09563,0.47625 z m 36.82999,10.71562 v -76.67625 h 8.89 v 76.67625 z m 45.72001,-10.71562 q -2.14312,0 -4.36562,-0.39688 -2.14313,-0.39687 -4.04813,-1.42875 -1.905,-1.03187 -3.41312,-2.61937 -1.42875,-1.66688 -2.38125,-3.57188 -0.87313,-1.98437 -1.27,-4.1275 -0.3175,-2.2225 -0.3175,-4.36562 v -10.31875 q 0,-2.14313 0.3175,-4.28625 0.39687,-2.2225 1.27,-4.1275 0.9525,-1.98438 2.46062,-3.57188 1.50813,-1.66687 3.41313,-2.69875 1.905,-1.03187 4.04812,-1.50812 2.14313,-0.55563 4.28625,-0.55563 2.14313,0 4.28625,0.55563 2.14313,0.47625 4.04813,1.50812 1.905,1.03188 3.41312,2.69875 1.50813,1.5875 2.38125,3.57188 0.9525,1.905 1.27,4.1275 0.39688,2.14312 0.39688,4.28625 v 10.31875 q 0,2.14312 -0.39688,4.36562 -0.3175,2.14313 -1.27,4.1275 -0.87312,1.905 -2.38125,3.57188 -1.42875,1.5875 -3.33375,2.61937 -1.905,1.03188 -4.1275,1.42875 -2.14312,0.39688 -4.28625,0.39688 z m 0,-7.62 q 1.5875,0 3.01625,-0.71438 1.50813,-0.71437 2.38125,-2.06375 0.9525,-1.34937 1.27,-2.93687 0.3175,-1.5875 0.3175,-3.175 v -10.31875 q 0,-1.5875 -0.3175,-3.175 -0.3175,-1.66688 -1.27,-2.93688 -0.87312,-1.34937 -2.38125,-2.06375 -1.50812,-0.71437 -3.09562,-0.71437 -1.5875,0 -3.09563,0.79375 -1.42875,0.71437 -2.30187,2.06375 -0.87313,1.27 -1.19063,2.8575 -0.3175,1.5875 -0.3175,3.175 v 10.31875 q 0,1.5875 0.3175,3.175 0.3175,1.5875 1.19063,2.93687 0.9525,1.34938 2.38125,2.06375 1.50812,0.71438 3.09562,0.71438 z m 82.54999,7.62 q -2.14312,0 -4.36562,-0.39688 -2.14313,-0.39687 -4.04813,-1.42875 -1.905,-1.03187 -3.41312,-2.61937 -1.42875,-1.66688 -2.38125,-3.57188 -0.87313,-1.98437 -1.27,-4.1275 -0.3175,-2.2225 -0.3175,-4.36562 v -10.31875 q 0,-2.14313 0.3175,-4.28625 0.39687,-2.2225 1.27,-4.1275 0.9525,-1.98438 2.46062,-3.57188 1.50813,-1.66687 3.41313,-2.69875 1.905,-1.03187 4.04812,-1.50812 2.14313,-0.55563 4.28625,-0.55563 2.14313,0 4.28625,0.55563 2.14313,0.47625 4.04813,1.50812 1.905,1.03188 3.41312,2.69875 1.50813,1.5875 2.38125,3.57188 0.9525,1.905 1.27,4.1275 0.39688,2.14312 0.39688,4.28625 v 10.31875 q 0,2.14312 -0.39688,4.36562 -0.3175,2.14313 -1.27,4.1275 -0.87312,1.905 -2.38125,3.57188 -1.42875,1.5875 -3.33375,2.61937 -1.905,1.03188 -4.1275,1.42875 -2.14312,0.39688 -4.28625,0.39688 z m 0,-7.62 q 1.5875,0 3.01625,-0.71438 1.50813,-0.71437 2.38125,-2.06375 0.9525,-1.34937 1.27,-2.93687 0.3175,-1.5875 0.3175,-3.175 v -10.31875 q 0,-1.5875 -0.3175,-3.175 -0.3175,-1.66688 -1.27,-2.93688 -0.87312,-1.34937 -2.38125,-2.06375 -1.50812,-0.71437 -3.09562,-0.71437 -1.5875,0 -3.09563,0.79375 -1.42875,0.71437 -2.30187,2.06375 -0.87313,1.27 -1.19063,2.8575 -0.3175,1.5875 -0.3175,3.175 v 10.31875 q 0,1.5875 0.3175,3.175 0.3175,1.5875 1.19063,2.93687 0.9525,1.34938 2.38125,2.06375 1.50812,0.71438 3.09562,0.71438 z m 119.38001,18.33562 v -76.67625 h 8.89 v 76.67625 z m 30.55937,-3.73062 v -7.62 h 30.32125 v 7.62 z m 168.11623,5.15937 -4.28625,-6.6675 q 4.28625,-2.46062 7.54062,-6.11187 3.33375,-3.65125 5.3975,-8.01688 2.06375,-4.445 2.8575,-9.28687 0.87313,-4.84188 0.87313,-9.68375 0,-4.84188 -0.87313,-9.68375 -0.79375,-4.84188 -2.8575,-9.2075 -2.06375,-4.445 -5.3975,-8.09625 -3.25437,-3.65125 -7.54062,-6.11188 l 4.28625,-6.6675 q 3.4925,1.82563 6.50875,4.445 3.09562,2.54 5.55625,5.63563 2.46062,3.09562 4.20687,6.6675 1.82563,3.57187 2.93688,7.38187 1.11125,3.81 1.5875,7.77875 0.47625,3.88938 0.47625,7.85813 0,3.96875 -0.47625,7.9375 -0.47625,3.88937 -1.5875,7.69937 -1.11125,3.81 -2.93688,7.38188 -1.74625,3.57187 -4.20687,6.6675 -2.46063,3.09562 -5.55625,5.63562 -3.01625,2.61938 -6.50875,4.445 z m 82.55005,0 -4.28625,-6.6675 q 4.28625,-2.46062 7.54062,-6.11187 3.33375,-3.65125 5.3975,-8.01688 2.06375,-4.445 2.8575,-9.28687 0.87313,-4.84188 0.87313,-9.68375 0,-4.84188 -0.87313,-9.68375 -0.79375,-4.84188 -2.8575,-9.2075 -2.06375,-4.445 -5.3975,-8.09625 -3.25437,-3.65125 -7.54062,-6.11188 l 4.28625,-6.6675 q 3.4925,1.82563 6.50875,4.445 3.09562,2.54 5.55625,5.63563 2.46062,3.09562 4.20687,6.6675 1.82563,3.57187 2.93688,7.38187 1.11125,3.81 1.5875,7.77875 0.47625,3.88938 0.47625,7.85813 0,3.96875 -0.47625,7.9375 -0.47625,3.88937 -1.5875,7.69937 -1.11125,3.81 -2.93688,7.38188 -1.74625,3.57187 -4.20687,6.6675 -2.46063,3.09562 -5.55625,5.63562 -3.01625,2.61938 -6.50875,4.445 z"
         id="text15"
         style="font-weight:bold;font-size:79.375px;line-height:72.336px;font-family:Iosevka;-inkscape-font-specification:'Iosevka Bold';letter-spacing:1.5875px;fill:#f9e2af;stroke-width:3.96875;stroke-linecap:round;stroke-linejoin:round"
         aria-label=" _.|o o  |_   ) )" />
      <path
         d="M -763.00517,536.09025 V 459.414 h 8.89 v 76.67625 z m 52.54625,0 -22.70125,-76.67625 h 9.04875 l 22.70125,76.67625 z m 19.28813,-3.73063 v -7.62 h 30.32125 v 7.62 z m 41.275,0 v -7.62 h 30.32125 v 7.62 z m 40.56062,3.73063 22.70125,-76.67625 h 9.04875 l -22.70125,76.67625 z m 53.57811,4.92125 -5.63562,-5.15938 q 2.69875,-2.2225 5.00062,-4.84187 2.30188,-2.54 3.88938,-5.63563 -1.50813,0 -3.01625,-0.55562 -1.42875,-0.47625 -2.46063,-1.5875 -1.03187,-1.11125 -1.50812,-2.54 -0.39688,-1.50813 -0.39688,-3.01625 0,-1.5875 0.39688,-3.09563 0.47625,-1.50812 1.5875,-2.61937 1.11125,-1.11125 2.61937,-1.5875 1.50813,-0.47625 3.09563,-0.47625 1.5875,0 3.09562,0.47625 1.5875,0.47625 2.61938,1.66687 1.11125,1.11125 1.50812,2.69875 0.47625,1.50813 0.47625,3.09563 0,3.25437 -0.9525,6.50875 -0.87312,3.175 -2.46062,6.11187 -1.50813,2.93688 -3.57188,5.55625 -1.98437,2.61938 -4.28625,5.00063 z m 40.4019,-4.92125 V 459.414 h 8.89 v 76.67625 z m 181.68935,1.42875 q -3.4925,-1.82563 -6.58812,-4.445 -3.01625,-2.54 -5.47688,-5.63563 -2.46062,-3.09562 -4.28625,-6.6675 -1.74625,-3.57187 -2.8575,-7.38187 -1.11125,-3.81 -1.5875,-7.69938 -0.47625,-3.96875 -0.47625,-7.9375 0,-3.96875 0.47625,-7.85812 0.47625,-3.96875 1.5875,-7.77875 1.11125,-3.81 2.8575,-7.38188 1.82563,-3.57187 4.28625,-6.6675 2.46063,-3.09562 5.47688,-5.63562 3.09562,-2.61938 6.58812,-4.445 l 4.28625,6.6675 q -4.28625,2.46062 -7.62,6.11187 -3.25437,3.65125 -5.31812,8.09625 -2.06375,4.36563 -2.93688,9.2075 -0.79375,4.84188 -0.79375,9.68375 0,4.84188 0.79375,9.68375 0.87313,4.84188 2.93688,9.28688 2.06375,4.36562 5.31812,8.01687 3.33375,3.65125 7.62,6.11188 z m 31.59128,-54.61 -16.11313,-15.63688 7.06438,-5.79437 14.84312,16.74812 z m 45.64059,53.18125 -22.70125,-76.67625 h 9.04875 l 22.70125,76.67625 z"
         id="text16"
         style="font-weight:bold;font-size:79.375px;line-height:72.336px;font-family:Iosevka;-inkscape-font-specification:'Iosevka Bold';letter-spacing:1.5875px;fill:#f9e2af;stroke-width:3.96875;stroke-linecap:round;stroke-linejoin:round"
         aria-label="  |\__/,|   (`\" />
    </g>
    <text
       xml:space="preserve"
       style="font-style:italic;font-variant:normal;font-weight:normal;font-stretch:normal;font-size:14.8167px;line-height:13.5027px;font-family:Iosevka;-inkscape-font-specification:'Iosevka Italic';text-align:start;letter-spacing:1.5875px;text-anchor:start;fill:#f38ba8;stroke-width:3.96875;stroke-linecap:round;stroke-linejoin:round"
       x="-1165.9767"
       y="1053.9497"
       id="text17"><tspan
         sodipodi:role="line"
         id="tspan16"
         style="font-style:italic;font-variant:normal;font-weight:normal;font-stretch:normal;font-family:Iosevka;-inkscape-font-specification:'Iosevka Italic';fill:#f38ba8;stroke-width:3.96875"
         x="-1165.9767"
         y="1053.9497">user</tspan></text>
    <text
       xml:space="preserve"
       style="font-style:normal;font-variant:normal;font-weight:normal;font-stretch:normal;font-size:14.8167px;line-height:13.5027px;font-family:Iosevka;-inkscape-font-specification:Iosevka;text-align:start;letter-spacing:1.5875px;text-anchor:start;fill:#cdd6f4;stroke-width:3.96875;stroke-linecap:round;stroke-linejoin:round"
       x="-1130.4343"
       y="1052.9274"
       id="text18"><tspan
         sodipodi:role="line"
         id="tspan17"
         style="fill:#cdd6f4;stroke-width:3.96875"
         x="-1130.4343"
         y="1052.9274">@</tspan></text>
    <text
       xml:space="preserve"
       style="font-style:normal;font-variant:normal;font-weight:bold;font-stretch:normal;font-size:14.8167px;line-height:13.5027px;font-family:Iosevka;-inkscape-font-specification:'Iosevka Bold';text-align:start;letter-spacing:1.5875px;text-anchor:start;fill:#a6e3a1;stroke-width:3.96875;stroke-linecap:round;stroke-linejoin:round"
       x="-1123.4337"
       y="1054.1719"
       id="text19"><tspan
         sodipodi:role="line"
         id="tspan18"
         style="fill:#a6e3a1;stroke-width:3.96875"
         x="-1123.4337"
         y="1054.1719">catppuccin:</tspan></text>
    <text
       xml:space="preserve"
       style="font-style:italic;font-variant:normal;font-weight:normal;font-stretch:normal;font-size:14.8167px;line-height:13.5027px;font-family:Iosevka;-inkscape-font-specification:'Iosevka Italic';text-align:start;letter-spacing:1.5875px;text-anchor:start;fill:#89b4fa;stroke-width:3.96875;stroke-linecap:round;stroke-linejoin:round"
       x="-1023.2197"
       y="1054.8164"
       id="text20"><tspan
         sodipodi:role="line"
         id="tspan19"
         style="fill:#89b4fa;stroke-width:3.96875"
         x="-1023.2197"
         y="1054.8164">~</tspan></text>
    <text
       xml:space="preserve"
       style="font-style:normal;font-variant:normal;font-weight:normal;font-stretch:normal;font-size:14.8167px;line-height:13.5027px;font-family:'Hack Nerd Font';-inkscape-font-specification:'Hack Nerd Font';text-align:start;letter-spacing:1.5875px;text-anchor:start;fill:#89b4fa;stroke-width:3.96875;stroke-linecap:round;stroke-linejoin:round"
       x="-1005.1246"
       y="1055.1526"
       id="text23"><tspan
         sodipodi:role="line"
         id="tspan23"
         style="fill:#89b4fa;stroke-width:3.96875"
         x="-1005.1246"
         y="1055.1526"></tspan></text>
    <text
       xml:space="preserve"
       style="font-style:normal;font-variant:normal;font-weight:normal;font-stretch:normal;font-size:14.8167px;line-height:13.5027px;font-family:'Hack Nerd Font';-inkscape-font-specification:'Hack Nerd Font';text-align:start;letter-spacing:1.5875px;text-anchor:start;fill:#f38ba8;stroke-width:3.96875;stroke-linecap:round;stroke-linejoin:round"
       x="-1013.6905"
       y="1055.1526"
       id="text24"><tspan
         sodipodi:role="line"
         id="tspan24"
         style="fill:#f38ba8;stroke-width:3.96875"
         x="-1013.6905"
         y="1055.1526"></tspan></text>
    <text
       xml:space="preserve"
       style="font-style:normal;font-variant:normal;font-weight:normal;font-stretch:normal;font-size:14.8167px;line-height:13.5027px;font-family:'Hack Nerd Font';-inkscape-font-specification:'Hack Nerd Font';text-align:start;letter-spacing:1.5875px;text-anchor:start;fill:#a6e3a1;stroke-width:3.96875;stroke-linecap:round;stroke-linejoin:round"
       x="-996.55865"
       y="1055.1526"
       id="text25"><tspan
         sodipodi:role="line"
         id="tspan25"
         style="fill:#a6e3a1;stroke-width:3.96875"
         x="-996.55865"
         y="1055.1526"></tspan></text>
  </g>
</svg>
