<?xml version="1.0" encoding="UTF-8" standalone="no"?>
<!-- Created with Inkscape (http://www.inkscape.org/) -->

<svg
   width="1920"
   height="1080"
   viewBox="0 0 507.99999 285.74999"
   version="1.1"
   id="svg1"
   inkscape:version="1.3.2 (091e20ef0f, 2023-11-25, custom)"
   sodipodi:docname="cat_line.svg"
   xml:space="preserve"
   xmlns:inkscape="http://www.inkscape.org/namespaces/inkscape"
   xmlns:sodipodi="http://sodipodi.sourceforge.net/DTD/sodipodi-0.dtd"
   xmlns="http://www.w3.org/2000/svg"
   xmlns:svg="http://www.w3.org/2000/svg"><sodipodi:namedview
     id="namedview1"
     pagecolor="#45475a"
     bordercolor="#89dceb"
     borderopacity="1"
     inkscape:showpageshadow="0"
     inkscape:pageopacity="0"
     inkscape:pagecheckerboard="0"
     inkscape:deskcolor="#313244"
     inkscape:document-units="px"
     inkscape:zoom="0.31251324"
     inkscape:cx="967.95899"
     inkscape:cy="591.97492"
     inkscape:window-width="932"
     inkscape:window-height="1015"
     inkscape:window-x="0"
     inkscape:window-y="0"
     inkscape:window-maximized="1"
     inkscape:current-layer="layer1"
     showgrid="false" /><defs
     id="defs1" /><g
     inkscape:label="Warstwa 1"
     inkscape:groupmode="layer"
     id="layer1"
     transform="translate(2065.4751,-592.12476)"><g
       id="g3"
       transform="translate(-13.943698,312.49626)"><path
         d="m -1891.1325,499.31816 c 0,0 -1.1797,-3.66549 -2.1773,-3.66549 -0.9976,0 -2.7427,4.78285 -2.7427,11.99495 0,1.86309 -9.7178,6.75318 -7.6577,18.04811 0.3309,1.81238 1.1589,5.26837 1.1589,5.28167 0,0.0133 2.0934,7.92208 -2.3852,7.92208 -0.9319,0 -1.3784,-0.51544 -2.3103,-0.51544 -0.9311,0 -1.6827,0.63599 -1.6827,1.46154 0,0.82555 0.9228,2.85491 4.2109,2.85491 5.9417,0 6.1679,-4.97739 6.1679,-8.20309 0,-3.2257 -0.03,-2.22723 -0.03,-2.75514 0,-1.76832 1.4732,-2.1283 2.0203,-2.32866"
         style="fill:none;stroke:#eed49f;stroke-width:1.24705px;stroke-linecap:round;stroke-linejoin:round;stroke-miterlimit:1.5;stroke-opacity:1"
         id="path5" /><path
         d="m -1892.7777,529.70791 c 0,-3.23485 -2.7735,-3.71288 -2.7735,-12.38236"
         style="fill:none;stroke:#eed49f;stroke-width:1.24705px;stroke-linecap:round;stroke-linejoin:round;stroke-miterlimit:1.5;stroke-opacity:1"
         id="path1" /><path
         d="m -1889.7948,521.33356 v 8.31116"
         style="fill:none;stroke:#eed49f;stroke-width:1.24705px;stroke-linecap:round;stroke-linejoin:round;stroke-miterlimit:1.5;stroke-opacity:1"
         id="path2" /><path
         d="m -1886.8966,529.50422 c 0,-2.85574 1.804,-6.31672 1.804,-10.86429 0,-4.5484 -0.5487,-8.55392 -0.6958,-11.03554"
         style="fill:none;stroke:#eed49f;stroke-width:1.24705px;stroke-linecap:round;stroke-linejoin:round;stroke-miterlimit:1.5;stroke-opacity:1"
         id="path3" /><path
         d="m -1886.8401,507.9627 c 0,0 2.8133,-0.22031 3.7852,-4.61075"
         style="fill:none;stroke:#eed49f;stroke-width:1.24705px;stroke-linecap:round;stroke-linejoin:round;stroke-miterlimit:1.5;stroke-opacity:1"
         id="path4" /><path
         id="ellipse5"
         style="fill:#2f2c3e;stroke:#eed49f;stroke-width:0.862105;stroke-linecap:round;stroke-linejoin:round;stroke-miterlimit:1.5;stroke-opacity:1"
         d="m -1887.3334,501.57145 a 1.1959897,0.92926789 68.071275 0 1 -0.4154,1.4565 1.1959897,0.92926789 68.071275 0 1 -1.3087,-0.76243 1.1959897,0.92926789 68.071275 0 1 0.4154,-1.45649 1.1959897,0.92926789 68.071275 0 1 1.3087,0.76242 z" /><path
         d="m -1889.232,498.07444 c 2.9456,0 3.6364,3.5649 5.8745,3.5649"
         style="fill:none;stroke:#eed49f;stroke-width:1.24705px;stroke-linecap:round;stroke-linejoin:round;stroke-miterlimit:1.5;stroke-opacity:1"
         id="path6" /><path
         d="m -1887.1585,497.01611 c 0,0 -0.8439,-1.94041 -1.5721,-1.94041 -0.7283,0 -1.7792,2.01939 -1.7792,2.01939"
         style="fill:none;stroke:#eed49f;stroke-width:1.24705px;stroke-linecap:round;stroke-linejoin:round;stroke-miterlimit:1.5;stroke-opacity:1"
         id="path7" /><path
         d="m -1895.756,531.22646 h 336.0942"
         style="fill:#89b4fa;stroke:#8aadf4;stroke-width:1.20593px;stroke-linecap:round;stroke-linejoin:round;stroke-miterlimit:1.5;stroke-opacity:1"
         id="path8" /><path
         d="m -2035.4549,531.2099 h 129.7447"
         style="fill:#f38ba8;stroke:#ed8796;stroke-width:1.09813px;stroke-linecap:round;stroke-linejoin:round;stroke-miterlimit:1.5;stroke-opacity:1"
         id="path9" /></g></g></svg>
