<?xml version="1.0" encoding="UTF-8" standalone="no"?>
<!-- Created with Inkscape (http://www.inkscape.org/) -->

<svg
   width="14.280317mm"
   height="13.22731mm"
   viewBox="0 0 14.280317 13.22731"
   version="1.1"
   id="svg5"
   xml:space="preserve"
   inkscape:version="1.3.2 (091e20ef0f, 2023-11-25, custom)"
   sodipodi:docname="kotek_linia.svg"
   xmlns:inkscape="http://www.inkscape.org/namespaces/inkscape"
   xmlns:sodipodi="http://sodipodi.sourceforge.net/DTD/sodipodi-0.dtd"
   xmlns="http://www.w3.org/2000/svg"
   xmlns:svg="http://www.w3.org/2000/svg"><sodipodi:namedview
     id="namedview7"
     pagecolor="#505050"
     bordercolor="#ffffff"
     borderopacity="1"
     inkscape:showpageshadow="0"
     inkscape:pageopacity="0"
     inkscape:pagecheckerboard="1"
     inkscape:deskcolor="#505050"
     inkscape:document-units="mm"
     showgrid="false"
     inkscape:zoom="4"
     inkscape:cx="24.25"
     inkscape:cy="27.25"
     inkscape:window-width="1892"
     inkscape:window-height="1015"
     inkscape:window-x="0"
     inkscape:window-y="0"
     inkscape:window-maximized="1"
     inkscape:current-layer="layer1" /><defs
     id="defs2" /><g
     inkscape:label="Layer 1"
     inkscape:groupmode="layer"
     id="layer1"
     transform="translate(-56.175725,-39.472533)"><path
       d="m 56.177188,49.757338 h 3.626233"
       style="fill:none;stroke:#f5e0dc;stroke-width:0.266052;stroke-linecap:round;stroke-linejoin:round;stroke-miterlimit:1.5;stroke-dasharray:none"
       id="path9969-9-4"
       sodipodi:nodetypes="cc"
       inkscape:label="line"
       inkscape:export-filename="kotek_test.png"
       inkscape:export-xdpi="1933.5862"
       inkscape:export-ydpi="1933.5862" /><ellipse
       transform="matrix(0.92942965,-0.36899937,0.37793604,0.92583171,0,0)"
       cx="43.64608"
       cy="62.584545"
       rx="0.25595397"
       ry="0.32613319"
       style="fill:none;stroke-width:0.267875;stroke-linecap:round;stroke-linejoin:round;stroke-miterlimit:1.5;stroke-dasharray:none;stroke:#a6e3a1"
       id="ellipse9963-0-5"
       inkscape:label="eye" /><path
       d="m 62.954373,49.400393 c 0,-0.880377 -0.765369,-1.010476 -0.765369,-3.369914"
       style="fill:none;stroke:#89b4fa;stroke-width:0.267869;stroke-linecap:round;stroke-linejoin:round;stroke-miterlimit:1.5;stroke-dasharray:none"
       id="path9953-6-3" /><path
       d="m 63.777558,47.121278 v 2.261919"
       style="fill:none;stroke:#89dceb;stroke-width:0.267869;stroke-linecap:round;stroke-linejoin:round;stroke-miterlimit:1.5;stroke-dasharray:none"
       id="path9955-7-8" /><path
       d="m 64.577342,49.344959 c 0,-0.777202 0.497857,-1.719122 0.497857,-2.956763 0,-1.237868 -0.151422,-2.327988 -0.192031,-3.003374"
       style="fill:none;stroke:#b4befe;stroke-width:0.267869;stroke-linecap:round;stroke-linejoin:round;stroke-miterlimit:1.5;stroke-dasharray:none"
       id="path9957-2-2" /><path
       d="m 64.592943,43.48234 c 0,0 0.776381,-0.05996 1.044582,-1.254837"
       style="fill:none;stroke:#f9e2af;stroke-width:0.267869;stroke-linecap:round;stroke-linejoin:round;stroke-miterlimit:1.5;stroke-dasharray:none"
       id="path9959-2-9" /><path
       d="m 63.40841,41.12969 c 0,0 -0.325558,-0.99758 -0.60087,-0.99758 -0.275313,0 -0.756881,1.301673 -0.756881,3.264478 0,0.507048 -2.681775,1.837909 -2.113254,4.911875 0.09131,0.493247 0.319821,1.433809 0.319821,1.437429 0,0.0036 0.577698,2.15603 -0.658226,2.15603 -0.257188,0 -0.380391,-0.140281 -0.637579,-0.140281 -0.256958,0 -0.46436,0.173089 -0.46436,0.397765 0,0.224676 0.254664,0.776976 1.162049,0.776976 1.639716,0 1.70212,-1.354618 1.70212,-2.232506 0,-0.877888 -0.0083,-0.60615 -0.0083,-0.749825 0,-0.481255 0.406545,-0.579225 0.557508,-0.633754"
       style="fill:none;stroke:#f38ba8;stroke-width:0.267869;stroke-linecap:round;stroke-linejoin:round;stroke-miterlimit:1.5;stroke-dasharray:none"
       id="path9961-0-2" /><path
       d="m 63.93288,40.791205 c 0.812861,0 1.003515,0.970203 1.621133,0.970203"
       style="fill:none;stroke:#fab387;stroke-width:0.267869;stroke-linecap:round;stroke-linejoin:round;stroke-miterlimit:1.5;stroke-dasharray:none"
       id="path9965-1-1" /><path
       d="m 64.505072,40.503177 c 0,0 -0.232869,-0.528091 -0.433847,-0.528091 -0.200978,0 -0.490974,0.549585 -0.490974,0.549585"
       style="fill:none;stroke:#cdd6f4;stroke-width:0.267869;stroke-linecap:round;stroke-linejoin:round;stroke-miterlimit:1.5;stroke-dasharray:none;stroke-opacity:0"
       id="path9967-0-6" /><path
       d="m 61.928288,49.75734 h 8.169959"
       style="fill:none;stroke:#f5c2e7;stroke-width:0.266052;stroke-linecap:round;stroke-linejoin:round;stroke-miterlimit:1.5;stroke-dasharray:none"
       id="path1"
       sodipodi:nodetypes="cc"
       inkscape:label="line" /></g></svg>
