<?xml version="1.0" encoding="UTF-8" standalone="no"?>
<svg
   viewBox="0 0 8002.5054 2409.9976"
   version="1.1"
   id="svg6"
   sodipodi:docname="harmony_hotek.svg"
   xml:space="preserve"
   width="8002.5054"
   height="2409.9976"
   inkscape:version="1.3.2 (091e20ef0f, 2023-11-25, custom)"
   xmlns:inkscape="http://www.inkscape.org/namespaces/inkscape"
   xmlns:sodipodi="http://sodipodi.sourceforge.net/DTD/sodipodi-0.dtd"
   xmlns:xlink="http://www.w3.org/1999/xlink"
   xmlns="http://www.w3.org/2000/svg"
   xmlns:svg="http://www.w3.org/2000/svg"
   xmlns:rdf="http://www.w3.org/1999/02/22-rdf-syntax-ns#"
   xmlns:cc="http://creativecommons.org/ns#"
   xmlns:dc="http://purl.org/dc/elements/1.1/"><sodipodi:namedview
     id="namedview6"
     pagecolor="#505050"
     bordercolor="#eeeeee"
     borderopacity="1"
     inkscape:showpageshadow="0"
     inkscape:pageopacity="0"
     inkscape:pagecheckerboard="0"
     inkscape:deskcolor="#505050"
     inkscape:zoom="0.14833529"
     inkscape:cx="4061.7442"
     inkscape:cy="1119.0864"
     inkscape:window-width="1892"
     inkscape:window-height="1015"
     inkscape:window-x="0"
     inkscape:window-y="0"
     inkscape:window-maximized="1"
     inkscape:current-layer="svg6" /><defs
     id="defs1"><linearGradient
       id="linearGradient8"
       inkscape:collect="always"><stop
         style="stop-color:#ed8796;stop-opacity:1"
         offset="0"
         id="stop8" /><stop
         style="stop-color:#f5a97f;stop-opacity:1"
         offset="0.27075225"
         id="stop17" /><stop
         style="stop-color:#eed49f;stop-opacity:1"
         offset="0.46307045"
         id="stop18" /><stop
         style="stop-color:#a6da95;stop-opacity:1"
         offset="0.63235492"
         id="stop19" /><stop
         style="stop-color:#91d7e3;stop-opacity:1"
         offset="0.80538279"
         id="stop20" /><stop
         style="stop-color:#c6a0f6;stop-opacity:1"
         offset="1"
         id="stop15" /></linearGradient><style
       id="style1">.cls-1{fill:#1e1e2e;}.cls-2,.cls-3,.cls-4,.cls-5,.cls-6,.cls-7{fill:none;stroke-miterlimit:10;stroke-width:15px;}.cls-2{stroke:#f38ba8;}.cls-3{stroke:#fab387;}.cls-4{stroke:#f9e2af;}.cls-5{stroke:#a6e3a1;}.cls-6{stroke:#89dceb;}.cls-7{stroke:#cba6f7;}</style><style
       id="style1-5">.cls-1{fill:#1e1e2e;}.cls-2,.cls-3,.cls-4,.cls-5,.cls-6,.cls-7{fill:none;stroke-miterlimit:10;stroke-width:15px;}.cls-2{stroke:#f38ba8;}.cls-3{stroke:#fab387;}.cls-4{stroke:#f9e2af;}.cls-5{stroke:#a6e3a1;}.cls-6{stroke:#89dceb;}.cls-7{stroke:#cba6f7;}</style><linearGradient
       inkscape:collect="always"
       xlink:href="#linearGradient8"
       id="linearGradient15"
       x1="3508.6145"
       y1="5565.5938"
       x2="4236.2334"
       y2="7197.4043"
       gradientUnits="userSpaceOnUse" /><linearGradient
       inkscape:collect="always"
       xlink:href="#linearGradient8"
       id="linearGradient22"
       gradientUnits="userSpaceOnUse"
       x1="3508.6145"
       y1="5565.5938"
       x2="4236.2334"
       y2="7197.4043" /><linearGradient
       inkscape:collect="always"
       xlink:href="#linearGradient8"
       id="linearGradient23"
       gradientUnits="userSpaceOnUse"
       x1="3508.6145"
       y1="5565.5938"
       x2="4236.2334"
       y2="7197.4043" /><linearGradient
       inkscape:collect="always"
       xlink:href="#linearGradient8"
       id="linearGradient24"
       gradientUnits="userSpaceOnUse"
       x1="3508.6145"
       y1="5565.5938"
       x2="4236.2334"
       y2="7197.4043" /><linearGradient
       inkscape:collect="always"
       xlink:href="#linearGradient8"
       id="linearGradient25"
       gradientUnits="userSpaceOnUse"
       x1="3508.6145"
       y1="5565.5938"
       x2="4236.2334"
       y2="7197.4043" /><linearGradient
       inkscape:collect="always"
       xlink:href="#linearGradient8"
       id="linearGradient26"
       gradientUnits="userSpaceOnUse"
       x1="3508.6145"
       y1="5565.5938"
       x2="4236.2334"
       y2="7197.4043" /><linearGradient
       inkscape:collect="always"
       xlink:href="#linearGradient8"
       id="linearGradient27"
       gradientUnits="userSpaceOnUse"
       x1="3508.6145"
       y1="5565.5938"
       x2="4236.2334"
       y2="7197.4043" /><linearGradient
       inkscape:collect="always"
       xlink:href="#linearGradient8"
       id="linearGradient28"
       gradientUnits="userSpaceOnUse"
       x1="3508.6145"
       y1="5565.5938"
       x2="4236.2334"
       y2="7197.4043" /><linearGradient
       inkscape:collect="always"
       xlink:href="#linearGradient8"
       id="linearGradient29"
       gradientUnits="userSpaceOnUse"
       x1="3508.6145"
       y1="5565.5938"
       x2="4236.2334"
       y2="7197.4043" /></defs><title
     id="title1">harmony</title><g
     id="g22"
     transform="translate(61.220298,-5282.5918)"><path
       class="cls-2"
       d="m -59.717466,6571.4758 c 0,0 2604.869166,532.7624 3610.188266,308.4202 m 990.6821,-650.9944 c 1116.7862,-124.0628 3398.6296,342.5742 3398.6296,342.5742"
       id="path1-6"
       sodipodi:nodetypes="cccc"
       style="stroke:#ed8796" /><path
       class="cls-3"
       d="m -59.717466,6721.4758 c 0,0 2663.920366,544.8398 3643.566166,300.5439 m 961.3667,-643.5662 c 1118.2471,-122.4851 3394.5671,343.0223 3394.5671,343.0223"
       id="path2-2"
       sodipodi:nodetypes="cccc"
       style="stroke:#f5a97f" /><path
       class="cls-4"
       d="m -59.717466,6871.4758 c 0,0 2689.508966,550.0734 3657.531166,296.9779 m 942.7855,-639.4905 c 1116.5855,-124.2787 3399.1833,342.5126 3399.1833,342.5126"
       id="path3-9"
       sodipodi:nodetypes="cccc"
       style="stroke:#eed49f" /><path
       class="cls-5"
       d="m -59.717466,7021.4758 c 0,0 2680.020466,548.1327 3652.387866,298.311 m 925.3751,-638.2134 c 1108.0764,-133.2412 3421.737,339.9024 3421.737,339.9024"
       id="path4-1"
       sodipodi:nodetypes="cccc"
       style="stroke:#a6da95" /><path
       class="cls-6"
       d="m -59.717466,7171.4758 c 0,0 2217.497366,453.5349 3350.151866,347.4852 m 1173.5361,-680.2596 c 1084.8391,-156.1796 3475.812,332.7744 3475.812,332.7744"
       id="path5-2"
       sodipodi:nodetypes="cccc"
       style="stroke:#91d7e3" /><path
       class="cls-7"
       d="m -59.717466,7321.4758 c 0,0 2439.859166,499.0136 3508.267366,327.7752 m 643.3208,-551.9964 c 730.9576,-413.1959 3847.9118,224.2212 3847.9118,224.2212"
       id="path6-7"
       sodipodi:nodetypes="cccc"
       style="stroke:#c6a0f6" /><g
       id="g6"
       style="fill:none;fill-opacity:1;stroke:url(#linearGradient15)"><path
         d="m 4126.1635,7055.5351 c 38.7361,-152.6549 -131.2501,-249.599 -144.1179,-683.0994"
         style="fill:none;fill-opacity:1;stroke:url(#linearGradient22);stroke-width:15;stroke-linecap:round;stroke-linejoin:round;stroke-miterlimit:1.5;stroke-dasharray:none;stroke-opacity:1"
         id="path1-3"
         sodipodi:nodetypes="cc" /><path
         d="m 4261.494,6603.996 v 404.2965"
         style="fill:none;fill-opacity:1;stroke:url(#linearGradient23);stroke-width:15;stroke-linecap:round;stroke-linejoin:round;stroke-miterlimit:1.5;stroke-dasharray:none;stroke-opacity:1"
         id="path2-6"
         sodipodi:nodetypes="cc" /><path
         d="m 4402.7684,6976.2355 c -17.0087,-138.9176 88.0349,-318.6447 88.0349,-539.8614 0,-221.2569 -26.6915,-416.1056 -33.8498,-536.8243"
         style="fill:none;fill-opacity:1;stroke:url(#linearGradient24);stroke-width:15;stroke-linecap:round;stroke-linejoin:round;stroke-miterlimit:1.5;stroke-dasharray:none;stroke-opacity:1"
         id="path3-7"
         sodipodi:nodetypes="csc" /><path
         d="m 4405.7947,5916.9801 c 0,0 136.8551,-10.717 184.1316,-224.2901"
         style="fill:none;fill-opacity:1;stroke:url(#linearGradient25);stroke-width:15;stroke-linecap:round;stroke-linejoin:round;stroke-miterlimit:1.5;stroke-dasharray:none;stroke-opacity:1"
         id="path4-5" /><path
         d="m 4196.9936,5496.4663 c 0,0 -57.3868,-178.3079 -105.917,-178.3079 -48.5302,0 -133.4174,232.6617 -133.4174,583.4943 0,90.6301 -472.7242,328.5088 -372.5094,877.9511 16.0957,88.1631 56.3758,256.2797 56.3758,256.9267 0,0.647 101.8324,385.3698 -116.0276,385.3698 -45.3353,0 -67.0524,-25.0739 -112.3876,-25.0739 -45.2948,0 -81.8542,30.938 -81.8542,71.0967 0,40.1588 44.8902,138.8771 204.8376,138.8771 289.0376,0 300.0376,-242.125 300.0376,-399.0392 0,-156.9142 -1.4559,-108.3435 -1.4559,-134.0241 0,-86.0197 71.6629,-103.531 98.2737,-113.2775"
         style="fill:none;fill-opacity:1;stroke:url(#linearGradient26);stroke-width:15;stroke-linecap:round;stroke-linejoin:round;stroke-miterlimit:1.5;stroke-dasharray:none"
         id="path5-3" /><ellipse
         transform="matrix(0.92765078,-0.37344884,0.37345043,0.92765014,0,0)"
         cx="1925.9797"
         cy="6836.8599"
         rx="45.204254"
         ry="58.17894"
         style="fill:none;fill-opacity:1;stroke:url(#linearGradient27);stroke-width:15;stroke-linecap:round;stroke-linejoin:round;stroke-miterlimit:1.5;stroke-dasharray:none;stroke-opacity:1"
         id="ellipse5" /><path
         d="m 4289.4437,5435.9655 c 143.2853,0 176.8924,173.4144 285.7617,173.4144"
         style="fill:none;fill-opacity:1;stroke:url(#linearGradient28);stroke-width:15;stroke-linecap:round;stroke-linejoin:round;stroke-miterlimit:1.5;stroke-dasharray:none;stroke-opacity:1"
         id="path6-5" /><path
         d="m 4390.3055,5384.483 c 0,0 -41.0485,-94.3912 -76.4754,-94.3912 -35.4271,0 -86.5455,98.2332 -86.5455,98.2332"
         style="fill:none;fill-opacity:1;stroke:url(#linearGradient29);stroke-width:15;stroke-linecap:round;stroke-linejoin:round;stroke-miterlimit:1.5;stroke-dasharray:none;stroke-opacity:1"
         id="path7" /></g></g><metadata
     id="metadata29"><rdf:RDF><cc:Work
         rdf:about=""><dc:title>harmony</dc:title></cc:Work></rdf:RDF></metadata></svg>
