<?xml version="1.0" encoding="UTF-8" standalone="no"?>
<!-- Created with Inkscape (http://www.inkscape.org/) -->

<svg
   width="12852.083"
   height="1141.9969"
   viewBox="0 0 3400.4468 302.15335"
   version="1.1"
   id="svg1"
   inkscape:version="1.3.2 (091e20ef0f, 2023-11-25, custom)"
   sodipodi:docname="lego_blocks.svg"
   inkscape:export-filename="mocha_lego.png"
   inkscape:export-xdpi="96"
   inkscape:export-ydpi="96"
   xmlns:inkscape="http://www.inkscape.org/namespaces/inkscape"
   xmlns:sodipodi="http://sodipodi.sourceforge.net/DTD/sodipodi-0.dtd"
   xmlns="http://www.w3.org/2000/svg"
   xmlns:svg="http://www.w3.org/2000/svg">
  <sodipodi:namedview
     id="namedview1"
     pagecolor="#9ea1b3"
     bordercolor="#89dceb"
     borderopacity="1"
     inkscape:showpageshadow="0"
     inkscape:pageopacity="0"
     inkscape:pagecheckerboard="false"
     inkscape:deskcolor="#a4a8b8"
     inkscape:document-units="px"
     showguides="true"
     inkscape:lockguides="false"
     showborder="false"
     borderlayer="true"
     inkscape:zoom="0.028284271"
     inkscape:cx="6523.0601"
     inkscape:cy="5161.8795"
     inkscape:window-width="1892"
     inkscape:window-height="1015"
     inkscape:window-x="0"
     inkscape:window-y="0"
     inkscape:window-maximized="1"
     inkscape:current-layer="layer1"
     showgrid="false" />
  <defs
     id="defs1" />
  <g
     inkscape:label="Warstwa 1"
     inkscape:groupmode="layer"
     id="layer1"
     transform="translate(-593.93184,2034.6951)">
    <g
       id="g4354"
       transform="translate(1314.5536,-1839.0962)">
      <g
         id="g463"
         transform="translate(356.04637,23.143603)">
        <g
           id="g393">
          <path
             style="opacity:1;fill:#cba6f7;fill-opacity:1;stroke:none;stroke-width:0.172348;stroke-linecap:square;stroke-linejoin:round;stroke-dasharray:none"
             d="m -276.15156,51.972679 -10e-6,-89.381849 130.10519,-75.11627 1e-5,89.381837 z"
             id="path9" />
          <path
             style="opacity:1;fill:#bf8ff9;fill-opacity:1;stroke:none;stroke-width:0.172348;stroke-linecap:square;stroke-linejoin:round;stroke-dasharray:none"
             d="m -276.15157,-37.40917 10e-6,89.381849 -130.1052,-75.116268 v -89.381841 z"
             id="path10" />
          <path
             style="opacity:1;fill:#cba6f7;stroke:none;stroke-width:0.172348;stroke-linecap:square;stroke-linejoin:round;stroke-dasharray:none"
             d="m -276.15158,44.015458 1e-5,-89.381846 -130.10519,-75.116282 -1e-5,89.381848 z"
             id="path3" />
          <path
             style="opacity:1;fill:#bf8ff9;fill-opacity:1;stroke:none;stroke-width:0.172348;stroke-linecap:square;stroke-linejoin:round;stroke-dasharray:none"
             d="m -276.15157,-45.366388 -1e-5,89.381846 130.1052,-75.116265 v -89.381843 z"
             id="path4" />
          <path
             style="opacity:1;fill:#d4b7f5;fill-opacity:1;stroke:none;stroke-width:0.172348;stroke-linecap:square;stroke-linejoin:round;stroke-dasharray:none"
             d="m -276.15157,-45.366388 130.10519,-75.116262 -130.10519,-75.11628 -130.10519,75.11626 z"
             id="path5" />
          <path
             id="path7"
             style="opacity:1;fill:#bf8ff9;fill-opacity:1;stroke-width:0.144713;stroke-linecap:square;stroke-linejoin:round"
             d="m -276.27647,-150.52451 c -7.04359,0.014 -14.07896,0.84725 -20.65416,2.48239 l -31.55954,0.0626 v 27.60059 c 0.0319,7.68837 5.17378,15.36667 15.41791,21.212433 10.24412,5.845763 23.65095,8.752198 37.04556,8.725622 13.39461,-0.02656 26.77699,-2.986095 36.97235,-8.872388 10.19536,-5.886297 15.2733,-13.584827 15.24135,-21.273197 v -27.60059 l -31.78911,0.063 c -6.58863,-1.609 -13.63083,-2.41437 -20.67436,-2.40042 z" />
          <path
             id="path8"
             style="opacity:1;fill:#d4b7f5;fill-opacity:1;stroke:none;stroke-width:0.144713;stroke-linecap:square;stroke-linejoin:round"
             d="m -239.23086,-169.39948 c 10.24413,5.84577 15.38596,13.52402 15.41791,21.2124 0.0319,7.68838 -5.04597,15.38689 -15.24134,21.27318 -10.19537,5.8863 -23.5778,8.84588 -36.97242,8.87244 -13.39462,0.0266 -26.80143,-2.87989 -37.04557,-8.72566 -10.24413,-5.84577 -15.38596,-13.52401 -15.41791,-21.21239 -0.0319,-7.68838 5.04597,-15.3869 15.24134,-21.27319 10.19537,-5.8863 23.57781,-8.84588 36.97243,-8.87244 13.39462,-0.0266 26.80143,2.87989 37.04556,8.72566 z"
             sodipodi:nodetypes="sssssssss" />
        </g>
      </g>
      <g
         id="g379"
         transform="translate(349.35448,30.103757)">
        <path
           style="opacity:1;fill:#f38ba8;fill-opacity:1;stroke:none;stroke-width:0.172348;stroke-linecap:square;stroke-linejoin:round;stroke-dasharray:none"
           d="m 91.26941,51.972679 -10e-6,-89.381849 130.10519,-75.11627 10e-6,89.381837 z"
           id="path11" />
        <path
           style="opacity:1;fill:#f47699;fill-opacity:1;stroke:none;stroke-width:0.172348;stroke-linecap:square;stroke-linejoin:round;stroke-dasharray:none"
           d="m 91.2694,-37.40917 10e-6,89.381849 -130.1052,-75.116268 v -89.381841 z"
           id="path12" />
        <path
           style="opacity:1;fill:#f38ba8;stroke:none;stroke-width:0.172348;stroke-linecap:square;stroke-linejoin:round;stroke-dasharray:none"
           d="m 91.26939,44.015458 1e-5,-89.381846 -130.10519,-75.116282 -10e-6,89.381848 z"
           id="path13" />
        <path
           style="opacity:1;fill:#f47699;fill-opacity:1;stroke:none;stroke-width:0.172348;stroke-linecap:square;stroke-linejoin:round;stroke-dasharray:none"
           d="m 91.2694,-45.366388 -1e-5,89.381846 130.1052,-75.116265 v -89.381843 z"
           id="path14" />
        <path
           style="opacity:1;fill:#f39ab3;fill-opacity:1;stroke:none;stroke-width:0.172348;stroke-linecap:square;stroke-linejoin:round;stroke-dasharray:none"
           d="M 91.2694,-45.366388 221.37459,-120.48265 91.2694,-195.59893 -38.83579,-120.48267 Z"
           id="path15" />
        <path
           id="path16"
           style="opacity:1;fill:#f47699;fill-opacity:1;stroke-width:0.144713;stroke-linecap:square;stroke-linejoin:round"
           d="m 91.1445,-150.52451 c -7.04359,0.014 -14.07896,0.84725 -20.65416,2.48239 l -31.55954,0.0626 v 27.60059 c 0.0319,7.68837 5.17378,15.36667 15.41791,21.212433 10.24412,5.845763 23.65095,8.752198 37.04556,8.725622 13.39461,-0.02656 26.77699,-2.986095 36.97235,-8.872388 10.19536,-5.886297 15.2733,-13.584827 15.24135,-21.273197 v -27.60059 l -31.78911,0.063 c -6.58863,-1.609 -13.63083,-2.41437 -20.67436,-2.40042 z" />
        <path
           id="path17"
           style="opacity:1;fill:#f39ab3;fill-opacity:1;stroke:none;stroke-width:0.144713;stroke-linecap:square;stroke-linejoin:round"
           d="m 128.19011,-169.39948 c 10.24413,5.84577 15.38596,13.52402 15.41791,21.2124 0.0319,7.68838 -5.04597,15.38689 -15.24134,21.27318 -10.19537,5.8863 -23.5778,8.84588 -36.97242,8.87244 -13.39462,0.0266 -26.80143,-2.87989 -37.04557,-8.72566 -10.24413,-5.84577 -15.38596,-13.52401 -15.41791,-21.21239 -0.0319,-7.68838 5.04597,-15.3869 15.24134,-21.27319 10.19537,-5.8863 23.57781,-8.84588 36.97243,-8.87244 13.39462,-0.0266 26.80143,2.87989 37.04556,8.72566 z"
           sodipodi:nodetypes="sssssssss" />
      </g>
      <g
         id="g190">
        <path
           style="opacity:1;fill:#f9e2af;fill-opacity:1;stroke:none;stroke-width:0.172348;stroke-linecap:square;stroke-linejoin:round;stroke-dasharray:none"
           d="M 1119.0515,51.972679 V -37.40917 l 130.1052,-75.11627 v 89.381837 z"
           id="path32" />
        <path
           style="opacity:1;fill:#fcd892;fill-opacity:1;stroke:none;stroke-width:0.172348;stroke-linecap:square;stroke-linejoin:round;stroke-dasharray:none"
           d="M 1119.0515,-37.40917 V 51.972679 L 988.94627,-23.143589 v -89.381841 z"
           id="path33" />
        <path
           style="opacity:1;fill:#f9e2af;stroke:none;stroke-width:0.172348;stroke-linecap:square;stroke-linejoin:round;stroke-dasharray:none"
           d="m 1119.0515,44.015458 v -89.381846 l -130.10523,-75.116282 -10e-6,89.381848 z"
           id="path34" />
        <path
           style="opacity:1;fill:#fcd892;fill-opacity:1;stroke:none;stroke-width:0.172348;stroke-linecap:square;stroke-linejoin:round;stroke-dasharray:none"
           d="m 1119.0515,-45.366388 v 89.381846 l 130.1052,-75.116265 v -89.381843 z"
           id="path35" />
        <path
           style="opacity:1;fill:#f8e9c4;fill-opacity:1;stroke:none;stroke-width:0.172348;stroke-linecap:square;stroke-linejoin:round;stroke-dasharray:none"
           d="m 1119.0515,-45.366388 130.1052,-75.116262 -130.1052,-75.11628 -130.10523,75.11626 z"
           id="path36" />
        <path
           id="path37"
           style="opacity:1;fill:#fcd892;fill-opacity:1;stroke-width:0.144713;stroke-linecap:square;stroke-linejoin:round"
           d="m 1118.9266,-150.52451 c -7.0436,0.014 -14.079,0.84725 -20.6542,2.48239 l -31.5595,0.0626 v 27.60059 c 0.032,7.68837 5.1737,15.36667 15.4179,21.212433 10.2441,5.845763 23.6509,8.752198 37.0455,8.725622 13.3946,-0.02656 26.777,-2.986095 36.9724,-8.872388 10.1953,-5.886297 15.2733,-13.584827 15.2413,-21.273197 v -27.60059 l -31.7891,0.063 c -6.5886,-1.609 -13.6308,-2.41437 -20.6743,-2.40042 z" />
        <path
           id="path38"
           style="opacity:1;fill:#f8e9c4;fill-opacity:1;stroke:none;stroke-width:0.144713;stroke-linecap:square;stroke-linejoin:round"
           d="m 1155.9722,-169.39948 c 10.2441,5.84577 15.3859,13.52402 15.4179,21.2124 0.032,7.68838 -5.046,15.38689 -15.2414,21.27318 -10.1953,5.8863 -23.5778,8.84588 -36.9724,8.87244 -13.3946,0.0266 -26.8014,-2.87989 -37.0455,-8.72566 -10.2442,-5.84577 -15.386,-13.52401 -15.418,-21.21239 -0.032,-7.68838 5.046,-15.3869 15.2414,-21.27319 10.1954,-5.8863 23.5778,-8.84588 36.9724,-8.87244 13.3946,-0.0266 26.8014,2.87989 37.0456,8.72566 z"
           sodipodi:nodetypes="sssssssss" />
      </g>
      <g
         id="g169">
        <path
           style="opacity:1;fill:#a6e3a1;fill-opacity:1;stroke:none;stroke-width:0.172348;stroke-linecap:square;stroke-linejoin:round;stroke-dasharray:none"
           d="M 1466.9943,51.972679 V -37.40917 l 130.1052,-75.11627 v 89.381837 z"
           id="path39" />
        <path
           style="opacity:1;fill:#8fe189;fill-opacity:1;stroke:none;stroke-width:0.172348;stroke-linecap:square;stroke-linejoin:round;stroke-dasharray:none"
           d="M 1466.9943,-37.40917 V 51.972679 L 1336.8891,-23.143589 V -112.52543 Z"
           id="path40" />
        <path
           style="opacity:1;fill:#a6e3a1;stroke:none;stroke-width:0.172348;stroke-linecap:square;stroke-linejoin:round;stroke-dasharray:none"
           d="m 1466.9943,44.015458 v -89.381846 l -130.1052,-75.116282 v 89.381848 z"
           id="path41" />
        <path
           style="opacity:1;fill:#8fe189;fill-opacity:1;stroke:none;stroke-width:0.172348;stroke-linecap:square;stroke-linejoin:round;stroke-dasharray:none"
           d="m 1466.9943,-45.366388 v 89.381846 l 130.1052,-75.116265 v -89.381843 z"
           id="path42" />
        <path
           style="opacity:1;fill:#b6e4b4;fill-opacity:1;stroke:none;stroke-width:0.172348;stroke-linecap:square;stroke-linejoin:round;stroke-dasharray:none"
           d="m 1466.9943,-45.366388 130.1052,-75.116262 -130.1052,-75.11628 -130.1052,75.11626 z"
           id="path43" />
        <path
           id="path44"
           style="opacity:1;fill:#8fe189;fill-opacity:1;stroke-width:0.144713;stroke-linecap:square;stroke-linejoin:round"
           d="m 1466.8694,-150.52451 c -7.0436,0.014 -14.0789,0.84725 -20.6541,2.48239 l -31.5596,0.0626 v 27.60059 c 0.032,7.68837 5.1738,15.36667 15.4179,21.212433 10.2441,5.845763 23.651,8.752198 37.0456,8.725622 13.3946,-0.02656 26.777,-2.986095 36.9723,-8.872388 10.1954,-5.886297 15.2733,-13.584827 15.2414,-21.273197 v -27.60059 l -31.7891,0.063 c -6.5887,-1.609 -13.6309,-2.41437 -20.6744,-2.40042 z" />
        <path
           id="path45"
           style="opacity:1;fill:#b6e4b4;fill-opacity:1;stroke:none;stroke-width:0.144713;stroke-linecap:square;stroke-linejoin:round"
           d="m 1503.915,-169.39948 c 10.2442,5.84577 15.386,13.52402 15.4179,21.2124 0.032,7.68838 -5.0459,15.38689 -15.2413,21.27318 -10.1954,5.8863 -23.5778,8.84588 -36.9724,8.87244 -13.3946,0.0266 -26.8015,-2.87989 -37.0456,-8.72566 -10.2441,-5.84577 -15.386,-13.52401 -15.4179,-21.21239 -0.032,-7.68838 5.046,-15.3869 15.2413,-21.27319 10.1954,-5.8863 23.5778,-8.84588 36.9725,-8.87244 13.3946,-0.0266 26.8014,2.87989 37.0455,8.72566 z"
           sodipodi:nodetypes="sssssssss" />
      </g>
      <g
         id="g1">
        <path
           style="opacity:1;fill:#89dceb;fill-opacity:1;stroke:none;stroke-width:0.172348;stroke-linecap:square;stroke-linejoin:round;stroke-dasharray:none"
           d="M 1819.9281,51.972679 V -37.40917 l 130.1052,-75.11627 v 89.381837 z"
           id="path46" />
        <path
           style="opacity:1;fill:#71d9ea;fill-opacity:1;stroke:none;stroke-width:0.172348;stroke-linecap:square;stroke-linejoin:round;stroke-dasharray:none"
           d="M 1819.9281,-37.40917 V 51.972679 L 1689.8229,-23.143589 V -112.52543 Z"
           id="path47" />
        <path
           style="opacity:1;fill:#89dceb;stroke:none;stroke-width:0.172348;stroke-linecap:square;stroke-linejoin:round;stroke-dasharray:none"
           d="m 1819.9281,44.015458 v -89.381846 l -130.1052,-75.116282 v 89.381848 z"
           id="path48" />
        <path
           style="opacity:1;fill:#71d9ea;fill-opacity:1;stroke:none;stroke-width:0.172348;stroke-linecap:square;stroke-linejoin:round;stroke-dasharray:none"
           d="m 1819.9281,-45.366388 v 89.381846 l 130.1052,-75.116265 v -89.381843 z"
           id="path49" />
        <path
           style="opacity:1;fill:#a1e0ed;fill-opacity:1;stroke:none;stroke-width:0.172348;stroke-linecap:square;stroke-linejoin:round;stroke-dasharray:none"
           d="m 1819.9281,-45.366388 130.1052,-75.116262 -130.1052,-75.11628 -130.1052,75.11626 z"
           id="path50" />
        <path
           id="path51"
           style="opacity:1;fill:#71d9ea;fill-opacity:1;stroke-width:0.144713;stroke-linecap:square;stroke-linejoin:round"
           d="m 1819.8032,-150.52451 c -7.0436,0.014 -14.079,0.84725 -20.6542,2.48239 l -31.5595,0.0626 v 27.60059 c 0.032,7.68837 5.1738,15.36667 15.4179,21.212433 10.2441,5.845763 23.651,8.752198 37.0456,8.725622 13.3946,-0.02656 26.777,-2.986095 36.9723,-8.872388 10.1954,-5.886297 15.2733,-13.584827 15.2414,-21.273197 v -27.60059 l -31.7891,0.063 c -6.5887,-1.609 -13.6309,-2.41437 -20.6744,-2.40042 z" />
        <path
           id="path52"
           style="opacity:1;fill:#a1e0ed;fill-opacity:1;stroke:none;stroke-width:0.144713;stroke-linecap:square;stroke-linejoin:round"
           d="m 1856.8488,-169.39948 c 10.2441,5.84577 15.386,13.52402 15.4179,21.2124 0.032,7.68838 -5.0459,15.38689 -15.2413,21.27318 -10.1954,5.8863 -23.5778,8.84588 -36.9724,8.87244 -13.3947,0.0266 -26.8015,-2.87989 -37.0456,-8.72566 -10.2441,-5.84577 -15.386,-13.52401 -15.4179,-21.21239 -0.032,-7.68838 5.046,-15.3869 15.2413,-21.27319 10.1954,-5.8863 23.5778,-8.84588 36.9725,-8.87244 13.3946,-0.0266 26.8014,2.87989 37.0455,8.72566 z"
           sodipodi:nodetypes="sssssssss" />
      </g>
      <g
         id="g499">
        <path
           style="opacity:1;fill:#89b4fa;fill-opacity:1;stroke:none;stroke-width:0.172348;stroke-linecap:square;stroke-linejoin:round;stroke-dasharray:none"
           d="M 2170.677,51.972679 V -37.40917 l 130.1052,-75.11627 v 89.381837 z"
           id="path53" />
        <path
           style="opacity:1;fill:#72a7fd;fill-opacity:1;stroke:none;stroke-width:0.172348;stroke-linecap:square;stroke-linejoin:round;stroke-dasharray:none"
           d="M 2170.677,-37.40917 V 51.972679 L 2040.5718,-23.143589 V -112.52543 Z"
           id="path54" />
        <path
           style="opacity:1;fill:#89b4fa;stroke:none;stroke-width:0.172348;stroke-linecap:square;stroke-linejoin:round;stroke-dasharray:none"
           d="m 2170.677,44.015458 v -89.381846 l -130.1052,-75.116282 v 89.381848 z"
           id="path55" />
        <path
           style="opacity:1;fill:#72a7fd;fill-opacity:1;stroke:none;stroke-width:0.172348;stroke-linecap:square;stroke-linejoin:round;stroke-dasharray:none"
           d="m 2170.677,-45.366388 v 89.381846 l 130.1052,-75.116265 v -89.381843 z"
           id="path56" />
        <path
           style="opacity:1;fill:#a2c1f6;fill-opacity:1;stroke:none;stroke-width:0.172348;stroke-linecap:square;stroke-linejoin:round;stroke-dasharray:none"
           d="m 2170.677,-45.366388 130.1052,-75.116262 -130.1052,-75.11628 -130.1052,75.11626 z"
           id="path57" />
        <path
           id="path58"
           style="opacity:1;fill:#72a7fd;fill-opacity:1;stroke-width:0.144713;stroke-linecap:square;stroke-linejoin:round"
           d="m 2170.5521,-150.52451 c -7.0436,0.014 -14.079,0.84725 -20.6542,2.48239 l -31.5595,0.0626 v 27.60059 c 0.032,7.68837 5.1738,15.36667 15.4179,21.212433 10.2441,5.845763 23.651,8.752198 37.0456,8.725622 13.3946,-0.02656 26.777,-2.986095 36.9723,-8.872388 10.1954,-5.886297 15.2733,-13.584827 15.2414,-21.273197 v -27.60059 l -31.7891,0.063 c -6.5887,-1.609 -13.6309,-2.41437 -20.6744,-2.40042 z" />
        <path
           id="path59"
           style="opacity:1;fill:#a2c1f6;fill-opacity:1;stroke:none;stroke-width:0.144713;stroke-linecap:square;stroke-linejoin:round"
           d="m 2207.5977,-169.39948 c 10.2441,5.84577 15.386,13.52402 15.4179,21.2124 0.032,7.68838 -5.046,15.38689 -15.2413,21.27318 -10.1954,5.8863 -23.5778,8.84588 -36.9724,8.87244 -13.3947,0.0266 -26.8015,-2.87989 -37.0456,-8.72566 -10.2441,-5.84577 -15.386,-13.52401 -15.4179,-21.21239 -0.032,-7.68838 5.0459,-15.3869 15.2413,-21.27319 10.1954,-5.8863 23.5778,-8.84588 36.9724,-8.87244 13.3947,-0.0266 26.8015,2.87989 37.0456,8.72566 z"
           sodipodi:nodetypes="sssssssss" />
      </g>
      <path
         style="opacity:1;fill:#b4befe;fill-opacity:1;stroke:none;stroke-width:0.172348;stroke-linecap:square;stroke-linejoin:round;stroke-dasharray:none"
         d="M 2549.72,51.972679 V -37.40917 l 130.1052,-75.11627 v 89.381837 z"
         id="path60" />
      <path
         style="opacity:1;fill:#9fadff;fill-opacity:1;stroke:none;stroke-width:0.172348;stroke-linecap:square;stroke-linejoin:round;stroke-dasharray:none"
         d="M 2549.72,-37.40917 V 51.972679 L 2419.6148,-23.143589 V -112.52543 Z"
         id="path61" />
      <path
         style="opacity:1;fill:#b4befe;stroke:none;stroke-width:0.172348;stroke-linecap:square;stroke-linejoin:round;stroke-dasharray:none"
         d="m 2549.72,44.015458 v -89.381846 l -130.1052,-75.116282 v 89.381848 z"
         id="path62" />
      <path
         style="opacity:1;fill:#9fadff;fill-opacity:1;stroke:none;stroke-width:0.172348;stroke-linecap:square;stroke-linejoin:round;stroke-dasharray:none"
         d="m 2549.72,-45.366388 v 89.381846 l 130.1052,-75.116265 v -89.381843 z"
         id="path63" />
      <path
         style="opacity:1;fill:#cacefc;fill-opacity:1;stroke:none;stroke-width:0.172348;stroke-linecap:square;stroke-linejoin:round;stroke-dasharray:none"
         d="m 2549.72,-45.366388 130.1052,-75.116262 -130.1052,-75.11628 -130.1052,75.11626 z"
         id="path64" />
      <path
         id="path65"
         style="opacity:1;fill:#9fadff;fill-opacity:1;stroke-width:0.144713;stroke-linecap:square;stroke-linejoin:round"
         d="m 2549.5951,-150.52451 c -7.0436,0.014 -14.0789,0.84725 -20.6541,2.48239 l -31.5596,0.0626 v 27.60059 c 0.032,7.68837 5.1738,15.36667 15.4179,21.212433 10.2442,5.845763 23.651,8.752198 37.0456,8.725622 13.3946,-0.02656 26.777,-2.986095 36.9724,-8.872388 10.1953,-5.886297 15.2733,-13.584827 15.2413,-21.273197 v -27.60059 l -31.7891,0.063 c -6.5886,-1.609 -13.6308,-2.41437 -20.6744,-2.40042 z" />
      <path
         id="path66"
         style="opacity:1;fill:#cacefc;fill-opacity:1;stroke:none;stroke-width:0.144713;stroke-linecap:square;stroke-linejoin:round"
         d="m 2586.6407,-169.39948 c 10.2442,5.84577 15.386,13.52402 15.418,21.2124 0.032,7.68838 -5.046,15.38689 -15.2414,21.27318 -10.1954,5.8863 -23.5778,8.84588 -36.9724,8.87244 -13.3946,0.0266 -26.8014,-2.87989 -37.0456,-8.72566 -10.2441,-5.84577 -15.3859,-13.52401 -15.4179,-21.21239 -0.032,-7.68838 5.046,-15.3869 15.2414,-21.27319 10.1953,-5.8863 23.5778,-8.84588 36.9724,-8.87244 13.3946,-0.0266 26.8014,2.87989 37.0455,8.72566 z"
         sodipodi:nodetypes="sssssssss" />
      <g
         id="g365"
         transform="translate(702.67027,43.033548)">
        <path
           style="opacity:1;fill:#fab387;fill-opacity:1;stroke:none;stroke-width:0.172348;stroke-linecap:square;stroke-linejoin:round;stroke-dasharray:none"
           d="m -961.29874,46.283606 v -89.3818 l 130.1052,-75.116296 v 89.381796 z"
           id="path85" />
        <path
           style="opacity:1;fill:#fea46d;fill-opacity:1;stroke:none;stroke-width:0.172348;stroke-linecap:square;stroke-linejoin:round;stroke-dasharray:none"
           d="m -961.29874,-43.098194 v 89.3818 l -130.10516,-75.1163 v -89.381796 z"
           id="path86" />
        <path
           style="opacity:1;fill:#fab387;stroke:none;stroke-width:0.172348;stroke-linecap:square;stroke-linejoin:round;stroke-dasharray:none"
           d="m -961.29874,38.326406 v -89.3819 l -130.10516,-75.116196 v 89.381796 z"
           id="path87" />
        <path
           style="opacity:1;fill:#fea46d;fill-opacity:1;stroke:none;stroke-width:0.172348;stroke-linecap:square;stroke-linejoin:round;stroke-dasharray:none"
           d="m -961.29874,-51.055494 v 89.3819 l 130.1052,-75.1163 v -89.381796 z"
           id="path88" />
        <path
           style="opacity:1;fill:#f8bf9b;fill-opacity:1;stroke:none;stroke-width:0.172348;stroke-linecap:square;stroke-linejoin:round;stroke-dasharray:none"
           d="m -961.29874,-51.055494 130.1052,-75.116196 -130.1052,-75.1164 -130.10516,75.1164 z"
           id="path89" />
        <path
           id="path90"
           style="opacity:1;fill:#fea46d;fill-opacity:1;stroke-width:0.144713;stroke-linecap:square;stroke-linejoin:round"
           d="m -961.42364,-156.21359 c -7.0436,0.014 -14.079,0.8472 -20.6542,2.4824 l -31.55946,0.063 v 27.6006 c 0.032,7.6884 5.1738,15.3667 15.41786,21.2124 10.2441,5.845796 23.6509,8.752196 37.0456,8.725596 13.3946,-0.027 26.7769,-2.986 36.9723,-8.872296 10.1954,-5.8863 15.2733,-13.5849 15.2414,-21.2732 v -27.6007 l -31.7892,0.063 c -6.5886,-1.609 -13.6308,-2.4143 -20.6743,-2.4004 z" />
        <path
           id="path91"
           style="opacity:1;fill:#f8bf9b;fill-opacity:1;stroke:none;stroke-width:0.144713;stroke-linecap:square;stroke-linejoin:round"
           d="m -924.37804,-175.08859 c 10.2441,5.8458 15.386,13.524 15.4179,21.2124 0.032,7.6884 -5.046,15.3869 -15.2413,21.2732 -10.1954,5.8863 -23.5778,8.8459 -36.9725,8.8725 -13.3946,0.027 -26.8014,-2.8799 -37.0455,-8.7257 -10.24416,-5.8458 -15.38596,-13.524 -15.41786,-21.2124 -0.032,-7.6884 5.0459,-15.3869 15.24126,-21.2732 10.1954,-5.8863 23.5778,-8.8459 36.9724,-8.8725 13.3947,-0.027 26.8015,2.8799 37.0456,8.7257 z"
           sodipodi:nodetypes="sssssssss" />
      </g>
      <g
         id="g407"
         transform="translate(48.778546,54.581753)">
        <path
           style="opacity:1;fill:#f5c2e7;fill-opacity:1;stroke:none;stroke-width:0.172348;stroke-linecap:square;stroke-linejoin:round;stroke-dasharray:none"
           d="m -639.2951,51.972679 -10e-6,-89.381849 130.10519,-75.11627 10e-6,89.381837 z"
           id="path67" />
        <path
           style="opacity:1;fill:#f4afdf;fill-opacity:1;stroke:none;stroke-width:0.172348;stroke-linecap:square;stroke-linejoin:round;stroke-dasharray:none"
           d="m -639.29511,-37.40917 10e-6,89.381849 -130.1052,-75.116268 v -89.381841 z"
           id="path68" />
        <path
           style="opacity:1;fill:#f5c2e7;stroke:none;stroke-width:0.172348;stroke-linecap:square;stroke-linejoin:round;stroke-dasharray:none"
           d="m -639.29512,44.015458 10e-6,-89.381846 -130.10519,-75.116282 -10e-6,89.381848 z"
           id="path69" />
        <path
           style="opacity:1;fill:#f4afdf;fill-opacity:1;stroke:none;stroke-width:0.172348;stroke-linecap:square;stroke-linejoin:round;stroke-dasharray:none"
           d="m -639.29511,-45.366388 -10e-6,89.381846 130.1052,-75.116265 v -89.381843 z"
           id="path70" />
        <path
           style="opacity:1;fill:#f8d3ef;fill-opacity:1;stroke:none;stroke-width:0.172348;stroke-linecap:square;stroke-linejoin:round;stroke-dasharray:none"
           d="m -639.29511,-45.366388 130.10519,-75.116262 -130.10519,-75.11628 -130.10519,75.11626 z"
           id="path71" />
        <path
           id="path72"
           style="opacity:1;fill:#f4afdf;fill-opacity:1;stroke-width:0.144713;stroke-linecap:square;stroke-linejoin:round"
           d="m -639.42001,-150.52451 c -7.04359,0.014 -14.07896,0.84725 -20.65416,2.48239 l -31.55954,0.0626 v 27.60059 c 0.0319,7.68837 5.17378,15.36667 15.41791,21.212433 10.24412,5.845763 23.65095,8.752198 37.04556,8.725622 13.39461,-0.02656 26.77699,-2.986095 36.97235,-8.872388 10.19536,-5.886297 15.2733,-13.584827 15.24135,-21.273197 v -27.60059 l -31.78911,0.063 c -6.58863,-1.609 -13.63083,-2.41437 -20.67436,-2.40042 z" />
        <path
           id="path73"
           style="opacity:1;fill:#f8d3ef;fill-opacity:1;stroke:none;stroke-width:0.144713;stroke-linecap:square;stroke-linejoin:round"
           d="m -602.3744,-169.39948 c 10.24413,5.84577 15.38596,13.52402 15.41791,21.2124 0.0319,7.68838 -5.04597,15.38689 -15.24134,21.27318 -10.19537,5.8863 -23.5778,8.84588 -36.97242,8.87244 -13.39462,0.0266 -26.80143,-2.87989 -37.04557,-8.72566 -10.24413,-5.84577 -15.38596,-13.52401 -15.41791,-21.21239 -0.0319,-7.68838 5.04597,-15.3869 15.24134,-21.27319 10.19537,-5.8863 23.57781,-8.84588 36.97243,-8.87244 13.39462,-0.0266 26.80143,2.87989 37.04556,8.72566 z"
           sodipodi:nodetypes="sssssssss" />
        <path
           style="opacity:1;fill:#f5c2e7;fill-opacity:1;stroke:none;stroke-width:0.172348;stroke-linecap:square;stroke-linejoin:round;stroke-dasharray:none"
           d="m -639.2951,51.972679 -10e-6,-89.381849 130.10519,-75.11627 10e-6,89.381837 z"
           id="path275" />
        <path
           style="opacity:1;fill:#f4afdf;fill-opacity:1;stroke:none;stroke-width:0.172348;stroke-linecap:square;stroke-linejoin:round;stroke-dasharray:none"
           d="m -639.29511,-37.40917 10e-6,89.381849 -130.1052,-75.116268 v -89.381841 z"
           id="path276" />
        <path
           style="opacity:1;fill:#f5c2e7;stroke:none;stroke-width:0.172348;stroke-linecap:square;stroke-linejoin:round;stroke-dasharray:none"
           d="m -639.29512,44.015458 10e-6,-89.381846 -130.10519,-75.116282 -10e-6,89.381848 z"
           id="path277" />
        <path
           style="opacity:1;fill:#f4afdf;fill-opacity:1;stroke:none;stroke-width:0.172348;stroke-linecap:square;stroke-linejoin:round;stroke-dasharray:none"
           d="m -639.29511,-45.366388 -10e-6,89.381846 130.1052,-75.116265 v -89.381843 z"
           id="path278" />
        <path
           style="opacity:1;fill:#f8d3ef;fill-opacity:1;stroke:none;stroke-width:0.172348;stroke-linecap:square;stroke-linejoin:round;stroke-dasharray:none"
           d="m -639.29511,-45.366388 130.10519,-75.116262 -130.10519,-75.11628 -130.10519,75.11626 z"
           id="path279" />
        <path
           id="path280"
           style="opacity:1;fill:#f4afdf;fill-opacity:1;stroke-width:0.144713;stroke-linecap:square;stroke-linejoin:round"
           d="m -639.42001,-150.52451 c -7.04359,0.014 -14.07896,0.84725 -20.65416,2.48239 l -31.55954,0.0626 v 27.60059 c 0.0319,7.68837 5.17378,15.36667 15.41791,21.212433 10.24412,5.845763 23.65095,8.752198 37.04556,8.725622 13.39461,-0.02656 26.77699,-2.986095 36.97235,-8.872388 10.19536,-5.886297 15.2733,-13.584827 15.24135,-21.273197 v -27.60059 l -31.78911,0.063 c -6.58863,-1.609 -13.63083,-2.41437 -20.67436,-2.40042 z" />
        <path
           id="path281"
           style="opacity:1;fill:#f8d3ef;fill-opacity:1;stroke:none;stroke-width:0.144713;stroke-linecap:square;stroke-linejoin:round"
           d="m -602.3744,-169.39948 c 10.24413,5.84577 15.38596,13.52402 15.41791,21.2124 0.0319,7.68838 -5.04597,15.38689 -15.24134,21.27318 -10.19537,5.8863 -23.5778,8.84588 -36.97242,8.87244 -13.39462,0.0266 -26.80143,-2.87989 -37.04557,-8.72566 -10.24413,-5.84577 -15.38596,-13.52401 -15.41791,-21.21239 -0.0319,-7.68838 5.04597,-15.3869 15.24134,-21.27319 10.19537,-5.8863 23.57781,-8.84588 36.97243,-8.87244 13.39462,-0.0266 26.80143,2.87989 37.04556,8.72566 z"
           sodipodi:nodetypes="sssssssss" />
      </g>
      <g
         id="g175">
        <path
           style="opacity:1;fill:#a6e3a1;fill-opacity:1;stroke:none;stroke-width:0.172348;stroke-linecap:square;stroke-linejoin:round;stroke-dasharray:none"
           d="M 1466.9943,51.972679 V -37.40917 l 130.1052,-75.11627 v 89.381837 z"
           id="path169" />
        <path
           style="opacity:1;fill:#8fe189;fill-opacity:1;stroke:none;stroke-width:0.172348;stroke-linecap:square;stroke-linejoin:round;stroke-dasharray:none"
           d="M 1466.9943,-37.40917 V 51.972679 L 1336.8891,-23.143589 V -112.52543 Z"
           id="path170" />
        <path
           style="opacity:1;fill:#a6e3a1;stroke:none;stroke-width:0.172348;stroke-linecap:square;stroke-linejoin:round;stroke-dasharray:none"
           d="m 1466.9943,44.015458 v -89.381846 l -130.1052,-75.116282 v 89.381848 z"
           id="path171" />
        <path
           style="opacity:1;fill:#8fe189;fill-opacity:1;stroke:none;stroke-width:0.172348;stroke-linecap:square;stroke-linejoin:round;stroke-dasharray:none"
           d="m 1466.9943,-45.366388 v 89.381846 l 130.1052,-75.116265 v -89.381843 z"
           id="path172" />
        <path
           style="opacity:1;fill:#b6e4b4;fill-opacity:1;stroke:none;stroke-width:0.172348;stroke-linecap:square;stroke-linejoin:round;stroke-dasharray:none"
           d="m 1466.9943,-45.366388 130.1052,-75.116262 -130.1052,-75.11628 -130.1052,75.11626 z"
           id="path173" />
        <path
           id="path174"
           style="opacity:1;fill:#8fe189;fill-opacity:1;stroke-width:0.144713;stroke-linecap:square;stroke-linejoin:round"
           d="m 1466.8694,-150.52451 c -7.0436,0.014 -14.0789,0.84725 -20.6541,2.48239 l -31.5596,0.0626 v 27.60059 c 0.032,7.68837 5.1738,15.36667 15.4179,21.212433 10.2441,5.845763 23.651,8.752198 37.0456,8.725622 13.3946,-0.02656 26.777,-2.986095 36.9723,-8.872388 10.1954,-5.886297 15.2733,-13.584827 15.2414,-21.273197 v -27.60059 l -31.7891,0.063 c -6.5887,-1.609 -13.6309,-2.41437 -20.6744,-2.40042 z" />
        <path
           id="path175"
           style="opacity:1;fill:#b6e4b4;fill-opacity:1;stroke:none;stroke-width:0.144713;stroke-linecap:square;stroke-linejoin:round"
           d="m 1503.915,-169.39948 c 10.2442,5.84577 15.386,13.52402 15.4179,21.2124 0.032,7.68838 -5.0459,15.38689 -15.2413,21.27318 -10.1954,5.8863 -23.5778,8.84588 -36.9724,8.87244 -13.3946,0.0266 -26.8015,-2.87989 -37.0456,-8.72566 -10.2441,-5.84577 -15.386,-13.52401 -15.4179,-21.21239 -0.032,-7.68838 5.046,-15.3869 15.2413,-21.27319 10.1954,-5.8863 23.5778,-8.84588 36.9725,-8.87244 13.3946,-0.0266 26.8014,2.87989 37.0455,8.72566 z"
           sodipodi:nodetypes="sssssssss" />
      </g>
      <g
         id="g505"
         transform="translate(336.30021,7.9709278)">
        <path
           style="opacity:1;fill:#eba0ac;fill-opacity:1;stroke:none;stroke-width:0.172348;stroke-linecap:square;stroke-linejoin:round;stroke-dasharray:none"
           d="m 433.27106,51.972679 -10e-6,-89.381849 130.10519,-75.11627 10e-6,89.381837 z"
           id="path499" />
        <path
           style="opacity:1;fill:#ea8b9b;fill-opacity:1;stroke:none;stroke-width:0.172348;stroke-linecap:square;stroke-linejoin:round;stroke-dasharray:none"
           d="m 433.27105,-37.40917 10e-6,89.381849 -130.1052,-75.116268 v -89.381841 z"
           id="path500" />
        <path
           style="opacity:1;fill:#eba0ac;stroke:none;stroke-width:0.172348;stroke-linecap:square;stroke-linejoin:round;stroke-dasharray:none"
           d="m 433.27104,44.015458 10e-6,-89.381846 -130.10519,-75.116282 -1e-5,89.381848 z"
           id="path501" />
        <path
           style="opacity:1;fill:#ea8b9b;fill-opacity:1;stroke:none;stroke-width:0.172348;stroke-linecap:square;stroke-linejoin:round;stroke-dasharray:none"
           d="m 433.27105,-45.366388 -10e-6,89.381846 130.1052,-75.116265 v -89.381843 z"
           id="path502" />
        <path
           style="opacity:1;fill:#ecacb7;fill-opacity:1;stroke:none;stroke-width:0.172348;stroke-linecap:square;stroke-linejoin:round;stroke-dasharray:none"
           d="m 433.27105,-45.366388 130.10519,-75.116262 -130.10519,-75.11628 -130.10519,75.11626 z"
           id="path503" />
        <path
           id="path504"
           style="opacity:1;fill:#ea8b9b;fill-opacity:1;stroke-width:0.144713;stroke-linecap:square;stroke-linejoin:round"
           d="m 433.14615,-150.52451 c -7.04359,0.014 -14.07896,0.84725 -20.65416,2.48239 l -31.55954,0.0626 v 27.60059 c 0.0319,7.68837 5.17378,15.36667 15.41791,21.212433 10.24412,5.845763 23.65095,8.752198 37.04556,8.725622 13.39461,-0.02656 26.77699,-2.986095 36.97235,-8.872388 10.19536,-5.886297 15.2733,-13.584827 15.24135,-21.273197 v -27.60059 l -31.78911,0.063 c -6.58863,-1.609 -13.63083,-2.41437 -20.67436,-2.40042 z" />
        <path
           id="path505"
           style="opacity:1;fill:#ecacb7;fill-opacity:1;stroke:none;stroke-width:0.144713;stroke-linecap:square;stroke-linejoin:round"
           d="m 470.19176,-169.39948 c 10.24413,5.84577 15.38596,13.52402 15.41791,21.2124 0.0319,7.68838 -5.04597,15.38689 -15.24134,21.27318 -10.19537,5.8863 -23.5778,8.84588 -36.97242,8.87244 -13.39462,0.0266 -26.80143,-2.87989 -37.04557,-8.72566 -10.24413,-5.84577 -15.38596,-13.52401 -15.41791,-21.21239 -0.0319,-7.68838 5.04597,-15.3869 15.24134,-21.27319 10.19537,-5.8863 23.57781,-8.84588 36.97243,-8.87244 13.39462,-0.0266 26.80143,2.87989 37.04556,8.72566 z"
           sodipodi:nodetypes="sssssssss" />
      </g>
    </g>
  </g>
</svg>
