<?xml version="1.0" encoding="UTF-8" standalone="no"?>
<!-- Created with Inkscape (http://www.inkscape.org/) -->

<svg
   width="793.70081"
   height="1122.5197"
   viewBox="0 0 210 296.99998"
   version="1.1"
   id="svg1"
   inkscape:version="1.3.2 (091e20ef0f, 2023-11-25, custom)"
   sodipodi:docname="ołówek.svg"
   xmlns:inkscape="http://www.inkscape.org/namespaces/inkscape"
   xmlns:sodipodi="http://sodipodi.sourceforge.net/DTD/sodipodi-0.dtd"
   xmlns:xlink="http://www.w3.org/1999/xlink"
   xmlns="http://www.w3.org/2000/svg"
   xmlns:svg="http://www.w3.org/2000/svg">
  <sodipodi:namedview
     id="namedview1"
     pagecolor="#45475a"
     bordercolor="#89dceb"
     borderopacity="1"
     inkscape:showpageshadow="0"
     inkscape:pageopacity="0"
     inkscape:pagecheckerboard="0"
     inkscape:deskcolor="#313244"
     inkscape:document-units="px"
     showborder="false"
     borderlayer="true"
     showguides="true"
     inkscape:zoom="0.21024131"
     inkscape:cx="-7427.1797"
     inkscape:cy="-1103.4939"
     inkscape:window-width="932"
     inkscape:window-height="1015"
     inkscape:window-x="0"
     inkscape:window-y="0"
     inkscape:window-maximized="1"
     inkscape:current-layer="layer1"
     showgrid="false" />
  <defs
     id="defs1">
    <linearGradient
       id="linearGradient2"
       inkscape:collect="always">
      <stop
         style="stop-color:#fab387;stop-opacity:1"
         offset="0"
         id="stop2" />
      <stop
         style="stop-color:#a6e3a1;stop-opacity:1"
         offset="0.33000001"
         id="stop4" />
      <stop
         style="stop-color:#f38ba8;stop-opacity:1;"
         offset="0.66000003"
         id="stop5" />
      <stop
         style="stop-color:#74c7ec;stop-opacity:1;"
         offset="1"
         id="stop3" />
    </linearGradient>
    <linearGradient
       inkscape:collect="always"
       xlink:href="#linearGradient2"
       id="linearGradient3"
       x1="-2095.7628"
       y1="-264.92426"
       x2="-1842.5178"
       y2="-264.92426"
       gradientUnits="userSpaceOnUse"
       gradientTransform="translate(0,-19.161877)" />
  </defs>
  <g
     inkscape:label="Warstwa 1"
     inkscape:groupmode="layer"
     id="layer1">
    <g
       id="g5">
      <g
         id="g1"
         transform="matrix(0.59975519,0,0,0.59975519,-742.62005,-133.66434)">
        <path
           style="fill:#f2cdcd;fill-opacity:1;stroke:none;stroke-width:0;stroke-linecap:round;stroke-linejoin:round;stroke-dasharray:none"
           d="m -1836.4409,-244.28835 0.067,-32.37244 30.3379,17.51558 z"
           id="path29" />
        <path
           id="path1"
           style="fill:#f2cdcd;fill-opacity:1;stroke:none;stroke-width:0.328358;stroke-linecap:round;stroke-linejoin:round"
           d="m -1796.2736,-331.02692 a 19.071455,10.532211 28.712952 0 0 -8.9099,3.43841 19.071455,10.532211 28.712952 0 0 0.8191,9.05545 l 15.6878,0.47481 z" />
        <path
           id="circle3"
           style="fill:#f2cdcd;fill-opacity:1;stroke:none;stroke-width:0.328358;stroke-linecap:round;stroke-linejoin:round"
           d="m -1791.6249,-313.50545 -15.6878,-0.4748 a 19.071455,10.532211 28.712952 0 0 9.9522,9.33187 19.071455,10.532211 28.712952 0 0 13.3326,4.11159 z" />
        <path
           id="circle5"
           style="fill:#f2cdcd;fill-opacity:1;stroke:none;stroke-width:0.328358;stroke-linecap:round;stroke-linejoin:round"
           d="m -1774.2793,-315.52768 -15.7278,-0.476 7.597,12.96866 a 19.071455,10.532211 28.712952 0 0 8.9099,-3.43842 19.071455,10.532211 28.712952 0 0 -0.7791,-9.05424 z" />
        <path
           id="circle7"
           style="fill:#f2cdcd;fill-opacity:1;stroke:none;stroke-width:0;stroke-linecap:round;stroke-linejoin:round;stroke-dasharray:none"
           d="m -1781.2357,-329.54868 a 19.071455,10.532211 28.712952 0 0 -13.3326,-4.11163 l 7.597,12.96867 15.7278,0.476 a 19.071455,10.532211 28.712952 0 0 -9.9922,-9.33304 z" />
        <path
           id="circle1"
           style="fill:#f38ba8;stroke:none;stroke-width:0.123877;stroke-linecap:round;stroke-linejoin:round"
           d="m -1791.5427,-322.95086 a 7.1948961,3.9733812 28.712952 0 0 -3.3613,1.29721 7.1948961,3.9733812 28.712952 0 0 0.309,3.41627 l 5.9184,0.17913 z" />
        <path
           id="circle4"
           style="fill:#74c7ec;stroke:none;stroke-width:0.123877;stroke-linecap:round;stroke-linejoin:round"
           d="m -1791.6249,-313.50545 -5.9183,-0.17912 a 7.1948961,3.9733812 28.712952 0 0 3.7545,3.52052 7.1948961,3.9733812 28.712952 0 0 5.0298,1.55113 z" />
        <path
           id="circle8"
           style="fill:#a6e3a1;stroke:none;stroke-width:0.123877;stroke-linecap:round;stroke-linejoin:round"
           d="m -1784.0737,-315.82411 -5.9334,-0.17957 2.866,4.89253 a 7.1948961,3.9733812 28.712952 0 0 3.3613,-1.29718 7.1948961,3.9733812 28.712952 0 0 -0.2939,-3.41578 z" />
        <path
           id="path15"
           style="fill:#fab387;stroke:none;stroke-width:0.123877;stroke-linecap:round;stroke-linejoin:round"
           d="m -1786.9713,-320.69164 -2.866,-4.89254 a 7.1948961,3.9733812 28.712952 0 1 5.0298,1.55114 7.1948961,3.9733812 28.712952 0 1 3.7545,3.52052 z" />
        <path
           style="fill:#f5d6d6;fill-opacity:1;stroke:none;stroke-width:0.571815;stroke-linecap:round;stroke-linejoin:round"
           d="m -1788.6766,-318.05825 1.7053,-2.63339 -7.597,-12.96867 -1.7053,2.63339 z"
           id="path16" />
        <path
           style="fill:#fab387;fill-opacity:1;stroke:none;stroke-width:0.571815;stroke-linecap:round;stroke-linejoin:round"
           d="m -1788.6766,-318.05825 1.7053,-2.63339 -2.866,-4.89254 -1.7053,2.63335 z"
           id="path17" />
        <path
           style="fill:#f6c9c9;fill-opacity:1;stroke:none;stroke-width:0.571815;stroke-linecap:round;stroke-linejoin:round"
           d="m -1771.2435,-320.21563 -3.0358,4.68795 -15.7278,-0.476 3.0358,-4.68796 z"
           id="path18" />
        <path
           style="fill:#fab387;fill-opacity:1;stroke:none;stroke-width:0.571815;stroke-linecap:round;stroke-linejoin:round"
           d="m -1786.9713,-320.69164 -3.0358,4.68796 5.9334,0.17957 3.0207,-4.68842 z"
           id="path19" />
        <path
           style="fill:#f6c9c9;fill-opacity:1;stroke:none;stroke-width:0;stroke-linecap:round;stroke-linejoin:round;stroke-dasharray:none"
           d="m -1788.6766,-318.05825 -2.9483,4.5528 -15.6878,-0.4748 2.9483,-4.55281 z"
           id="path20" />
        <path
           style="fill:#f38ba8;fill-opacity:1;stroke:none;stroke-width:0;stroke-linecap:round;stroke-linejoin:round;stroke-dasharray:none"
           d="m -1788.6766,-318.05825 -2.9483,4.5528 -5.9183,-0.17913 2.9482,-4.5528 z"
           id="path21" />
        <path
           style="fill:#f5d6d6;fill-opacity:1;stroke:none;stroke-width:0;stroke-linecap:round;stroke-linejoin:round;stroke-dasharray:none"
           d="m -1782.4101,-303.03502 -1.6178,2.49823 -7.597,-12.96866 1.6178,-2.49823 z"
           id="path22" />
        <path
           style="fill:#a6e3a1;fill-opacity:1;stroke:none;stroke-width:0;stroke-linecap:round;stroke-linejoin:round;stroke-dasharray:none"
           d="m -1787.1411,-311.11115 -1.6178,2.49823 -2.866,-4.89253 1.6178,-2.49823 z"
           id="path23" />
        <path
           id="path26"
           style="fill:#f38ba8;fill-opacity:1;stroke:none;stroke-width:0;stroke-linecap:round;stroke-linejoin:round;stroke-dasharray:none"
           d="m -1805.1835,-327.58857 -30.3074,46.81206 a 19.071455,10.53221 28.712952 0 0 0.8442,9.006 l 30.2824,-46.76254 a 19.071455,10.532211 28.712952 0 1 -0.8192,-9.05534 z" />
        <path
           id="path27"
           style="fill:#74c7ec;fill-opacity:1;stroke:none;stroke-width:0;stroke-linecap:round;stroke-linejoin:round;stroke-dasharray:none"
           d="m -1807.3127,-313.98027 -27.3634,42.25518 a 19.071455,10.53221 28.712952 0 0 9.9713,9.30223 19.071455,10.53221 28.712952 0 0 13.3273,4.14247 l 27.3496,-42.25643 a 19.071455,10.532211 28.712952 0 1 -13.3327,-4.11158 19.071455,10.532211 28.712952 0 1 -9.9521,-9.33188 z" />
        <path
           id="path28"
           style="fill:#a6e3a1;fill-opacity:1;stroke:none;stroke-width:0;stroke-linecap:round;stroke-linejoin:round;stroke-dasharray:none"
           d="m -1773.5002,-306.47344 a 19.071455,10.532211 28.712952 0 1 -8.9099,3.43843 l -28.9354,44.70844 a 19.071455,10.53221 28.712952 0 0 8.8832,-3.4231 l 0.019,-0.003 z" />
        <path
           id="path30"
           style="fill:#74c7ec;fill-opacity:1;stroke:none;stroke-width:0;stroke-linecap:round;stroke-linejoin:round;stroke-dasharray:none"
           d="m -1830.0415,-247.41538 a 35.154554,19.414102 28.712952 0 1 -3.2812,-1.70908 35.154554,19.414102 28.712952 0 1 -3.1041,-1.97729 l -0.014,6.81338 z" />
      </g>
      <path
         d="m -2079.4998,-281.0998 c -2.7119,1.22516 -4.1305,1.54846 -8.0941,1.54846 -4.5059,0 -5.7159,-0.88483 -3.9636,-4.04984 1.2934,-2.38226 5.6326,-4.18598 9.5544,-4.18598 2.9623,0 4.0888,0.28928 5.2987,1.48041 l 3.2961,-0.7317 c -1.669,-1.5825 -3.5464,-2.12701 -8.2193,-2.12701 -5.8411,0 -11.6822,2.3142 -13.2676,5.42815 -2.1695,4.16896 -0.4172,5.56428 6.9258,5.56428 5.257,0 7.7604,-0.47645 11.0981,-2.11 z m 28.3976,0.90186 c -0.5424,0.39136 -1.3769,0.6466 -2.0444,0.6466 -1.2099,0 -1.1265,-0.23823 -0.8762,-0.79976 3.2961,-6.17686 3.5881,-6.82347 3.5464,-7.09573 0,-1.22516 -2.2114,-1.71863 -6.5921,-1.71863 -6.7589,0 -14.3523,4.06686 -14.3106,7.81041 -0.083,1.90581 2.9206,3.18202 7.5099,3.18202 2.1279,0 4.4226,-0.49347 6.0914,-1.32725 -0.083,0.0511 -0.042,0.15314 0.042,0.20419 0.042,0.62959 1.4601,1.12306 3.5046,1.12306 1.8357,0 3.9218,-0.3233 4.6729,-0.81677 z m -5.0067,-2.62049 c -1.5437,1.83774 -4.6311,3.26709 -7.4265,3.26709 -2.5867,0 -4.3807,-0.76572 -4.4225,-1.92283 0.042,-2.82467 6.1748,-6.31299 10.5557,-6.31299 2.5449,0 3.3794,0.11912 3.4212,0.54452 0,0.35734 -0.9596,2.07598 -2.1279,4.42421 z m 21.8054,4.6454 c 4.5478,0 6.6757,-0.45943 8.5948,-1.93984 l -3.1291,-0.57855 c -1.1682,0.86782 -2.0027,1.14008 -5.0901,1.14008 -3.0874,0 -3.7967,-0.6466 -2.7954,-2.58646 l 2.8788,-5.41113 h 8.6782 l 0.7092,-1.37831 h -8.6781 l 1.5855,-3.09693 h -3.6298 l -1.5438,3.09693 h -5.1735 l -0.751,1.37831 h 5.1736 l -2.7536,5.34308 c -1.4604,2.85871 0.083,4.03282 5.9243,4.03282 z m 29.0652,-10.99243 c -2.2946,0 -4.8815,0.37435 -6.5504,1.07201 0.042,-0.76572 -1.1264,-1.07201 -3.3794,-1.07201 -1.8357,0 -3.9219,0.3233 -4.6729,0.81678 l 1.5438,1.20814 c 0.5423,-0.39137 1.3768,-0.64662 2.0443,-0.64662 0.5424,0 0.9179,0.11912 1.0013,0.32331 -0.042,0.10209 -0.083,0.2042 -0.083,0.28928 l -1.5854,3.0629 c -0.1252,0.17017 -0.1668,0.28928 -0.2086,0.37436 -0.1252,0.18717 -0.2086,0.34032 -0.2503,0.45943 l -4.1722,7.96356 h 3.6298 l 1.9191,-3.40322 c 0.8762,0.35733 2.8372,0.54451 5.4239,0.54451 5.7159,0 10.3053,-2.26314 11.849,-5.42815 2.0445,-4.15194 0.7928,-5.56428 -6.5086,-5.56428 z m 3.1709,5.42815 c -1.3769,2.46734 -4.5477,4.18597 -8.1358,4.18597 -4.6311,0 -5.2986,-0.3233 -3.9218,-3.14799 l 0.7093,-1.41234 c 1.335,-2.68855 3.7967,-3.67549 7.8019,-3.67549 4.4643,0 5.2988,0.85081 3.5464,4.04985 z m 22.1809,-5.42815 c -2.2946,0 -4.8814,0.37435 -6.5503,1.07201 0.042,-0.76572 -1.1265,-1.07201 -3.3795,-1.07201 -1.8358,0 -3.9219,0.3233 -4.6728,0.81678 l 1.5437,1.20814 c 0.5424,-0.39137 1.3767,-0.64662 2.0444,-0.64662 0.5424,0 0.9179,0.11912 1.0013,0.32331 -0.042,0.10209 -0.083,0.2042 -0.083,0.28928 l -1.5856,3.0629 c -0.125,0.17017 -0.1668,0.28928 -0.2084,0.37436 -0.1253,0.18717 -0.2087,0.34032 -0.2504,0.45943 l -4.1722,7.96356 h 3.6297 l 1.9194,-3.40322 c 0.876,0.35733 2.837,0.54451 5.4238,0.54451 5.7159,0 10.3053,-2.26314 11.849,-5.42815 2.0444,-4.15194 0.7927,-5.56428 -6.5087,-5.56428 z m 3.1709,5.42815 c -1.3769,2.46734 -4.5476,4.18597 -8.1357,4.18597 -4.6313,0 -5.2988,-0.3233 -3.9219,-3.14799 l 0.7092,-1.41234 c 1.3352,-2.68855 3.7968,-3.67549 7.802,-3.67549 4.4643,0 5.2987,0.85081 3.5464,4.04985 z m 8.6213,-3.40323 c 0.5425,-0.39137 1.3768,-0.64662 2.0444,-0.64662 0.5842,0 1.0014,0.11912 1.0014,0.32331 0.1669,0.90186 -1.1682,2.87574 -3.0458,5.15589 -2.1695,2.68856 -0.2085,4.13493 5.6742,4.13493 2.5034,0 4.9233,-0.76572 7.3431,-2.09299 l -0.292,0.34033 c -0.8345,0.96992 1.0429,1.75266 3.4628,1.75266 1.8359,0 3.922,-0.3233 4.6729,-0.81677 l -1.502,-1.10605 c -1.1265,0.4254 -1.6271,0.54451 -2.0861,0.54451 -0.5424,0 -0.8761,-0.11911 -1.0012,-0.3233 -0.042,-0.1021 0.083,-0.22121 0.083,-0.28928 l 4.6311,-8.76332 h -3.6299 l -2.545,5.00276 c -1.0012,1.97387 -5.6324,4.37314 -8.7615,4.37314 -3.0876,0 -4.1305,-0.81677 -2.6285,-2.60347 2.2947,-2.67153 3.2543,-4.83258 3.2126,-5.78549 -0.083,-0.74871 -1.3769,-1.22516 -3.5047,-1.22516 -1.8357,0 -3.9218,0.3233 -4.6729,0.81678 z m 40.7056,6.04074 c -2.7119,1.22516 -4.1305,1.54846 -8.0941,1.54846 -4.506,0 -5.7158,-0.88483 -3.9635,-4.04984 1.2933,-2.38226 5.6324,-4.18598 9.5543,-4.18598 2.9623,0 4.0887,0.28928 5.2986,1.48041 l 3.2961,-0.7317 c -1.6689,-1.5825 -3.5463,-2.12701 -8.2192,-2.12701 -5.8412,0 -11.6821,2.3142 -13.2675,5.42815 -2.1697,4.16896 -0.4173,5.56428 6.9258,5.56428 5.2569,0 7.7603,-0.47645 11.098,-2.11 z m 25.3518,0 c -2.7119,1.22516 -4.1304,1.54846 -8.0941,1.54846 -4.5059,0 -5.7159,-0.88483 -3.9635,-4.04984 1.2933,-2.38226 5.6325,-4.18598 9.5543,-4.18598 2.9623,0 4.0888,0.28928 5.2987,1.48041 l 3.2961,-0.7317 c -1.6689,-1.5825 -3.5464,-2.12701 -8.2193,-2.12701 -5.841,0 -11.6822,2.3142 -13.2676,5.42815 -2.1695,4.16896 -0.4171,5.56428 6.9259,5.56428 5.257,0 7.7602,-0.47645 11.0981,-2.11 z m 21.2215,-9.42696 c 2.0443,0 2.9205,-0.27225 3.3377,-1.07201 0.4589,-0.86783 -0.3755,-1.2592 -2.7536,-1.2592 -2.0027,0 -2.9206,0.27226 -3.2961,1.02097 -0.459,0.91887 0.3755,1.31024 2.712,1.31024 z m 0.5005,12.35373 c 3.2543,0 5.257,-0.49347 7.9273,-2.00791 l -2.7536,-0.79975 c -2.0028,1.14008 -2.9206,1.42935 -4.8816,1.42935 -3.8383,0 -4.7562,-0.71468 -3.3795,-3.31815 l 2.0028,-3.76056 c 0.7926,-1.54848 -1.9611,-2.36525 -7.4683,-2.29719 l -0.9596,1.39533 c 4.2556,-0.0681 5.2986,0.23823 4.798,1.12306 l -1.8775,3.53936 c -1.8775,3.53937 -0.2086,4.69646 6.592,4.69646 z m 36.253,-3.89359 c -0.5841,0.39137 -4.6428,2.51528 -5.3521,2.51528 -0.5841,0 -0.9596,-0.11911 -1.0013,-0.3233 -0.1669,-0.90186 1.2099,-2.87573 3.0457,-5.15589 2.1696,-2.68856 0.2503,-4.13493 -5.2152,-4.13493 -2.5034,0 -5.3821,0.76572 -7.7603,2.09299 l 0.2921,-0.34032 c 0.8345,-0.96993 -1.0849,-1.75267 -3.463,-1.75267 -1.8357,0 -3.9636,0.3233 -4.7145,0.81678 l 1.502,1.10604 c 1.1264,-0.4254 1.6271,-0.54452 2.1278,-0.54452 0.5423,0 0.8762,0.11912 0.9596,0.32331 0.083,0.10209 -0.083,0.22121 -0.083,0.28928 l -4.6312,8.76332 h 3.6715 l 2.5451,-5.00275 c 1.0012,-1.97388 6.0079,-4.37316 9.1788,-4.37316 2.6284,0 3.6715,0.81678 2.1695,2.60348 -2.2529,2.67154 -3.2543,4.83258 -3.1709,5.78549 0.042,0.74871 1.3352,1.22516 3.5047,1.22516 1.7941,0 6.9225,-2.00466 7.9388,-2.68544 z"
         id="text1"
         style="font-style:italic;font-weight:600;font-size:38.4053px;line-height:34.9996px;font-family:'Victor Mono';-inkscape-font-specification:'Victor Mono Semi-Bold Italic';letter-spacing:0.266703px;opacity:1;fill:url(#linearGradient3);stroke-width:0;stroke-linecap:round;stroke-linejoin:round"
         aria-label="catppuccin"
         sodipodi:nodetypes="cscsccscscccsccscsccscccscsccsccsccccccccccccsccsccsccccccccsccccsccscccsccsccccccccsccccsccsccsccsccsccscccccsccscccscsccscscccscsccscsccscscssccscccccsscsccsccsccscccccsccscc" />
    </g>
  </g>
</svg>
