<?xml version="1.0" encoding="UTF-8" standalone="no"?>
<!-- Created with Inkscape (http://www.inkscape.org/) -->

<svg
   width="793.70081"
   height="1122.5197"
   viewBox="0 0 210 296.99998"
   version="1.1"
   id="svg1"
   inkscape:version="1.3.2 (091e20ef0f, 2023-11-25, custom)"
   xml:space="preserve"
   sodipodi:docname="powerlevel.svg"
   xmlns:inkscape="http://www.inkscape.org/namespaces/inkscape"
   xmlns:sodipodi="http://sodipodi.sourceforge.net/DTD/sodipodi-0.dtd"
   xmlns="http://www.w3.org/2000/svg"
   xmlns:svg="http://www.w3.org/2000/svg"><sodipodi:namedview
     id="namedview1"
     pagecolor="#6e738d"
     bordercolor="#89dceb"
     borderopacity="1"
     inkscape:showpageshadow="0"
     inkscape:pageopacity="0"
     inkscape:pagecheckerboard="false"
     inkscape:deskcolor="#6e738d"
     inkscape:document-units="px"
     showguides="true"
     inkscape:lockguides="false"
     showborder="false"
     borderlayer="true"
     inkscape:zoom="1.1893044"
     inkscape:cx="4.624552"
     inkscape:cy="-1140.1623"
     inkscape:window-width="932"
     inkscape:window-height="1015"
     inkscape:window-x="0"
     inkscape:window-y="0"
     inkscape:window-maximized="1"
     inkscape:current-layer="layer1" /><defs
     id="defs1" /><g
     inkscape:label="Warstwa 1"
     inkscape:groupmode="layer"
     id="layer1"><g
       id="g11"
       transform="translate(334.81752,-191.21986)"><path
         id="path6"
         style="fill:#f38ba8;stroke-width:0.748673;stroke-linecap:round;stroke-linejoin:round"
         d="m -466.88932,-180.72049 10.58334,9.92239 -10.58334,9.92136 h 31.23531 l 10.58333,-9.92136 -10.58333,-9.92239 z" /><path
         id="path2"
         style="fill:#89b4fa;stroke-width:0.748673;stroke-linecap:round;stroke-linejoin:round"
         d="m -433.24916,-180.72049 h 79.375 l 10.58333,9.92188 -10.58333,9.92187 h -79.375 l 10.58333,-9.92187 z"
         sodipodi:nodetypes="ccccccc" /><text
         xml:space="preserve"
         style="font-style:italic;font-variant:normal;font-weight:bold;font-stretch:normal;font-size:7.77997px;line-height:2.75724px;font-family:'Victor Mono';-inkscape-font-specification:'Victor Mono Bold Italic';letter-spacing:0.0540277px;fill:#1e1e2e;stroke:#1e1e2e;stroke-width:0.343958;stroke-linecap:round;stroke-linejoin:round;stroke-dasharray:none;stroke-opacity:1"
         x="-418.09476"
         y="-168.08977"
         id="text9"><tspan
           sodipodi:role="line"
           id="tspan9"
           style="stroke:#1e1e2e;stroke-width:0.343958;stroke-dasharray:none;stroke-opacity:1"
           x="-418.09476"
           y="-168.08977">home/catppuccin</tspan></text><g
         id="g10"
         transform="translate(-12.81946)"><path
           id="path7"
           style="fill:#a6e3a1;stroke-width:0.748673;stroke-linecap:round;stroke-linejoin:round"
           d="m -338.25393,-180.72049 10.58334,9.92239 -10.58334,9.92136 h 31.23531 l 10.58333,-9.92136 -10.58333,-9.92239 z" /><path
           id="path7648"
           style="font-weight:bold;font-size:21.8722px;line-height:0;font-family:Poppins;-inkscape-font-specification:'Poppins Bold';display:inline;fill:#1e1e2e;fill-opacity:1;stroke:none;stroke-width:0.295075;stroke-dasharray:none;stroke-opacity:1"
           d="m -317.31801,-164.64669 c -1.29005,0 -2.50655,-0.33498 -3.56139,-0.91714 0.0914,-0.7324 0.23613,-1.60465 0.49242,-2.21144 -0.1809,-0.0918 -0.3475,-0.19102 -0.50065,-0.29677 -0.086,-0.0594 -0.16784,-0.12086 -0.24554,-0.1842 -0.75269,-0.61344 -1.12176,-1.40252 -1.24732,-2.20559 -0.21309,-1.36284 0.27508,-2.76595 0.77969,-3.4193 -0.0637,-0.22154 -0.11529,-0.44313 -0.15604,-0.65875 -0.15797,-0.83585 -0.15338,-1.58193 -0.0644,-1.88726 0.0393,-0.13486 0.17574,-0.27738 0.37199,-0.26466 0.60145,0.039 1.06066,0.20232 1.41892,0.41841 0.32068,0.19343 0.56049,0.42912 0.74903,0.65573 0.74603,-0.30042 1.61377,-0.36387 2.34603,-0.30529 0.37571,0.03 0.71575,0.0922 0.9854,0.171 0.38001,-0.48924 0.78903,-0.95788 1.75103,-1.18565 0.23909,-0.0566 0.37388,0.0795 0.4645,0.27658 0.11525,0.25066 0.18531,0.50872 0.22285,0.76275 0.0781,0.52851 0.0154,1.03952 -0.074,1.42991 0.39428,0.38113 0.69249,0.78469 0.90541,1.19797 0.60423,1.17277 0.52166,2.42374 -0.001,3.46217 -0.36744,0.7297 -0.95231,1.35446 -1.6691,1.77339 0.20526,0.88259 0.25226,1.75859 0.28115,2.63383 -0.98038,0.48217 -2.08243,0.75431 -3.24875,0.75431 z"
           sodipodi:nodetypes="sccsccccssccccssccccccs"
           inkscape:label="cat" /><path
           id="path7415"
           style="font-weight:bold;font-size:21.8722px;line-height:0;font-family:Poppins;-inkscape-font-specification:'Poppins Bold';display:inline;fill:#a6e3a1;stroke:none;stroke-width:0.295075;stroke-dasharray:none;stroke-opacity:1"
           d="m -316.95998,-167.83257 c 0.43691,0.13063 0.6502,0.24126 0.93983,0.45346 0.0972,-0.117 0.23528,-0.29437 0.62053,-0.4105 0.0386,-0.0117 0.0888,0.0286 0.10073,0.0671 0.0854,0.27636 0.11952,0.65743 0.042,0.93177 -0.0127,0.0451 -0.0642,0.0902 -0.1256,0.0727 -0.23282,-0.0661 -0.48475,-0.1961 -0.60355,-0.29215 -0.0494,0.11391 -0.35379,0.52177 -0.76536,0.57427 -0.046,0.006 -0.10272,-3.7e-4 -0.12788,-0.0393 -0.20282,-0.31415 -0.29228,-0.89831 -0.18798,-1.31165 0.0131,-0.0521 0.0705,-0.0568 0.10731,-0.0457 v 0"
           inkscape:label="necktie" /><g
           id="g7656"
           style="font-weight:bold;font-size:21.8722px;line-height:0;font-family:Poppins;-inkscape-font-specification:'Poppins Bold';display:inline;fill:#a6e3a1;stroke:none;stroke-width:10.8991;stroke-dasharray:none"
           transform="matrix(0.02707331,0,0,0.02707331,-342.80872,-177.17054)"
           inkscape:label="Face"><path
             id="path7413"
             style="fill:#a6e3a1;stroke:none;stroke-width:10.8991;stroke-dasharray:none;stroke-opacity:1"
             d="m 872.75529,164.51908 c 11.05763,-51.26304 70.58695,-46.59259 83.33104,-3.86902 1.37108,4.59643 -2.85243,8.27046 -6.35808,5.48112 -29.1541,-29.01146 -59.65956,-12.44148 -70.09511,2.74271 -2.45998,3.57938 -7.93197,0.53207 -6.87785,-4.35481 v 0"
             inkscape:label="eye-left" /><path
             id="path7411"
             style="fill:#a6e3a1;stroke:none;stroke-width:10.8991;stroke-dasharray:none;stroke-opacity:1"
             d="m 996.95664,154.98992 c -0.9234,4.51729 4.10196,5.89216 5.99006,3.52564 18.7394,-23.48818 49.4418,-16.31384 61.1327,-2.63093 2.3458,2.74553 7.5416,0.38392 5.7734,-4.45797 -14.167,-38.79431 -65.2018,-34.0778 -72.89616,3.56326 v 0"
             inkscape:label="eye-right" /><path
             id="path7409"
             style="fill:#a6e3a1;stroke:none;stroke-width:10.8991;stroke-dasharray:none;stroke-opacity:1"
             d="m 971.94023,191.52338 c 12.34474,-1.01889 25.53351,-1.60859 34.05477,-2.11873 5.5266,-0.33086 6.4166,6.88082 4.7026,9.40512 -3.4936,5.14527 -6.4962,10.42773 -12.14399,14.98616 -3.4329,2.77074 -7.97936,2.10713 -11.47218,0.31005 -5.73045,-2.94836 -10.20558,-6.62046 -17.20824,-12.45401 -2.88013,-2.39929 -1.92384,-9.7992 2.06704,-10.12859 v 0"
             inkscape:label="nose" /><path
             id="path7407"
             style="fill:#a6e3a1;stroke:none;stroke-width:10.8991;stroke-dasharray:none;stroke-opacity:1"
             d="m 957.83258,235.11246 c 10.13772,7.80489 26.60326,7.11744 36.09597,-6.04615 1.32537,-1.83789 3.85801,-2.60643 5.65857,-1.11104 10.06788,8.36151 22.24648,4.08453 28.00858,-5.58106 1.6309,-2.73574 3.5532,-2.00855 3.3073,0.51677 -1.3292,13.64897 -15.1035,24.84729 -26.9751,20.17965 -2.4151,-0.94955 -6.09192,-0.79551 -7.95811,1.00768 -10.93108,10.56205 -31.72966,11.65561 -42.63308,-5.6844 -2.93996,-4.6755 1.7905,-5.36428 4.49587,-3.28145 v 0"
             inkscape:label="mouse" /></g></g><text
         xml:space="preserve"
         style="font-style:italic;font-variant:normal;font-weight:bold;font-stretch:normal;font-size:25.6536px;line-height:9.09166px;font-family:'Victor Mono';-inkscape-font-specification:'Victor Mono Bold Italic';letter-spacing:0.17815px;fill:#1e1e2e;stroke:none;stroke-width:2.67225;stroke-linecap:round;stroke-linejoin:round"
         x="-451.23874"
         y="-161.47003"
         id="text10"><tspan
           sodipodi:role="line"
           id="tspan10"
           style="fill:#1e1e2e;stroke-width:2.67225"
           x="-451.23874"
           y="-161.47003">~</tspan></text></g><text
       xml:space="preserve"
       style="font-style:oblique;font-variant:normal;font-weight:bold;font-stretch:normal;font-size:38.1px;line-height:13.5027px;font-family:'Victor Mono';-inkscape-font-specification:'Victor Mono Bold Oblique';letter-spacing:0.264583px;fill:#1e1e2e;stroke:none;stroke-width:3.96875;stroke-linecap:round;stroke-linejoin:round"
       x="-449.27173"
       y="-239.5145"
       id="text11"><tspan
         sodipodi:role="line"
         id="tspan11"
         style="stroke-width:3.96875"
         x="-449.27173"
         y="-239.5145" /></text></g></svg>
