<?xml version="1.0" encoding="UTF-8" standalone="no"?>
<!-- Created with Inkscape (http://www.inkscape.org/) -->

<svg
   width="383.69388"
   height="645.94446"
   viewBox="0 0 101.519 170.90613"
   version="1.1"
   id="svg1"
   inkscape:version="1.3.2 (091e20ef0f, 2023-11-25, custom)"
   xml:space="preserve"
   sodipodi:docname="rocket.svg"
   xmlns:inkscape="http://www.inkscape.org/namespaces/inkscape"
   xmlns:sodipodi="http://sodipodi.sourceforge.net/DTD/sodipodi-0.dtd"
   xmlns:xlink="http://www.w3.org/1999/xlink"
   xmlns="http://www.w3.org/2000/svg"
   xmlns:svg="http://www.w3.org/2000/svg"><sodipodi:namedview
     id="namedview1"
     pagecolor="#6e738d"
     bordercolor="#89dceb"
     borderopacity="1"
     inkscape:showpageshadow="0"
     inkscape:pageopacity="0"
     inkscape:pagecheckerboard="false"
     inkscape:deskcolor="#6e738d"
     inkscape:document-units="px"
     showguides="true"
     inkscape:lockguides="false"
     showborder="false"
     borderlayer="true"
     inkscape:zoom="0.84096523"
     inkscape:cx="222.95809"
     inkscape:cy="275.87347"
     inkscape:window-width="1892"
     inkscape:window-height="1015"
     inkscape:window-x="0"
     inkscape:window-y="0"
     inkscape:window-maximized="1"
     inkscape:current-layer="layer1" /><defs
     id="defs1"><linearGradient
       id="linearGradient30"
       inkscape:collect="always"><stop
         style="stop-color:#f38ba8;stop-opacity:1"
         offset="0"
         id="stop30" /><stop
         style="stop-color:#f9e2af;stop-opacity:1"
         offset="0.34195119"
         id="stop32" /><stop
         style="stop-color:#a6e3a1;stop-opacity:1"
         offset="0.58768958"
         id="stop33" /><stop
         style="stop-color:#b4befe;stop-opacity:1"
         offset="0.77906108"
         id="stop34" /><stop
         style="stop-color:#f5e0dc;stop-opacity:1"
         offset="1"
         id="stop31" /></linearGradient><linearGradient
       inkscape:collect="always"
       xlink:href="#linearGradient30"
       id="linearGradient31"
       x1="-397.72006"
       y1="-162.52847"
       x2="-182.79424"
       y2="-162.52847"
       gradientUnits="userSpaceOnUse"
       gradientTransform="matrix(0.47231596,0,0,0.47231596,-1077.4241,-776.3283)" /></defs><g
     inkscape:label="Warstwa 1"
     inkscape:groupmode="layer"
     id="layer1"
     transform="translate(1278.0974,1006.2917)"><g
       id="g58"
       transform="translate(-12.823806)"><path
         style="opacity:0.517255;fill:#11111b;stroke-width:0.343958;stroke-linecap:round;stroke-linejoin:round"
         d="m -1183.739,-835.48984 a 14.675899,14.675899 0 0 1 -0.039,0.10428 53.719016,53.719016 0 0 0 0.1216,-0.091 11.352847,11.352847 0 0 1 -0.083,-0.0133 z"
         id="path28" /><path
         id="rect22"
         style="fill:#89b4fa;stroke-width:0.299319;stroke-linecap:round;stroke-linejoin:round"
         d="m -1219.512,-954.86015 c -0.1363,1.98911 -0.2385,4.10504 -0.2463,6.5322 l -1.4783,0.34415 a 34.177861,71.717962 0 0 1 2.3265,25.67387 34.177861,71.717962 0 0 1 -15.5816,60.02244 c 0.5205,0.30621 1.0128,0.65984 1.4586,1.06759 0.9543,0.8728 1.6724,1.97542 2.1645,3.17104 2.8299,-1.82141 6.1664,-2.85155 9.5326,-2.89133 a 11.752325,74.257898 0 0 0 5.2735,-61.79907 11.752325,74.257898 0 0 0 -1.0546,-30.34988 c -0.5391,-0.57635 -1.056,-1.17326 -1.5719,-1.77101 z m 9.0931,0 c -0.5537,0.64157 -1.107,1.28396 -1.691,1.89769 a 11.752325,74.257898 0 0 0 -1.0451,30.2232 11.752325,74.257898 0 0 0 4.8046,59.54601 c 0.2033,-0.22263 0.4138,-0.43893 0.6331,-0.64631 2.3693,-2.24019 5.6094,-3.53417 8.87,-3.54228 0.2569,3e-5 0.5132,0.0154 0.7693,0.0315 a 34.177861,71.717962 0 0 1 -12.3815,-54.95958 34.177861,71.717962 0 0 1 2.3368,-25.73123 l -1.2319,-0.28679 c -0.01,-2.42717 -0.1099,-4.5431 -0.2462,-6.5322 z" /><path
         id="circle13"
         style="opacity:0.517255;fill:#f38ba8;stroke-width:0.0726913;stroke-linecap:round;stroke-linejoin:round"
         d="m -1254.2197,-868.76476 a 11.352847,11.352847 0 0 0 -11.0539,8.89477 11.352847,11.352847 0 0 1 9.6635,-5.42176 11.352847,11.352847 0 0 1 10.4609,6.94909 7.191309,7.191309 0 0 0 -0.9813,3.20142 7.191309,7.191309 0 0 1 1.2779,-2.42436 11.352847,11.352847 0 0 1 0.5953,3.62671 11.352847,11.352847 0 0 1 -0.2989,2.45809 11.352847,11.352847 0 0 0 1.6894,-5.9311 11.352847,11.352847 0 0 0 -0.1408,-1.76438 7.191309,7.191309 0 0 1 3.7572,-1.07688 7.191309,7.191309 0 0 1 6.9632,5.40191 16.322667,16.322667 0 0 0 -4.7526,8.33959 16.322667,16.322667 0 0 1 4.965,-6.99644 7.191309,7.191309 0 0 1 0.016,0.4463 7.191309,7.191309 0 0 1 -0.029,0.41248 7.191309,7.191309 0 0 0 0.2237,-1.03106 16.322667,16.322667 0 0 1 10.1136,-3.55537 16.322667,16.322667 0 0 1 16.3227,16.32263 16.322667,16.322667 0 0 1 -0.4204,3.49168 16.322667,16.322667 0 0 0 1.0341,-5.59836 16.322667,16.322667 0 0 0 -4.587,-11.3423 11.352847,11.352847 0 0 1 11.1811,-9.57333 11.352847,11.352847 0 0 1 7.0442,2.47181 7.832272,7.832272 0 0 0 0,0.0158 l 0.011,-0.0107 a 11.352847,11.352847 0 0 1 3.356,4.34514 11.352847,11.352847 0 0 0 -2.481,-4.74382 7.832272,7.832272 0 0 1 6.7361,-3.89577 7.832272,7.832272 0 0 1 7.7639,6.81541 7.832272,7.832272 0 0 0 0.047,-0.66061 7.832272,7.832272 0 0 0 -0.5045,-2.72707 7.832272,7.832272 0 0 1 4.7334,-1.6022 7.832272,7.832272 0 0 1 7.7493,6.6987 7.832272,7.832272 0 0 0 0.01,-0.13332 7.832272,7.832272 0 0 0 -7.8323,-7.83231 7.832272,7.832272 0 0 0 -5.0951,1.90274 7.832272,7.832272 0 0 0 -6.8927,-4.13876 7.832272,7.832272 0 0 0 -7.2733,4.95749 11.352847,11.352847 0 0 0 -7.9889,-3.30406 11.352847,11.352847 0 0 0 -11.3093,10.6899 16.322667,16.322667 0 0 0 -10.9853,-4.2554 16.322667,16.322667 0 0 0 -10.6639,4.0419 7.191309,7.191309 0 0 0 -7.1673,-6.61951 7.191309,7.191309 0 0 0 -4.314,1.4688 11.352847,11.352847 0 0 0 -10.9369,-8.31343 z" /><path
         id="path21"
         style="fill:url(#linearGradient31);stroke-width:0.0726913;stroke-linecap:round;stroke-linejoin:round"
         d="m -1254.2197,-868.76476 a 11.352847,11.352847 0 0 0 -11.0539,8.89477 11.352847,11.352847 0 0 1 9.6635,-5.42176 11.352847,11.352847 0 0 1 10.4609,6.94909 7.191309,7.191309 0 0 0 -0.9813,3.20142 7.191309,7.191309 0 0 1 1.2779,-2.42436 11.352847,11.352847 0 0 1 0.5953,3.62671 11.352847,11.352847 0 0 1 -0.2989,2.45809 11.352847,11.352847 0 0 0 1.6894,-5.9311 11.352847,11.352847 0 0 0 -0.1408,-1.76438 7.191309,7.191309 0 0 1 3.7572,-1.07688 7.191309,7.191309 0 0 1 6.9632,5.40191 16.322667,16.322667 0 0 0 -4.7526,8.33959 16.322667,16.322667 0 0 1 4.965,-6.99644 7.191309,7.191309 0 0 1 0.016,0.4463 7.191309,7.191309 0 0 1 -0.029,0.41248 7.191309,7.191309 0 0 0 0.2237,-1.03106 16.322667,16.322667 0 0 1 10.1136,-3.55537 16.322667,16.322667 0 0 1 16.3227,16.32263 16.322667,16.322667 0 0 1 -0.4204,3.49168 16.322667,16.322667 0 0 0 1.0341,-5.59836 16.322667,16.322667 0 0 0 -4.587,-11.3423 11.352847,11.352847 0 0 1 11.1811,-9.57333 11.352847,11.352847 0 0 1 7.0442,2.47181 7.832272,7.832272 0 0 0 0,0.0158 l 0.011,-0.0107 a 11.352847,11.352847 0 0 1 3.356,4.34514 11.352847,11.352847 0 0 0 -2.481,-4.74382 7.832272,7.832272 0 0 1 6.7361,-3.89577 7.832272,7.832272 0 0 1 7.7639,6.81541 7.832272,7.832272 0 0 0 0.047,-0.66061 7.832272,7.832272 0 0 0 -0.5045,-2.72707 7.832272,7.832272 0 0 1 4.7334,-1.6022 7.832272,7.832272 0 0 1 7.7493,6.6987 7.832272,7.832272 0 0 0 0.01,-0.13332 7.832272,7.832272 0 0 0 -7.8323,-7.83231 7.832272,7.832272 0 0 0 -5.0951,1.90274 7.832272,7.832272 0 0 0 -6.8927,-4.13876 7.832272,7.832272 0 0 0 -7.2733,4.95749 11.352847,11.352847 0 0 0 -7.9889,-3.30406 11.352847,11.352847 0 0 0 -11.3093,10.6899 16.322667,16.322667 0 0 0 -10.9853,-4.2554 16.322667,16.322667 0 0 0 -10.6639,4.0419 7.191309,7.191309 0 0 0 -7.1673,-6.61951 7.191309,7.191309 0 0 0 -4.314,1.4688 11.352847,11.352847 0 0 0 -10.9369,-8.31343 z" /><path
         sodipodi:type="star"
         style="fill:#f5e0dc;stroke:none;stroke-width:56.7366;stroke-linecap:round;stroke-linejoin:miter;stroke-dasharray:none"
         id="path34"
         inkscape:flatsided="false"
         sodipodi:sides="4"
         sodipodi:cx="-376.22458"
         sodipodi:cy="-332.61542"
         sodipodi:r1="26.300756"
         sodipodi:r2="10.78331"
         sodipodi:arg1="1.4763552"
         sodipodi:arg2="2.2617534"
         inkscape:rounded="0"
         inkscape:randomized="0"
         d="m -373.7444,-306.43186 -9.35211,-17.87355 -19.31162,-5.82983 17.87354,-9.35211 5.82983,-19.31162 9.35212,17.87354 19.31161,5.82983 -17.87354,9.35212 z"
         inkscape:transform-center-y="-9.0244255e-06"
         transform="matrix(0.32585204,0.01951182,-0.01951182,0.32585204,-1129.3217,-768.9157)" /><path
         sodipodi:type="star"
         style="fill:#f5e0dc;stroke:none;stroke-width:96.2972;stroke-linecap:round;stroke-linejoin:miter;stroke-dasharray:none"
         id="path35"
         inkscape:flatsided="false"
         sodipodi:sides="4"
         sodipodi:cx="-376.22458"
         sodipodi:cy="-332.61542"
         sodipodi:r1="26.300756"
         sodipodi:r2="10.78331"
         sodipodi:arg1="1.4763552"
         sodipodi:arg2="2.2617534"
         inkscape:rounded="0"
         inkscape:randomized="0"
         d="m -373.7444,-306.43186 -9.35211,-17.87355 -19.31162,-5.82983 17.87354,-9.35211 5.82983,-19.31162 9.35212,17.87354 19.31161,5.82983 -17.87354,9.35212 z"
         inkscape:transform-center-y="-7.101128e-06"
         transform="matrix(0.19198644,0.01149603,-0.01149603,0.19198644,-1191.503,-831.16368)"
         inkscape:transform-center-x="-1.6759922e-06" /><path
         sodipodi:type="star"
         style="fill:#f5e0dc;stroke:none;stroke-width:96.2972;stroke-linecap:round;stroke-linejoin:miter;stroke-dasharray:none"
         id="path36"
         inkscape:flatsided="false"
         sodipodi:sides="4"
         sodipodi:cx="-376.22458"
         sodipodi:cy="-332.61542"
         sodipodi:r1="26.300756"
         sodipodi:r2="10.78331"
         sodipodi:arg1="1.4763552"
         sodipodi:arg2="2.2617534"
         inkscape:rounded="0"
         inkscape:randomized="0"
         d="m -373.7444,-306.43186 -9.35211,-17.87355 -19.31162,-5.82983 17.87354,-9.35211 5.82983,-19.31162 9.35212,17.87354 19.31161,5.82983 -17.87354,9.35212 z"
         inkscape:transform-center-y="-7.101128e-06"
         transform="matrix(0.19198644,0.01149603,-0.01149603,0.19198644,-1191.503,-831.16368)"
         inkscape:transform-center-x="-1.6759922e-06" /><path
         sodipodi:type="star"
         style="fill:#f5e0dc;stroke:none;stroke-width:96.2972;stroke-linecap:round;stroke-linejoin:miter;stroke-dasharray:none"
         id="path37"
         inkscape:flatsided="false"
         sodipodi:sides="4"
         sodipodi:cx="-376.22458"
         sodipodi:cy="-332.61542"
         sodipodi:r1="26.300756"
         sodipodi:r2="10.78331"
         sodipodi:arg1="1.4763552"
         sodipodi:arg2="2.2617534"
         inkscape:rounded="0"
         inkscape:randomized="0"
         d="m -373.7444,-306.43186 -9.35211,-17.87355 -19.31162,-5.82983 17.87354,-9.35211 5.82983,-19.31162 9.35212,17.87354 19.31161,5.82983 -17.87354,9.35212 z"
         inkscape:transform-center-y="-7.101128e-06"
         transform="matrix(0.19198644,0.01149603,-0.01149603,0.19198644,-1191.503,-831.16368)"
         inkscape:transform-center-x="-1.6759922e-06" /><path
         sodipodi:type="star"
         style="fill:#f5e0dc;stroke:none;stroke-width:129.615;stroke-linecap:round;stroke-linejoin:miter;stroke-dasharray:none"
         id="path38"
         inkscape:flatsided="false"
         sodipodi:sides="4"
         sodipodi:cx="-376.22458"
         sodipodi:cy="-332.61542"
         sodipodi:r1="26.300756"
         sodipodi:r2="10.78331"
         sodipodi:arg1="1.4763552"
         sodipodi:arg2="2.2617534"
         inkscape:rounded="0"
         inkscape:randomized="0"
         d="m -373.7444,-306.43186 -9.35211,-17.87355 -19.31162,-5.82983 17.87354,-9.35211 5.82983,-19.31162 9.35212,17.87354 19.31161,5.82983 -17.87354,9.35212 z"
         inkscape:transform-center-y="-5.9073429e-06"
         transform="matrix(0.14263637,0.00854098,-0.00854098,0.14263637,-1183.0765,-855.29092)"
         inkscape:transform-center-x="-4.2174171e-06" /><path
         sodipodi:type="star"
         style="fill:#f5e0dc;stroke:none;stroke-width:56.7366;stroke-linecap:round;stroke-linejoin:miter;stroke-dasharray:none"
         id="path39"
         inkscape:flatsided="false"
         sodipodi:sides="4"
         sodipodi:cx="-376.22458"
         sodipodi:cy="-332.61542"
         sodipodi:r1="26.300756"
         sodipodi:r2="10.78331"
         sodipodi:arg1="1.4763552"
         sodipodi:arg2="2.2617534"
         inkscape:rounded="0"
         inkscape:randomized="0"
         d="m -373.7444,-306.43186 -9.35211,-17.87355 -19.31162,-5.82983 17.87354,-9.35211 5.82983,-19.31162 9.35212,17.87354 19.31161,5.82983 -17.87354,9.35212 z"
         transform="matrix(0.32585204,0.01951182,-0.01951182,0.32585204,-1064.7174,-768.9157)"
         inkscape:transform-center-y="-9.0244255e-06" /><path
         sodipodi:type="star"
         style="fill:#f5e0dc;stroke:none;stroke-width:96.2972;stroke-linecap:round;stroke-linejoin:miter;stroke-dasharray:none"
         id="path40"
         inkscape:flatsided="false"
         sodipodi:sides="4"
         sodipodi:cx="-376.22458"
         sodipodi:cy="-332.61542"
         sodipodi:r1="26.300756"
         sodipodi:r2="10.78331"
         sodipodi:arg1="1.4763552"
         sodipodi:arg2="2.2617534"
         inkscape:rounded="0"
         inkscape:randomized="0"
         d="m -373.7444,-306.43186 -9.35211,-17.87355 -19.31162,-5.82983 17.87354,-9.35211 5.82983,-19.31162 9.35212,17.87354 19.31161,5.82983 -17.87354,9.35212 z"
         inkscape:transform-center-y="-7.101128e-06"
         transform="matrix(0.19198644,0.01149603,-0.01149603,0.19198644,-1126.8988,-831.16368)"
         inkscape:transform-center-x="-1.6759922e-06" /><path
         sodipodi:type="star"
         style="fill:#f5e0dc;stroke:none;stroke-width:96.2972;stroke-linecap:round;stroke-linejoin:miter;stroke-dasharray:none"
         id="path41"
         inkscape:flatsided="false"
         sodipodi:sides="4"
         sodipodi:cx="-376.22458"
         sodipodi:cy="-332.61542"
         sodipodi:r1="26.300756"
         sodipodi:r2="10.78331"
         sodipodi:arg1="1.4763552"
         sodipodi:arg2="2.2617534"
         inkscape:rounded="0"
         inkscape:randomized="0"
         d="m -373.7444,-306.43186 -9.35211,-17.87355 -19.31162,-5.82983 17.87354,-9.35211 5.82983,-19.31162 9.35212,17.87354 19.31161,5.82983 -17.87354,9.35212 z"
         inkscape:transform-center-y="-7.101128e-06"
         transform="matrix(0.19198644,0.01149603,-0.01149603,0.19198644,-1126.8988,-831.16368)"
         inkscape:transform-center-x="-1.6759922e-06" /><path
         sodipodi:type="star"
         style="fill:#f5e0dc;stroke:none;stroke-width:96.2972;stroke-linecap:round;stroke-linejoin:miter;stroke-dasharray:none"
         id="path42"
         inkscape:flatsided="false"
         sodipodi:sides="4"
         sodipodi:cx="-376.22458"
         sodipodi:cy="-332.61542"
         sodipodi:r1="26.300756"
         sodipodi:r2="10.78331"
         sodipodi:arg1="1.4763552"
         sodipodi:arg2="2.2617534"
         inkscape:rounded="0"
         inkscape:randomized="0"
         d="m -373.7444,-306.43186 -9.35211,-17.87355 -19.31162,-5.82983 17.87354,-9.35211 5.82983,-19.31162 9.35212,17.87354 19.31161,5.82983 -17.87354,9.35212 z"
         inkscape:transform-center-y="-7.101128e-06"
         transform="matrix(0.19198644,0.01149603,-0.01149603,0.19198644,-1126.8988,-831.16368)"
         inkscape:transform-center-x="-1.6759922e-06" /><path
         sodipodi:type="star"
         style="fill:#f5e0dc;stroke:none;stroke-width:129.615;stroke-linecap:round;stroke-linejoin:miter;stroke-dasharray:none"
         id="path43"
         inkscape:flatsided="false"
         sodipodi:sides="4"
         sodipodi:cx="-376.22458"
         sodipodi:cy="-332.61542"
         sodipodi:r1="26.300756"
         sodipodi:r2="10.78331"
         sodipodi:arg1="1.4763552"
         sodipodi:arg2="2.2617534"
         inkscape:rounded="0"
         inkscape:randomized="0"
         d="m -373.7444,-306.43186 -9.35211,-17.87355 -19.31162,-5.82983 17.87354,-9.35211 5.82983,-19.31162 9.35212,17.87354 19.31161,5.82983 -17.87354,9.35212 z"
         transform="matrix(0.14263637,0.00854098,-0.00854098,0.14263637,-1118.4722,-855.29092)"
         inkscape:transform-center-x="-4.2174171e-06"
         inkscape:transform-center-y="-5.9073429e-06" /><path
         id="path44"
         style="fill:#a6e3a1;stroke:none;stroke-width:18.5208;stroke-linecap:round;stroke-linejoin:miter;stroke-dasharray:none"
         d="m -1214.4945,-1006.2917 a 36.204305,36.204305 0 0 0 -10.9644,25.83034 36.204305,36.204305 0 0 0 0.1826,3.43171 l -9.2154,4.97329 11.7655,23.71931 c 0.012,-3.62458 0.1868,-6.75441 0.4596,-9.49139 h 4.8934 a 36.204305,36.204305 0 0 0 2.8191,3.13784 36.204305,36.204305 0 0 0 2.8189,-3.13784 h 4.8939 c 0.2728,2.73696 0.448,5.86684 0.4596,9.49139 l 11.7655,-23.71931 -9.2156,-4.97329 a 36.204305,36.204305 0 0 0 0.1826,-3.43171 36.204305,36.204305 0 0 0 -10.8453,-25.83034 z" /><g
         id="g57"
         transform="matrix(0.367638,0,0,0.367638,-1107.8158,-815.9875)"
         style="stroke-width:2.72006"><g
           id="g56"
           style="stroke-width:2.72006"><g
             id="g55"
             style="stroke-width:2.72006"><g
               id="g54"
               style="stroke-width:2.72006"><g
                 id="g53"
                 style="stroke-width:2.72006"><g
                   id="g52"
                   style="stroke-width:2.72006"><path
                     id="path7648"
                     style="font-weight:bold;font-size:21.8722px;line-height:0;font-family:Poppins;-inkscape-font-specification:'Poppins Bold';display:inline;fill:#1e1e2e;fill-opacity:1;stroke:none;stroke-width:4.27242;stroke-dasharray:none;stroke-opacity:1"
                     d="m -290.28394,-398.19856 c -2.47625,0 -4.81132,-0.64298 -6.8361,-1.76046 0.17536,-1.40584 0.45325,-3.08012 0.94521,-4.24486 -0.34725,-0.17613 -0.66703,-0.36665 -0.96101,-0.56964 -0.16515,-0.11404 -0.32216,-0.23201 -0.47132,-0.35357 -1.44478,-1.17751 -2.1532,-2.69216 -2.39423,-4.23366 -0.40902,-2.61596 0.52803,-5.30925 1.49662,-6.56335 -0.12232,-0.42525 -0.2213,-0.8506 -0.29952,-1.26448 -0.30321,-1.60441 -0.2944,-3.03652 -0.12359,-3.62259 0.0754,-0.25887 0.33733,-0.53244 0.71403,-0.50803 1.15449,0.0748 2.03594,0.38836 2.72363,0.80316 0.61555,0.37127 1.07585,0.82369 1.43776,1.25867 1.43202,-0.57666 3.09763,-0.69845 4.50321,-0.58602 0.72117,0.0577 1.37389,0.17704 1.89149,0.32824 0.72942,-0.93909 1.51454,-1.83864 3.36109,-2.27586 0.45895,-0.10867 0.71768,0.1526 0.89163,0.53091 0.22122,0.48113 0.3557,0.97649 0.42775,1.46409 0.1499,1.01447 0.0296,1.99537 -0.14204,2.74472 0.75682,0.73158 1.32924,1.50622 1.73794,2.29951 1.15981,2.25113 1.00133,4.65237 -0.003,6.64564 -0.7053,1.40067 -1.82797,2.5999 -3.20384,3.40403 0.394,1.69414 0.48421,3.37562 0.53967,5.05565 -1.88184,0.92552 -3.99723,1.4479 -6.236,1.4479 z"
                     sodipodi:nodetypes="sccsccccssccccssccccccs"
                     inkscape:label="cat" /></g></g></g></g></g><path
           id="path7415"
           style="font-weight:bold;font-size:21.8722px;line-height:0;font-family:Poppins;-inkscape-font-specification:'Poppins Bold';display:inline;fill:#a6e3a1;fill-opacity:1;stroke:none;stroke-width:4.27242;stroke-dasharray:none;stroke-opacity:1"
           d="m -289.59669,-404.31387 c 0.83864,0.25074 1.24805,0.46309 1.804,0.87042 0.18664,-0.22458 0.45162,-0.56504 1.19111,-0.78796 0.0742,-0.0224 0.17047,0.0549 0.19335,0.1289 0.16397,0.53048 0.22942,1.26195 0.0806,1.78854 -0.0245,0.0865 -0.12319,0.17307 -0.24109,0.13961 -0.4469,-0.12681 -0.93048,-0.3764 -1.1585,-0.56078 -0.0949,0.21866 -0.67911,1.00154 -1.46913,1.10233 -0.0883,0.0113 -0.19717,-7.2e-4 -0.24546,-0.0755 -0.38931,-0.60301 -0.56102,-1.7243 -0.36083,-2.51771 0.0253,-0.10009 0.13527,-0.10898 0.20599,-0.0878 v 0"
           inkscape:label="necktie" /><g
           id="g7656"
           style="font-weight:bold;font-size:21.8722px;line-height:0;font-family:Poppins;-inkscape-font-specification:'Poppins Bold';display:inline;fill:#a6e3a1;fill-opacity:1;stroke:none;stroke-width:82.213;stroke-dasharray:none"
           transform="matrix(0.05196731,0,0,0.05196731,-339.21344,-422.23814)"
           inkscape:label="Face"><path
             id="path7413"
             style="fill:#a6e3a1;fill-opacity:1;stroke:none;stroke-width:82.213;stroke-dasharray:none;stroke-opacity:1"
             d="m 872.75529,164.51908 c 11.05763,-51.26304 70.58695,-46.59259 83.33104,-3.86902 1.37108,4.59643 -2.85243,8.27046 -6.35808,5.48112 -29.1541,-29.01146 -59.65956,-12.44148 -70.09511,2.74271 -2.45998,3.57938 -7.93197,0.53207 -6.87785,-4.35481 v 0"
             inkscape:label="eye-left" /><path
             id="path7411"
             style="fill:#a6e3a1;fill-opacity:1;stroke:none;stroke-width:82.213;stroke-dasharray:none;stroke-opacity:1"
             d="m 996.95664,154.98992 c -0.9234,4.51729 4.10196,5.89216 5.99006,3.52564 18.7394,-23.48818 49.4418,-16.31384 61.1327,-2.63093 2.3458,2.74553 7.5416,0.38392 5.7734,-4.45797 -14.167,-38.79431 -65.2018,-34.0778 -72.89616,3.56326 v 0"
             inkscape:label="eye-right" /><path
             id="path7409"
             style="fill:#a6e3a1;fill-opacity:1;stroke:none;stroke-width:82.213;stroke-dasharray:none;stroke-opacity:1"
             d="m 971.94023,191.52338 c 12.34474,-1.01889 25.53351,-1.60859 34.05477,-2.11873 5.5266,-0.33086 6.4166,6.88082 4.7026,9.40512 -3.4936,5.14527 -6.4962,10.42773 -12.14399,14.98616 -3.4329,2.77074 -7.97936,2.10713 -11.47218,0.31005 -5.73045,-2.94836 -10.20558,-6.62046 -17.20824,-12.45401 -2.88013,-2.39929 -1.92384,-9.7992 2.06704,-10.12859 v 0"
             inkscape:label="nose" /><path
             id="path7407"
             style="fill:#a6e3a1;fill-opacity:1;stroke:none;stroke-width:82.213;stroke-dasharray:none;stroke-opacity:1"
             d="m 957.83258,235.11246 c 10.13772,7.80489 26.60326,7.11744 36.09597,-6.04615 1.32537,-1.83789 3.85801,-2.60643 5.65857,-1.11104 10.06788,8.36151 22.24648,4.08453 28.00858,-5.58106 1.6309,-2.73574 3.5532,-2.00855 3.3073,0.51677 -1.3292,13.64897 -15.1035,24.84729 -26.9751,20.17965 -2.4151,-0.94955 -6.09192,-0.79551 -7.95811,1.00768 -10.93108,10.56205 -31.72966,11.65561 -42.63308,-5.6844 -2.93996,-4.6755 1.7905,-5.36428 4.49587,-3.28145 v 0"
             inkscape:label="mouse" /></g></g></g></g></svg>
