<?xml version="1.0" encoding="UTF-8" standalone="no"?>
<!-- Created with Inkscape (http://www.inkscape.org/) -->

<svg
   width="3000"
   height="1940.0504"
   viewBox="0 0 793.74998 513.30499"
   version="1.1"
   id="svg1"
   inkscape:version="1.3.2 (091e20ef0f, 2023-11-25, custom)"
   xml:space="preserve"
   xmlns:inkscape="http://www.inkscape.org/namespaces/inkscape"
   xmlns:sodipodi="http://sodipodi.sourceforge.net/DTD/sodipodi-0.dtd"
   xmlns:xlink="http://www.w3.org/1999/xlink"
   xmlns="http://www.w3.org/2000/svg"
   xmlns:svg="http://www.w3.org/2000/svg"
   xmlns:rdf="http://www.w3.org/1999/02/22-rdf-syntax-ns#"
   xmlns:cc="http://creativecommons.org/ns#"><sodipodi:namedview
     id="namedview1"
     pagecolor="#ffffff"
     bordercolor="#89dceb"
     borderopacity="1"
     inkscape:showpageshadow="0"
     inkscape:pageopacity="0"
     inkscape:pagecheckerboard="false"
     inkscape:deskcolor="#dfe0e6"
     inkscape:document-units="px"
     showguides="true"
     inkscape:lockguides="false"
     showborder="false"
     borderlayer="true" /><defs
     id="defs1"><linearGradient
       id="linearGradient111"
       inkscape:collect="always"><stop
         style="stop-color:#cba6f7;stop-opacity:1"
         offset="0"
         id="stop111" /><stop
         style="stop-color:#f38ba8;stop-opacity:1"
         offset="0.2"
         id="stop113" /><stop
         style="stop-color:#fab387;stop-opacity:1"
         offset="0.40000001"
         id="stop114" /><stop
         style="stop-color:#a6e3a1;stop-opacity:1"
         offset="0.60000002"
         id="stop115" /><stop
         style="stop-color:#89dceb;stop-opacity:1"
         offset="0.80000001"
         id="stop116" /><stop
         style="stop-color:#89b4fa;stop-opacity:1"
         offset="1"
         id="stop112" /></linearGradient><linearGradient
       id="linearGradient80"
       inkscape:collect="always"><stop
         style="stop-color:#89b4fa;stop-opacity:1"
         offset="0"
         id="stop80" /><stop
         style="stop-color:#a6e3a1;stop-opacity:1"
         offset="1"
         id="stop81" /></linearGradient><linearGradient
       id="linearGradient78"
       inkscape:collect="always"><stop
         style="stop-color:#f9e2af;stop-opacity:1"
         offset="0"
         id="stop78" /><stop
         style="stop-color:#cba6f7;stop-opacity:1"
         offset="1"
         id="stop79" /></linearGradient><linearGradient
       id="linearGradient76"
       inkscape:collect="always"><stop
         style="stop-color:#f5c2e7;stop-opacity:1"
         offset="0"
         id="stop76" /><stop
         style="stop-color:#f38ba8;stop-opacity:1"
         offset="1"
         id="stop77" /></linearGradient><linearGradient
       inkscape:collect="always"
       xlink:href="#linearGradient76"
       id="linearGradient77"
       x1="-15.59543"
       y1="47.552135"
       x2="239.98483"
       y2="47.552135"
       gradientUnits="userSpaceOnUse"
       gradientTransform="matrix(3.1055886,0,0,3.1055886,-2765.4327,567.19017)" /><linearGradient
       inkscape:collect="always"
       xlink:href="#linearGradient78"
       id="linearGradient79"
       x1="-5.5397134"
       y1="6.8063025"
       x2="229.92703"
       y2="6.8063025"
       gradientUnits="userSpaceOnUse"
       gradientTransform="matrix(3.1055886,0,0,3.1055886,-2765.4327,567.19017)" /><linearGradient
       inkscape:collect="always"
       xlink:href="#linearGradient80"
       id="linearGradient81"
       x1="22.436872"
       y1="-34.468697"
       x2="201.9453"
       y2="-34.468697"
       gradientUnits="userSpaceOnUse"
       gradientTransform="matrix(3.1055886,0,0,3.1055886,-2765.4327,567.19017)" /><linearGradient
       inkscape:collect="always"
       xlink:href="#linearGradient111"
       id="linearGradient112"
       x1="-352.47607"
       y1="128.71805"
       x2="-96.888657"
       y2="128.71805"
       gradientUnits="userSpaceOnUse"
       gradientTransform="matrix(3.1055886,0,0,3.1055886,-1719.2307,448.23557)" /></defs><g
     inkscape:label="Warstwa 1"
     inkscape:groupmode="layer"
     id="layer1"
     transform="translate(2813.8762,-402.62708)"><path
       id="path12"
       style="opacity:1;fill:url(#linearGradient77);stroke-width:5.17938;stroke-linecap:round;stroke-linejoin:round;stroke-miterlimit:4.5;paint-order:fill markers stroke"
       d="m -2787.2822,657.35004 a 398.46822,398.46822 0 0 0 -26.5829,115.03619 h 364.0219 c -0.2329,-2.81087 -0.6544,-6.35571 -1.4575,-11.07192 -0.2267,-1.33019 -0.4875,-2.79174 -0.8006,-4.43742 -1.4643,-7.69199 -2.7702,-13.00767 -5.3379,-24.45803 -2.0518,-9.14957 -4.1472,-19.08416 -5.604,-29.69949 -1.4829,-10.80236 -2.0804,-20.6977 -1.9373,-30.28365 0,-0.71705 0.031,-1.42187 0.034,-2.11199 0.081,-4.45835 0.1925,-8.75357 0.3227,-12.97369 z m 330.3117,0 c -0.093,4.31941 -0.1367,8.67419 -0.09,13.00416 0,0.68052 0.031,1.37478 0.031,2.08152 0.1428,9.10356 1.1111,18.58135 3.0108,28.83445 1.8755,10.12335 4.3944,19.61527 6.8975,28.55043 2.9935,10.6844 4.9152,17.09769 6.6603,24.58641 0.4015,1.72273 0.74,3.28398 1.0239,4.71025 1.1143,5.59506 1.5503,9.87819 1.746,13.26897 h 20.8152 c -0.6358,-3.06174 -1.3308,-6.50702 -1.8715,-9.57618 -1.2189,-6.92074 -2.9953,-15.53921 -3.4552,-22.78095 -0.4146,-6.53065 -0.5075,-12.24285 0.4431,-18.7335 1.0677,-7.29065 5.201,-19.00282 6.2413,-22.80344 1.0401,3.80062 5.1736,15.51279 6.2413,22.80344 0.9503,6.49065 0.8575,12.20285 0.4429,18.7335 -0.46,7.24174 -2.2364,15.86021 -3.4553,22.78095 -0.5407,3.06916 -1.2357,6.51444 -1.8714,9.57618 h 22.0621 c 0.2205,-1.51783 0.4897,-3.11277 0.8764,-4.85149 0.5158,-2.31978 1.0804,-4.36413 1.6481,-6.42422 0.369,-1.33991 0.7329,-2.76814 1.0929,-4.19351 1.6127,-6.38496 3.3782,-13.51794 6.3826,-20.44427 0.118,-0.26833 0.236,-0.53907 0.3546,-0.81209 3.4202,-7.81276 7.0361,-15.42934 10.8969,-27.59389 0.7895,-2.48789 1.5385,-5.01168 2.2596,-7.59739 1.8361,-6.5836 3.5954,-12.93226 5.3842,-21.26918 1.6904,-7.87596 2.8351,-15.02764 3.3686,-19.47978 0.5485,4.57329 1.5177,11.51543 2.2823,19.81037 0.7516,8.15071 1.142,16.00843 0.8907,22.75368 -0.1056,2.83991 -0.2857,5.67366 -0.5441,8.48006 -1.2161,13.20089 -4.0065,23.908 -7.5459,32.22554 -0.1305,0.30683 -0.2609,0.60904 -0.3932,0.90674 -3.4292,7.76444 -8.3373,13.11136 -11.3158,17.94071 -0.6715,1.08854 -1.2504,2.15068 -1.7109,3.20971 -0.6811,1.56668 -1.228,3.26634 -1.6258,5.03764 -0.177,0.79537 -0.3118,1.55916 -0.422,2.30137 h 85.1151 c 0.1087,-0.46892 0.1771,-0.7605 0.2889,-1.23895 1.2683,-5.5022 2.5642,-11.21241 3.7521,-16.60868 1.2938,-5.8755 2.382,-11.02612 3.1808,-15.12257 3.2596,-17.67481 3.3118,-33.07359 1.6403,-46.35629 -0.9515,-7.56064 -2.486,-14.63191 -4.4326,-21.23548 -1.4916,-5.06 -3.2453,-9.87577 -5.1804,-14.47422 z m 175.8089,0 c 1.3202,3.4055 2.5786,6.8831 3.6832,10.52307 2.2056,7.26851 3.9562,15.06328 5.0584,23.40042 1.9407,14.67686 1.9391,31.53726 -1.518,50.68781 -0.737,4.3131 -1.7817,9.65157 -3.0236,15.60083 -0.6264,3.00052 -2.0379,8.9458 -3.4137,14.82406 h 260.2375 a 398.46822,398.46822 0 0 0 -26.5845,-115.03619 z" /><path
       id="path11"
       style="opacity:1;fill:url(#linearGradient79);stroke-width:5.17938;stroke-linecap:round;stroke-linejoin:round;stroke-miterlimit:4.5;paint-order:fill markers stroke"
       d="m -2708.1934,530.81026 a 398.46822,398.46822 0 0 0 -74.4428,115.03618 h 318.4694 c 0.4714,-10.14838 1.1251,-19.64871 2.0897,-28.38834 0.2174,-1.96779 0.4622,-4.02885 0.7317,-6.15943 1.0885,-8.59503 2.4376,-17.27521 3.7249,-25.14971 1.5723,-9.61798 2.2248,-13.39782 2.8599,-17.50099 -1.0537,-0.36466 -2.1003,-0.78941 -3.1149,-1.26944 -1.0926,-0.51689 -2.1537,-1.06841 -3.1714,-1.65459 -2.9814,-1.71749 -5.9212,-3.90665 -8.6342,-7.08547 -1.6932,-1.98397 -3.3565,-4.31496 -4.8674,-7.00037 -1.8506,-3.28956 -3.3407,-6.88117 -4.3413,-10.52788 -0.9475,-3.45394 -1.3509,-7.09232 -1.5581,-10.29996 z m 230.5763,0 c 0.056,0.10031 0.1025,0.19254 0.1584,0.29379 1.7046,3.08282 2.8571,4.87254 4.4469,7.54282 1.8394,3.08931 3.5316,5.81292 5.4903,8.58117 1.5503,2.19125 3.0292,4.06774 4.4631,5.73093 2.1,2.4359 4.427,5.05124 6.3279,6.86721 0.7131,0.68096 1.4621,1.34906 2.2612,1.99161 2.2242,1.7881 4.2189,3.13267 6.5432,4.52571 1.5261,0.91469 2.4785,1.44003 3.1326,1.92584 0.6065,0.45037 0.7006,0.70522 0.6869,0.87944 0,0.15683 -0.1615,0.44146 -0.9403,0.66283 -0.7699,0.21925 -2.1221,0.35189 -4.0379,0.14937 -1.6715,-0.1767 -3.4339,-0.57819 -5.1854,-1.15068 0.093,4.04199 0.208,8.35757 0.034,17.64701 -0.1428,7.62711 -0.449,17.1131 -0.7705,25.36636 -0.084,2.12074 -0.1677,4.21211 -0.2546,6.16266 -0.3597,8.07416 -0.9202,17.70881 -1.3289,27.86033 h 155.2748 c -4.4475,-8.43844 -9.4205,-15.99732 -14.4149,-22.68788 -5.1069,-6.84133 -10.3547,-12.96257 -15.2606,-18.36117 -5.0391,-5.54515 -9.9459,-10.57359 -14.036,-14.85456 -2.1286,-2.22776 -4.0972,-4.31527 -5.8643,-6.28142 -1.7919,-1.99382 -3.4046,-3.89438 -4.7696,-5.70525 -1.376,-1.82565 -2.586,-3.67422 -3.4649,-5.52394 -0.45,-0.94702 -0.8382,-1.9441 -1.1105,-2.98183 -0.2764,-1.05354 -0.4419,-2.17553 -0.419,-3.34931 0.1398,-12.85518 -0.3074,-24.63925 -1.1024,-35.29083 z m 126.3602,0 c 1.0708,10.69313 1.7975,22.45405 1.9338,35.29082 0.031,-0.0531 0.04,0.003 0.118,0.20217 0.084,0.20218 0.2143,0.50146 0.4544,0.926 0.4832,0.85925 1.2487,1.96739 2.4329,3.40711 1.15,1.39835 2.5807,2.9744 4.3171,4.78729 1.7068,1.78214 3.631,3.71121 5.8015,5.87059 4.1227,4.10146 9.2786,9.16835 14.5963,14.81282 5.1907,5.50975 10.8351,11.88114 16.3758,19.0962 6.6382,8.64416 13.3748,18.83841 19.0931,30.64315 h 234.7602 a 398.46822,398.46822 0 0 0 -74.4335,-115.03618 z" /><path
       id="path5"
       style="opacity:1;fill:url(#linearGradient81);stroke-width:5.17938;stroke-linecap:round;stroke-linejoin:round;stroke-miterlimit:4.5;paint-order:fill markers stroke"
       d="m -2417.4494,402.62709 a 398.46822,398.46822 0 0 0 -278.303,115.03619 h 256.5188 a 8.989263,11.569392 21.928724 0 1 -0.099,-10.34012 8.989263,11.569392 21.928724 0 1 12.6593,-7.3759 8.989263,11.569392 21.928724 0 1 4.0187,14.09065 8.989263,11.569392 21.928724 0 1 -2.1056,3.62537 h 61.7804 c -1.5242,-13.6877 -3.6249,-25.32207 -5.8817,-34.61036 -1.2286,-5.05546 -2.5105,-9.48223 -3.7891,-13.27058 -1.3143,-3.89395 -2.6224,-7.10528 -3.8677,-9.65481 -1.2876,-2.63575 -2.4534,-4.45093 -3.4376,-5.61699 -0.4953,-0.58698 -0.8848,-0.93866 -1.1699,-1.16192 -0.1366,-0.10777 -0.2391,-0.17733 -0.3012,-0.22454 -0.065,-0.0484 -0.087,-0.073 -0.093,-0.10279 -0.1459,-0.0543 -0.3751,-0.0773 -0.7205,0.009 0,0.002 0,0.002 -0.031,0.006 -0.3556,0.0913 -0.7972,0.28789 -1.3159,0.6227 -1.0419,0.67251 -2.2149,1.78671 -3.4649,3.29636 -1.2419,1.49957 -2.4872,3.29867 -3.7009,5.25752 -1.2385,1.99968 -2.4252,4.13509 -3.5208,6.23167 -2.3298,4.4577 -4.4199,9.08692 -5.6556,11.81173 -1.9444,4.2877 -2.4661,5.32891 -2.6643,5.26876 3e-4,6e-5 0,0.003 0,0.003 v 0 c 3e-4,10e-5 0,-0.003 0,-0.003 -0.1397,-0.0488 -0.1025,-1.24826 1.2022,-5.80478 0.8683,-3.03528 2.3463,-7.65056 4.3009,-12.56602 0.8935,-2.24692 1.8923,-4.56854 2.969,-6.78857 1.05,-2.1645 2.1857,-4.25854 3.3847,-6.10006 1.1855,-1.82074 2.4901,-3.48357 3.9094,-4.73593 0.7245,-0.63916 1.5167,-1.2067 2.3816,-1.63052 0.031,-0.009 0.031,-0.0155 0.05,-0.0217 0.8597,-0.4146 1.8199,-0.70537 2.8649,-0.76069 0.5982,-0.028 1.1876,0.0342 1.7572,0.16677 0.5655,0.13137 1.1077,0.33094 1.6242,0.57935 1.018,0.48978 1.9773,1.18947 2.8742,2.0141 1.7596,1.61748 3.4901,3.91593 5.1742,6.77251 1.6575,2.81233 3.3308,6.26776 4.9718,10.34329 1.6006,3.97456 3.1882,8.57953 4.7087,13.80179 2.881,9.89484 5.5857,22.25294 7.6118,36.8716 h 214.5244 A 398.46822,398.46822 0 0 0 -2417.461,402.62999 Z m -8.3677,37.79759 c 0.8959,-0.009 1.7546,0.14752 2.5549,0.40764 0.7718,0.25093 1.4944,0.60022 2.1634,1.00624 1.2928,0.78485 2.4711,1.83084 3.5242,2.96096 1.0578,1.1351 2.0425,2.41239 2.9323,3.70724 0.9248,1.3463 1.7634,2.73642 2.4922,4.05226 0.8895,1.60596 1.6239,3.11814 2.1923,4.39571 0.4903,1.10212 0.8875,2.1782 1.1714,3.13267 0.4075,1.36991 0.5516,2.37196 0.5264,3.01072 -0.031,0.63835 -0.2143,0.85357 -0.3466,0.92279 -0.1335,0.0705 -0.4133,0.10217 -0.9565,-0.21677 -0.5503,-0.32279 -1.291,-0.95323 -2.2612,-1.9531 -0.6686,-0.6891 -1.4133,-1.52031 -2.1522,-2.39447 -0.8354,-0.98858 -1.9149,-2.26684 -3.0139,-3.50662 -0.9258,-1.04444 -1.9137,-2.11922 -2.9174,-3.12142 -0.9746,-0.9728 -1.9274,-1.84103 -2.8295,-2.55013 -0.9171,-0.72084 -1.6767,-1.1936 -2.2739,-1.46525 -0.2982,-0.13509 -0.5128,-0.20093 -0.6535,-0.2326 -0.1397,-0.0317 -0.1801,-0.0217 -0.1521,-0.0311 v -0.009 c 0,-0.009 -0.059,-0.0248 -0.1553,-0.0217 -0.1304,0.003 -0.3289,0.0379 -0.6019,0.12858 -0.5698,0.18882 -1.3056,0.57419 -2.1711,1.18437 -0.8714,0.61435 -1.7919,1.39733 -2.7155,2.28531 -0.9447,0.9082 -1.8727,1.90693 -2.7314,2.91764 -0.4599,0.54124 -0.9006,1.08627 -1.3146,1.62252 -1.0978,1.42245 -2.2357,2.98065 -3.1326,4.16298 -0.7798,1.02776 -1.3211,1.69068 -1.722,2.07509 -0.3895,0.37357 -0.5687,0.40115 -0.6643,0.35947 -0.093,-0.0413 -0.1988,-0.19534 -0.1708,-0.73981 0.031,-0.54615 0.1956,-1.43274 0.5553,-2.68814 0.4301,-1.50186 1.0695,-3.29453 1.8248,-5.08419 0.2764,-0.6564 0.5693,-1.3414 0.8792,-2.03658 0.5764,-1.29224 1.2248,-2.65525 1.9469,-3.97363 0.7,-1.27861 1.4975,-2.56693 2.4025,-3.72808 0.8776,-1.12624 1.9282,-2.22537 3.1742,-3.06689 0.622,-0.42 1.318,-0.79251 2.0863,-1.064 0.578,-0.20404 1.201,-0.35277 1.8584,-0.41566 0.2112,-0.0217 0.4298,-0.0317 0.65,-0.0338 z m -3.9736,32.04902 c 3.8304,-0.0649 6.9006,0.59972 8.822,1.02068 -2.3143,0.50709 -5.5845,1.66777 -8.9584,3.90944 -2.1938,1.45771 -3.909,2.99969 -5.4919,4.43904 -0.3075,0.28105 -0.6168,0.56637 -0.9227,0.85699 -3.7633,3.57686 -6.654,7.18462 -10.3608,11.22598 -0.2733,0.29907 -0.5466,0.5937 -0.8202,0.88587 -2.0224,2.15923 -4.0718,4.15904 -6.3584,6.05031 -1.3183,1.09016 -2.764,2.18233 -4.3171,3.20811 -0.8928,0.58959 -1.922,1.19599 -3.0444,1.76214 -2.5941,1.30844 -5.3897,2.26316 -8.2522,2.65282 -3.7739,0.51379 -6.6285,-0.0978 -8.2987,-0.50553 1.7829,-0.4349 4.1916,-1.40493 6.6776,-3.4681 1.8261,-1.51522 3.3451,-3.30841 4.7826,-5.15959 0.628,-0.80867 1.2184,-1.60056 1.7671,-2.31581 0.9627,-1.255 1.8808,-2.5068 2.8211,-3.76018 1.6156,-2.15298 3.3128,-4.33739 5.3733,-6.61202 0.2795,-0.30745 0.5646,-0.61717 0.8584,-0.92922 3.7416,-3.97435 8.5571,-8.07491 14.2078,-10.6691 0.4804,-0.22049 0.9636,-0.42885 1.4493,-0.62428 2.4656,-0.99224 5.3382,-1.67118 8.3789,-1.89211 0.577,-0.0419 1.1395,-0.0662 1.6867,-0.0755 z" /><path
       d="m -2787.5937,893.57008 c 13.0444,0 20.2323,-3.32767 30.0823,-14.37558 l -6.3891,-4.65876 c -7.8534,8.51888 -13.4438,11.44723 -23.5599,11.44723 -17.8367,0 -21.2972,-8.11953 -15.7069,-34.74097 5.7236,-27.28698 13.7103,-36.07207 32.7444,-36.07207 9.4506,0 13.1777,2.26283 17.3041,10.78171 l 7.3208,-3.59392 c -5.0581,-11.04788 -10.7817,-14.7749 -24.4916,-14.7749 -24.3587,0 -34.0755,10.38236 -40.864,42.32809 -6.9217,32.61129 -1.1981,43.65917 23.5599,43.65917 z m 75.0242,0 c 11.8466,0 18.1028,-2.66214 25.1575,-12.11276 0,7.58711 3.8599,10.38239 13.7099,10.24925 l 0.9317,-7.58711 c -8.1193,0.13323 -9.5836,-2.39593 -7.3208,-13.1776 l 7.3208,-34.34166 c 4.5257,-21.29716 -1.0646,-29.01738 -23.0274,-29.01738 -15.4403,0 -22.6282,4.65876 -29.949,19.03434 l 7.5869,2.66215 c 5.1913,-10.38236 10.3823,-13.84317 22.096,-13.84317 15.1742,0 18.6348,4.65876 15.3071,20.49853 l -1.7304,7.85332 h -20.6317 c -21.5633,0 -29.4164,5.7236 -33.4099,24.75794 -3.9932,18.63502 1.9969,25.02415 23.9593,25.02415 z m 0.1336,-7.58711 c -15.1743,0 -18.6348,-3.59388 -16.1059,-16.10595 3.0615,-14.24248 9.0512,-18.36881 24.4919,-18.36881 h 19.9658 l -2.3956,10.78167 c -3.7271,17.83639 -10.1165,23.69309 -25.9562,23.69309 z m 92.8608,7.58711 c 13.3108,0 19.0344,-2.79525 24.758,-12.64518 l -7.3211,-3.32767 c -3.5938,6.25602 -7.5869,8.38574 -17.3037,8.38574 -11.0481,0 -13.1776,-5.98981 -9.85,-21.82958 l 10.1162,-47.38616 h 27.6863 l 1.5972,-7.58711 h -27.6863 l 5.058,-23.9593 h -8.2524 l -5.0581,23.9593 h -16.5053 l -1.5975,7.58711 h 16.5053 l -9.9829,46.72063 c -4.5258,21.16406 -0.1336,30.08222 17.8363,30.08222 z m 38.1537,22.36201 h 8.2525 l 7.1879,-33.01057 c 2.1298,7.72021 9.1844,10.64856 19.5667,10.64856 21.8295,0 30.8807,-10.38235 37.6693,-42.46119 6.9217,-32.61126 1.7304,-43.52607 -20.8979,-43.52607 -9.3174,0 -17.0375,1.73041 -22.3618,7.45401 l 1.464,-5.5905 h -8.2525 z m 35.1403,-29.94912 c -12.6453,0 -19.4338,-5.59049 -15.9729,-21.56337 l 8.1195,-37.93554 c 1.5972,-8.25267 12.1128,-11.31413 24.3587,-11.31413 15.7065,0 18.6348,8.11953 13.0444,34.60787 -5.7236,27.28698 -13.0444,36.20517 -29.5497,36.20517 z m 45.7407,29.94912 h 8.2525 l 7.1879,-33.01057 c 2.1298,7.72021 9.1844,10.64856 19.5667,10.64856 21.8295,0 30.8811,-10.38235 37.6693,-42.46119 6.9217,-32.61126 1.7304,-43.52607 -20.8978,-43.52607 -9.3174,0 -17.0376,1.73041 -22.3618,7.45401 l 1.4639,-5.5905 h -8.2524 z m 35.1404,-29.94912 c -12.6454,0 -19.4339,-5.59049 -15.973,-21.56337 l 8.1195,-37.93554 c 1.5973,-8.25267 12.1128,-11.31413 24.3587,-11.31413 15.7065,0 18.6351,8.11953 13.0444,34.60787 -5.7236,27.28698 -13.0444,36.20517 -29.5496,36.20517 z m 77.5533,7.58711 c 11.9795,0 18.1025,-1.86351 24.4916,-8.25263 l -1.7304,6.38912 h 8.2528 l 17.5702,-82.26024 h -8.2528 l -12.1127,56.83678 c -3.1944,14.908 -9.85,19.69986 -28.0857,19.69986 -12.7783,0 -15.3072,-5.05807 -11.5802,-22.62822 l 11.4472,-53.90842 h -8.2528 l -11.4472,53.2429 c -4.7919,23.02753 0,30.88085 19.7,30.88085 z m 85.5397,0 c 13.0445,0 20.2323,-3.32767 30.0823,-14.37558 l -6.3891,-4.65876 c -7.8534,8.51888 -13.4438,11.44723 -23.5599,11.44723 -17.8367,0 -21.2972,-8.11953 -15.7068,-34.74097 5.7236,-27.28698 13.7099,-36.07207 32.7443,-36.07207 9.4507,0 13.1777,2.26283 17.3041,10.78171 l 7.3208,-3.59392 c -5.0581,-11.04788 -10.7817,-14.7749 -24.4916,-14.7749 -24.3587,0 -34.0755,10.38236 -40.864,42.32809 -6.9217,32.61129 -1.1981,43.65917 23.5599,43.65917 z m 80.8811,0 c 13.0444,0 20.2323,-3.32767 30.0822,-14.37558 l -6.3891,-4.65876 c -7.8534,8.51888 -13.4438,11.44723 -23.5599,11.44723 -17.8363,0 -21.2972,-8.11953 -15.7068,-34.74097 5.7236,-27.28698 13.7102,-36.07207 32.7444,-36.07207 9.4506,0 13.1776,2.26283 17.304,10.78171 l 7.3208,-3.59392 c -5.0581,-11.04788 -10.7817,-14.7749 -24.4916,-14.7749 -24.3587,0 -34.0755,10.38236 -40.864,42.32809 -6.9217,32.61129 -1.1981,43.65917 23.56,43.65917 z m 100.9804,-98.49933 c 5.7236,0 7.7201,-1.5973 8.918,-6.92158 1.1981,-5.85671 -0.7985,-8.11953 -7.1876,-8.11953 -5.7239,0 -7.7205,1.59727 -8.7851,6.78847 -1.3311,5.98982 0.6655,8.25264 7.0547,8.25264 z m -13.7103,89.04871 15.973,-74.67313 h -26.0891 l -1.5972,7.58711 h 17.7034 l -14.2426,67.08602 h -23.2937 l -1.5973,7.58711 h 54.8401 l 1.5972,-7.58711 z m 44.0105,7.58711 h 8.2525 l 11.5805,-54.04152 c 3.8599,-17.96947 10.249,-22.49512 28.618,-22.49512 12.7782,0 15.3074,5.32429 11.4472,23.29378 l -11.314,53.24286 h 8.2525 l 11.3142,-52.57733 c 5.0581,-23.6931 0.2671,-31.54642 -19.5667,-31.54642 -11.9798,0 -18.2357,2.52904 -24.6248,8.9182 l 1.8633,-7.05469 h -8.2525 z"
       id="text111"
       style="font-style:oblique;font-size:47.1466px;line-height:19.6444px;font-family:'Victor Mono';-inkscape-font-specification:'Victor Mono Oblique';letter-spacing:0.327407px;opacity:0.618704;fill:url(#linearGradient112);stroke-width:5.08397;stroke-linecap:round;stroke-linejoin:round;stroke-miterlimit:4.5;paint-order:fill markers stroke"
       aria-label="catppuccin" /></g><metadata
     id="metadata1"><rdf:RDF><cc:Work
         rdf:about="" /></rdf:RDF></metadata></svg>
