<?xml version="1.0" encoding="UTF-8" standalone="no"?>
<!-- Created with Inkscape (http://www.inkscape.org/) -->

<svg
   width="404.15112"
   height="340.3728"
   viewBox="0 0 106.93165 90.056967"
   version="1.1"
   id="svg1"
   inkscape:version="1.3.2 (091e20ef0f, 2023-11-25, custom)"
   xml:space="preserve"
   xmlns:inkscape="http://www.inkscape.org/namespaces/inkscape"
   xmlns:sodipodi="http://sodipodi.sourceforge.net/DTD/sodipodi-0.dtd"
   xmlns:xlink="http://www.w3.org/1999/xlink"
   xmlns="http://www.w3.org/2000/svg"
   xmlns:svg="http://www.w3.org/2000/svg"><sodipodi:namedview
     id="namedview1"
     pagecolor="#6e738d"
     bordercolor="#89dceb"
     borderopacity="1"
     inkscape:showpageshadow="0"
     inkscape:pageopacity="0"
     inkscape:pagecheckerboard="false"
     inkscape:deskcolor="#6e738d"
     inkscape:document-units="px"
     showguides="true"
     inkscape:lockguides="false"
     showborder="true"
     borderlayer="true" /><defs
     id="defs1"><linearGradient
       id="linearGradient4"
       inkscape:collect="always"><stop
         style="stop-color:#eba0ac;stop-opacity:1"
         offset="0"
         id="stop4" /><stop
         style="stop-color:#cba6f7;stop-opacity:1"
         offset="0.25"
         id="stop6" /><stop
         style="stop-color:#a6e3a1;stop-opacity:1"
         offset="0.5"
         id="stop7" /><stop
         style="stop-color:#74c7ec;stop-opacity:1"
         offset="0.75"
         id="stop8" /><stop
         style="stop-color:#f2cdcd;stop-opacity:1"
         offset="1"
         id="stop5" /></linearGradient><linearGradient
       inkscape:collect="always"
       xlink:href="#linearGradient4"
       id="linearGradient5"
       x1="30.787422"
       y1="45.663635"
       x2="871.63336"
       y2="981.24323"
       gradientUnits="userSpaceOnUse" /><linearGradient
       inkscape:collect="always"
       xlink:href="#linearGradient4"
       id="linearGradient2"
       gradientUnits="userSpaceOnUse"
       x1="30.787422"
       y1="45.663635"
       x2="871.63336"
       y2="981.24323" /><linearGradient
       inkscape:collect="always"
       xlink:href="#linearGradient4"
       id="linearGradient3"
       gradientUnits="userSpaceOnUse"
       x1="30.787422"
       y1="45.663635"
       x2="871.63336"
       y2="981.24323" /><linearGradient
       inkscape:collect="always"
       xlink:href="#linearGradient4"
       id="linearGradient6"
       gradientUnits="userSpaceOnUse"
       x1="30.787422"
       y1="45.663635"
       x2="871.63336"
       y2="981.24323" /><linearGradient
       inkscape:collect="always"
       xlink:href="#linearGradient4"
       id="linearGradient7"
       gradientUnits="userSpaceOnUse"
       x1="30.787422"
       y1="45.663635"
       x2="871.63336"
       y2="981.24323" /><linearGradient
       inkscape:collect="always"
       xlink:href="#linearGradient4"
       id="linearGradient8"
       gradientUnits="userSpaceOnUse"
       x1="30.787422"
       y1="45.663635"
       x2="871.63336"
       y2="981.24323" /><linearGradient
       inkscape:collect="always"
       xlink:href="#linearGradient4"
       id="linearGradient9"
       gradientUnits="userSpaceOnUse"
       x1="30.787422"
       y1="45.663635"
       x2="871.63336"
       y2="981.24323" /><linearGradient
       inkscape:collect="always"
       xlink:href="#linearGradient4"
       id="linearGradient10"
       gradientUnits="userSpaceOnUse"
       x1="30.787422"
       y1="45.663635"
       x2="871.63336"
       y2="981.24323" /><linearGradient
       inkscape:collect="always"
       xlink:href="#linearGradient4"
       id="linearGradient11"
       gradientUnits="userSpaceOnUse"
       x1="30.787422"
       y1="45.663635"
       x2="871.63336"
       y2="981.24323" /><linearGradient
       inkscape:collect="always"
       xlink:href="#linearGradient4"
       id="linearGradient12"
       gradientUnits="userSpaceOnUse"
       x1="30.787422"
       y1="45.663635"
       x2="871.63336"
       y2="981.24323" /><linearGradient
       inkscape:collect="always"
       xlink:href="#linearGradient4"
       id="linearGradient13"
       gradientUnits="userSpaceOnUse"
       x1="30.787422"
       y1="45.663635"
       x2="871.63336"
       y2="981.24323" /><linearGradient
       inkscape:collect="always"
       xlink:href="#linearGradient4"
       id="linearGradient14"
       gradientUnits="userSpaceOnUse"
       x1="30.787422"
       y1="45.663635"
       x2="871.63336"
       y2="981.24323" /><linearGradient
       inkscape:collect="always"
       xlink:href="#linearGradient4"
       id="linearGradient15"
       gradientUnits="userSpaceOnUse"
       x1="30.787422"
       y1="45.663635"
       x2="871.63336"
       y2="981.24323" /><linearGradient
       inkscape:collect="always"
       xlink:href="#linearGradient4"
       id="linearGradient16"
       gradientUnits="userSpaceOnUse"
       x1="30.787422"
       y1="45.663635"
       x2="871.63336"
       y2="981.24323" /><linearGradient
       inkscape:collect="always"
       xlink:href="#linearGradient4"
       id="linearGradient17"
       gradientUnits="userSpaceOnUse"
       x1="30.787422"
       y1="45.663635"
       x2="871.63336"
       y2="981.24323" /><linearGradient
       inkscape:collect="always"
       xlink:href="#linearGradient4"
       id="linearGradient18"
       gradientUnits="userSpaceOnUse"
       x1="30.787422"
       y1="45.663635"
       x2="871.63336"
       y2="981.24323" /><linearGradient
       inkscape:collect="always"
       xlink:href="#linearGradient4"
       id="linearGradient19"
       gradientUnits="userSpaceOnUse"
       x1="30.787422"
       y1="45.663635"
       x2="871.63336"
       y2="981.24323" /><linearGradient
       inkscape:collect="always"
       xlink:href="#linearGradient4"
       id="linearGradient20"
       gradientUnits="userSpaceOnUse"
       x1="30.787422"
       y1="45.663635"
       x2="871.63336"
       y2="981.24323" /><linearGradient
       inkscape:collect="always"
       xlink:href="#linearGradient4"
       id="linearGradient21"
       gradientUnits="userSpaceOnUse"
       x1="30.787422"
       y1="45.663635"
       x2="871.63336"
       y2="981.24323" /><linearGradient
       inkscape:collect="always"
       xlink:href="#linearGradient4"
       id="linearGradient22"
       gradientUnits="userSpaceOnUse"
       x1="30.787422"
       y1="45.663635"
       x2="871.63336"
       y2="981.24323" /><linearGradient
       inkscape:collect="always"
       xlink:href="#linearGradient4"
       id="linearGradient23"
       gradientUnits="userSpaceOnUse"
       x1="30.787422"
       y1="45.663635"
       x2="871.63336"
       y2="981.24323" /><linearGradient
       inkscape:collect="always"
       xlink:href="#linearGradient4"
       id="linearGradient24"
       gradientUnits="userSpaceOnUse"
       x1="30.787422"
       y1="45.663635"
       x2="871.63336"
       y2="981.24323" /><linearGradient
       inkscape:collect="always"
       xlink:href="#linearGradient4"
       id="linearGradient25"
       gradientUnits="userSpaceOnUse"
       x1="30.787422"
       y1="45.663635"
       x2="871.63336"
       y2="981.24323" /><linearGradient
       inkscape:collect="always"
       xlink:href="#linearGradient4"
       id="linearGradient26"
       gradientUnits="userSpaceOnUse"
       x1="30.787422"
       y1="45.663635"
       x2="871.63336"
       y2="981.24323" /></defs><g
     inkscape:label="Warstwa 1"
     inkscape:groupmode="layer"
     id="layer1"
     transform="translate(472.77331,280.78079)"><path
       id="rect2"
       style="opacity:1;fill:#eed49f;stroke-width:1.5875;stroke-linecap:round"
       d="m -468.54078,-280.42362 0.007,0.009 c -2.35828,0.0681 -4.23577,1.99758 -4.23954,4.35684 0.004,2.35867 1.88083,4.28765 4.2385,4.35633 l -0.006,0.009 h 0.13333 7.66143 l 3.1812,-4.63848 -3.1812,-4.09277 h -7.66143 z"
       sodipodi:nodetypes="ccccccccccc"
       inkscape:export-filename="whoami.svg"
       inkscape:export-xdpi="300"
       inkscape:export-ydpi="300" /><path
       id="rect3"
       style="opacity:1;fill:#8aadf4;stroke-width:1.5875;stroke-linecap:round"
       d="m -459.21585,-280.4237 h 39.6875 l 3.154,4.13827 -3.154,4.59298 h -39.6875 l 3.154,-4.59298 z"
       sodipodi:nodetypes="ccccccc" /><path
       id="path3"
       style="opacity:1;fill:#ed8796;stroke-width:1.5875;stroke-linecap:round"
       d="m -409.42467,-280.4237 -0.007,0.009 c 2.35828,0.0681 4.23578,1.99758 4.23954,4.35684 -0.004,2.35867 -1.88082,4.28765 -4.2385,4.35633 l 0.006,0.009 h -0.13333 -8.3234 l 3.15419,-4.57626 -3.15419,-4.15499 h 8.3234 z"
       sodipodi:nodetypes="ccccccccccc" /><path
       d="m -397.58934,-278.38688 c -0.38133,1.76894 -1.14398,3.34721 -1.86427,5.03141 l -0.30718,-2.99766 c 0.0106,-0.0106 0.0106,-0.0212 0.0106,-0.0318 h -0.76266 v 0.0318 c -0.21184,1.06984 -0.86858,2.06553 -1.51472,3.11418 l 0.21185,-5.14793 h -0.78384 l -0.22244,6.54614 h 0.75206 c 0.51903,-1.00629 1.21814,-1.95961 1.71598,-2.92352 l 0.29659,2.92352 h 0.76266 c 0.86858,-2.29857 2.00197,-4.27936 2.48922,-6.54614 z m 5.79024,5.63518 c -0.1377,0.21185 -0.33895,0.33896 -0.50843,0.33896 -0.18008,0 -0.30719,-0.0953 -0.30719,-0.25422 0,-0.5614 0.33896,-1.86427 0.80503,-3.33662 0.52962,-1.71598 0.0424,-2.5316 -1.38761,-2.5316 -0.79443,0 -1.55709,0.59318 -2.15027,1.50413 l 0.6991,-3.28366 h -0.78384 l -1.80072,8.47397 h 0.79444 l 0.62495,-2.98708 c 0.26482,-1.27109 1.55709,-2.98707 2.55279,-2.98707 0.80502,0 1.08043,0.51903 0.70969,1.73716 -0.50844,1.6842 -0.85799,3.08241 -0.8368,3.67559 -0.0106,0.43429 0.32836,0.70969 0.8368,0.70969 0.4237,0 0.90036,-0.16948 1.09102,-0.44488 z m 3.6082,1.05925 c 1.42998,0 2.62693,-1.4088 3.05063,-3.37899 0.57199,-2.56338 0.14829,-3.46374 -1.6948,-3.46374 -1.42998,0 -2.64811,1.4088 -3.05062,3.379 -0.52963,2.56337 -0.1483,3.46373 1.69479,3.46373 z m 0.0636,-0.72029 c -1.21814,0 -1.48295,-0.62495 -1.03807,-2.6587 0.36015,-1.61006 1.2711,-2.74345 2.26679,-2.74345 1.21813,0 1.45117,0.62496 1.03806,2.65871 -0.32837,1.61005 -1.27109,2.74344 -2.26678,2.74344 z m 9.19041,-0.33896 c -0.1377,0.21185 -0.33895,0.33896 -0.50843,0.33896 -0.33896,0 -0.33896,-0.19066 -0.27541,-0.5614 0.83681,-3.86624 0.94273,-4.37468 0.93214,-4.54416 0,-0.75206 -0.59318,-1.01688 -1.62065,-1.01688 -1.6736,0 -3.59084,2.64812 -3.59084,4.9149 -0.0106,1.15458 0.73088,1.92783 1.86427,1.92783 0.60377,0 1.23932,-0.40251 1.65243,-1.02747 -0.0424,0.0741 -0.053,0.23304 -0.0424,0.36015 0.0106,0.38132 0.34955,0.66732 0.8368,0.66732 0.4237,0 0.90036,-0.16948 1.09102,-0.44488 z m -3.14595,0.33896 c -0.68851,0 -1.16517,-0.49784 -1.17577,-1.24991 0.0106,-1.80071 1.62065,-4.15224 2.79641,-4.15224 0.66733,0 0.91095,0.0847 0.92154,0.39192 0,0.22244 -0.24362,1.31347 -0.5614,2.84937 -0.4131,1.24991 -1.21813,2.16086 -1.98078,2.16086 z m 9.42345,0.72029 c 0.4237,0 0.90036,-0.16948 1.09102,-0.44488 l -0.33896,-0.61437 c -0.1377,0.21185 -0.33895,0.33896 -0.50843,0.33896 -0.18008,0 -0.30718,-0.0953 -0.30718,-0.25422 -0.0318,-0.5614 0.2754,-1.81131 0.79443,-3.33662 0.59318,-1.73716 0.33896,-2.5316 -0.6991,-2.5316 -0.54022,0 -0.88977,0.30719 -1.29228,0.92155 -0.0318,-0.41311 -0.053,-0.92155 -0.91095,-0.92155 -0.46607,0 -0.80503,0.36015 -1.06984,0.72029 -0.0106,-0.40251 -0.20126,-0.72029 -0.72029,-0.72029 -0.4237,0 -0.90036,0.16948 -1.09102,0.44489 l 0.33896,0.57199 c 0.22244,-0.21185 0.40251,-0.29659 0.52962,-0.29659 0.18007,0 0.26481,0.0953 0.286,0.25422 0.0106,0.0636 -0.0212,0.1377 -0.0212,0.20126 l -1.18635,5.51867 h 0.77325 l 0.65673,-3.10359 c 0.51903,-2.47864 0.74147,-2.87056 1.44057,-2.87056 0.49785,0 0.38133,0.47666 0.11652,1.74776 l -0.90036,4.22639 h 0.78384 l 0.64614,-3.12478 c 0.47666,-2.35152 0.76266,-2.84937 1.55709,-2.84937 0.39192,0 0.4237,0.46607 0.0424,1.73716 -0.52962,1.75835 -0.85799,3.08241 -0.84739,3.67559 0.0106,0.43429 0.32836,0.70969 0.8368,0.70969 z m 4.77337,-7.77486 c 0.47666,0 0.66732,-0.1377 0.77324,-0.60377 0.0953,-0.49785 -0.0847,-0.7097 -0.63554,-0.7097 -0.47666,0 -0.67792,0.1483 -0.76266,0.59318 -0.10592,0.51903 0.0742,0.72029 0.62496,0.72029 z m 0.1377,7.77486 c 0.79443,0 1.2605,-0.286 1.90664,-1.15458 l -0.60377,-0.4237 c -0.48725,0.66733 -0.74147,0.85799 -1.24991,0.85799 -1.02747,0 -1.2711,-0.49784 -0.90036,-2.20323 l 0.51903,-2.40448 c 0.18007,-0.91096 -0.46607,-1.38762 -1.77953,-1.36643 l -0.19067,0.73088 c 1.09103,-0.0318 1.30288,0.22244 1.18636,0.77325 l -0.49785,2.26678 c -0.47666,2.21383 -0.0636,2.92352 1.61006,2.92352 z"
       id="text3"
       style="font-style:italic;font-weight:500;font-size:11.6517px;line-height:4.1294px;font-family:'Victor Mono';-inkscape-font-specification:'Victor Mono Medium Italic';letter-spacing:0.0809148px;fill:#cad3f5;stroke-width:1.5875;stroke-linecap:round"
       aria-label="whoami" /><g
       style="fill:url(#linearGradient5);stroke-width:3.59404"
       id="g3"
       transform="matrix(0.0736172,0,0,0.0736172,-472.81013,-264.34102)"><path
         d="m 470.922,620.487 c -48.286,41.519 -59.398,-22.098 -114.018,11.978 -2.148,1.34 -5.027,-0.148 -5.027,-2.68 V 618.65 c 0,-1.021 0.542,-2.011 1.386,-2.585 56.087,-38.117 67.656,24.189 113.388,-10.875 2.138,-1.639 5.376,-0.198 5.376,2.496 v 10.427 c 0,0.897 -0.424,1.789 -1.105,2.374 z"
         id="path1"
         style="fill:url(#linearGradient2);stroke-width:3.59404" /><path
         d="M 294.305,3.12891 C 294.305,1.40086 295.706,0 297.434,0 h 15.018 c 1.729,0 3.129,1.40086 3.129,3.12891 V 142.053 c 0,1.728 -1.4,3.128 -3.129,3.128 h -15.018 c -1.728,0 -3.129,-1.4 -3.129,-3.128 z"
         id="path2"
         style="fill:url(#linearGradient3);stroke-width:3.59404" /><path
         d="m 602.815,984.355 c 1.728,0 3.129,1.401 3.129,3.129 v 9.387 c 0,1.728 -1.401,3.129 -3.129,3.129 h -93.867 c -1.728,0 -3.129,-1.401 -3.129,-3.129 v -9.387 c 0,-1.728 1.401,-3.129 3.129,-3.129 z"
         id="path3-3"
         style="fill:url(#linearGradient6);stroke-width:3.59404" /><path
         d="m 166.686,661.552 c -1.641,-1.066 -1.945,-3.354 -0.618,-4.791 l 9.697,-10.505 c 1.02,-1.105 2.687,-1.327 3.956,-0.521 15.697,9.959 24.185,17.256 34.799,32.054 0.856,1.194 0.746,2.829 -0.251,3.909 l -9.754,10.568 c -1.325,1.435 -3.625,1.317 -4.82,-0.228 -10.714,-13.847 -18.786,-21.245 -33.009,-30.486 z"
         id="path4"
         style="fill:url(#linearGradient7);stroke-width:3.59404" /><path
         d="m 165.815,662.542 c -1.661,-1.057 -1.98,-3.362 -0.644,-4.809 l 10.491,-11.366 c 1.011,-1.095 2.661,-1.324 3.928,-0.538 15.855,9.835 24.363,17.118 34.85,32.1 0.835,1.193 0.716,2.809 -0.271,3.879 l -10.552,11.43 c -1.333,1.444 -3.651,1.314 -4.839,-0.252 -10.585,-13.944 -18.654,-21.336 -32.963,-30.444 z"
         id="path5"
         style="fill:url(#linearGradient8);stroke-width:3.59404" /><path
         d="m 164.862,400.965 c -1.662,-1.057 -1.981,-3.362 -0.645,-4.809 l 10.491,-11.366 c 1.012,-1.095 2.662,-1.324 3.929,-0.538 15.854,9.835 24.362,17.118 34.849,32.1 0.835,1.193 0.717,2.809 -0.271,3.879 l -10.551,11.43 c -1.334,1.444 -3.652,1.314 -4.84,-0.252 -10.585,-13.944 -18.654,-21.336 -32.962,-30.444 z"
         id="path6"
         style="fill:url(#linearGradient9);stroke-width:3.59404" /><path
         d="m 355.1,130.002 c -1.662,-1.058 -1.981,-3.363 -0.645,-4.81 l 10.491,-11.365 c 1.012,-1.096 2.661,-1.324 3.929,-0.538 15.854,9.834 24.362,17.117 34.849,32.099 0.835,1.193 0.716,2.809 -0.271,3.879 l -10.552,11.43 c -1.333,1.445 -3.651,1.314 -4.839,-0.251 -10.585,-13.945 -18.654,-21.337 -32.962,-30.444 z"
         id="path7"
         style="fill:url(#linearGradient10);stroke-width:3.59404" /><path
         d="m 536.831,584.796 c -1.976,-1.327 -2.17,-4.457 -0.251,-5.866 l 13.009,-9.546 c 0.976,-0.716 2.259,-0.82 3.311,-0.219 23.836,13.634 74.753,55.843 83.443,72.158 0.622,1.166 0.205,2.536 -0.823,3.367 l -15.741,12.727 c -1.617,1.308 -4.051,0.712 -5.059,-1.107 -6.283,-11.333 -20.424,-26.451 -35.997,-40.098 -17.792,-13.64 -33.691,-25.908 -41.892,-31.416 z"
         id="path8"
         style="fill:url(#linearGradient11);stroke-width:3.59404" /><path
         d="m 767.135,941.138 c -1.887,1.216 -1.981,3.968 -0.15,5.267 l 13.905,9.866 c 0.83,0.59 1.858,0.763 2.797,0.369 30.062,-12.633 92.082,-95.345 94.994,-123.446 0.135,-1.305 -0.719,-2.444 -1.957,-2.879 l -17.504,-6.15 c -1.859,-0.654 -3.805,0.559 -4.046,2.515 -1.228,9.989 -5.125,29.064 -44.286,77.262 -3.855,4.745 -19.948,21.853 -43.753,37.196 z"
         id="path9"
         style="fill:url(#linearGradient12);stroke-width:3.59404" /><path
         d="m 316.833,818.523 h -15.019 c -1.728,0 -3.129,1.401 -3.129,3.129 v 97.622 c 1.548,34.975 43.144,77.789 117.7,14.014 1.328,-1.136 1.489,-3.184 0.315,-4.479 l -7.97,-8.787 c -1.159,-1.278 -3.175,-1.337 -4.47,-0.198 -57.16,50.265 -80.747,22.477 -84.264,-0.323 -0.023,-0.152 -0.034,-0.304 -0.034,-0.458 v -97.391 c 0,-1.728 -1.401,-3.129 -3.129,-3.129 z"
         id="path10"
         style="fill:url(#linearGradient13);stroke-width:3.59404" /><path
         d="m 255.439,8.26905 c 1.324,-1.11077 3.297,-0.93811 4.408,0.38566 l 6.473,7.71399 c 1.11,1.3238 0.938,3.2973 -0.386,4.4081 L 110.415,151.273 c -1.324,1.111 -3.298,0.938 -4.409,-0.386 l -6.4723,-7.714 c -1.1108,-1.323 -0.9381,-3.297 0.3856,-4.408 z"
         id="path11"
         style="fill:url(#linearGradient14);stroke-width:3.59404" /><path
         d="m 255.439,8.26905 c 1.324,-1.11077 3.297,-0.93811 4.408,0.38566 l 6.473,7.71399 c 1.11,1.3238 0.938,3.2973 -0.386,4.4081 L 110.415,151.273 c -1.324,1.111 -3.298,0.938 -4.409,-0.386 l -6.4723,-7.714 c -1.1108,-1.323 -0.9381,-3.297 0.3856,-4.408 z"
         id="path12"
         style="fill:url(#linearGradient15);stroke-width:3.59404" /><path
         d="m 407.571,403.317 c 0,14.342 -11.627,25.97 -25.97,25.97 -14.342,0 -25.97,-11.628 -25.97,-25.97 0,-14.343 11.628,-25.97 25.97,-25.97 14.343,0 25.97,11.627 25.97,25.97 z"
         id="path13"
         style="fill:url(#linearGradient16);stroke-width:3.59404" /><path
         d="m 102.815,279.412 c 0,9.504 -7.7043,17.209 -17.2086,17.209 -9.5043,0 -17.209,-7.705 -17.209,-17.209 0,-9.504 7.7047,-17.209 17.209,-17.209 9.5043,0 17.2086,7.705 17.2086,17.209 z"
         id="path14"
         style="fill:url(#linearGradient17);stroke-width:3.59404" /><path
         d="m 126.595,818.523 h -15.019 c -1.728,0 -3.129,1.401 -3.129,3.129 v 97.622 c 1.548,34.975 43.144,77.789 117.7,14.014 1.328,-1.136 1.489,-3.184 0.315,-4.479 l -7.97,-8.787 c -1.159,-1.278 -3.175,-1.337 -4.47,-0.198 -57.16,50.265 -80.747,22.477 -84.264,-0.323 -0.023,-0.152 -0.034,-0.304 -0.034,-0.458 v -97.391 c 0,-1.728 -1.401,-3.129 -3.129,-3.129 z"
         id="path15"
         style="fill:url(#linearGradient18);stroke-width:3.59404" /><path
         d="m 160.704,842.126 c -1.772,-0.871 -2.36,-3.128 -1.196,-4.722 l 5.407,-7.407 c 0.877,-1.2 2.48,-1.621 3.825,-0.986 11.157,5.261 17.527,9.576 25.572,18.608 0.965,1.083 1.025,2.695 0.17,3.867 l -5.46,7.479 c -1.162,1.591 -3.486,1.721 -4.855,0.305 -7.761,-8.03 -13.746,-12.372 -23.463,-17.144 z"
         id="path16"
         style="fill:url(#linearGradient19);stroke-width:3.59404" /><path
         d="m 175.722,825.229 c -1.772,-0.87 -2.359,-3.127 -1.195,-4.721 l 5.407,-7.407 c 0.876,-1.2 2.48,-1.621 3.825,-0.987 11.157,5.261 17.527,9.577 25.572,18.609 0.965,1.083 1.025,2.694 0.17,3.866 l -5.461,7.48 c -1.161,1.591 -3.485,1.721 -4.855,0.304 -7.76,-8.029 -13.745,-12.371 -23.463,-17.144 z"
         id="path17"
         style="fill:url(#linearGradient20);stroke-width:3.59404" /><path
         d="m 646.132,934.919 h -15.077 c -1.98,0 -3.486,1.823 -3.428,3.802 0.294,10.074 -4.273,25.358 -7.819,35.047 -0.762,2.083 0.76,4.33 2.979,4.33 h 9.185 c 0.952,0 1.859,-0.436 2.439,-1.191 12.309,-16.023 14.909,-31.466 14.636,-39.329 -0.054,-1.541 -1.373,-2.659 -2.915,-2.659 z"
         id="path18"
         style="fill:url(#linearGradient21);stroke-width:3.59404" /><path
         d="m 460.137,873.592 v 82.603 c 0,0.173 0.14,0.313 0.313,0.313 h 15.645 c 1.728,0 3.128,-1.401 3.128,-3.129 v -80.1 c 0,-1.728 1.401,-3.129 3.129,-3.129 h 21.59 c 1.728,0 3.129,-1.401 3.129,-3.129 v -9.074 c 0,-1.728 -1.401,-3.128 -3.129,-3.128 h -21.903 c -1.728,0 -3.131,-1.402 -3.123,-3.13 0.07,-15.254 0.926,-21.589 10.32,-21.589 l 20.692,-0.272 c 1.712,-0.023 3.088,-1.417 3.088,-3.129 v -9.114 c 0,-1.729 -1.401,-3.129 -3.129,-3.129 h -29.099 c -20.305,0 -21.513,20.481 -21.585,37.235 -0.007,1.728 -1.405,3.128 -3.134,3.128 h -9.386 c -1.728,0 -3.129,1.4 -3.129,3.128 v 9.387 c 0,1.728 1.401,3.129 3.129,3.129 h 10.325 c 1.728,0 3.129,1.401 3.129,3.129 z"
         id="path19"
         style="fill:url(#linearGradient22);stroke-width:3.59404" /><path
         d="m 684.131,818.786 c 30.914,59.056 31.685,94.992 -0.075,157.197 -1.07,2.096 0.432,4.618 2.785,4.618 h 10.454 c 1.163,0 2.242,-0.667 2.778,-1.698 33.828,-65.065 32.956,-101.324 0.007,-163.093 -0.542,-1.016 -1.612,-1.667 -2.763,-1.667 h -10.413 c -2.368,0 -3.871,2.546 -2.773,4.643 z"
         id="path20"
         style="fill:url(#linearGradient23);stroke-width:3.59404" /><path
         d="m 44.9879,275.339 -6.2769,-6.462 c -1.2228,-1.258 -3.2437,-1.27 -4.4872,-0.031 C 22.3852,280.633 0.5,302.475 0.5,347.309 c 0,44.874 21.9244,66.715 33.7555,78.495 1.231,1.226 3.2276,1.23 4.4559,0.002 l 6.2133,-6.213 c 1.2155,-1.216 1.2223,-3.183 -0.0323,-4.358 -11.3171,-10.599 -29.0607,-23.124 -29.0607,-67.926 0,-44.842 17.7754,-57.075 29.0911,-67.645 1.2433,-1.161 1.2505,-3.105 0.0651,-4.325 z"
         id="path21"
         style="fill:url(#linearGradient24);stroke-width:3.59404" /><path
         d="m 580.913,287.234 c 0,-1.728 -1.401,-3.129 -3.129,-3.129 h -88.235 c -1.728,0 -3.129,1.401 -3.129,3.129 v 11.89 c 0,1.728 1.401,3.129 3.129,3.129 h 66.338 c 2.267,0 3.782,2.337 2.856,4.407 l -45.052,100.698 c -0.926,2.07 0.589,4.407 2.857,4.407 h 14.844 c 1.234,0 2.352,-0.725 2.856,-1.851 L 580.64,306.218 c 0.18,-0.402 0.273,-0.837 0.273,-1.278 z"
         id="path22"
         style="fill:url(#linearGradient25);stroke-width:3.59404" /><path
         d="m 105.944,535.67 c 0,-1.728 1.401,-3.129 3.129,-3.129 h 15.019 c 1.728,0 3.129,1.401 3.129,3.129 v 138.923 c 0,1.728 -1.401,3.129 -3.129,3.129 h -15.019 c -1.728,0 -3.129,-1.401 -3.129,-3.129 z"
         id="path23"
         style="fill:url(#linearGradient26);stroke-width:3.59404" /></g><path
       d="m -409.50803,-277.25569 -1.97143,2.39511 -1.02766,-1.53438"
       stroke="#000000"
       stroke-width="1.09446"
       id="path1-6"
       style="fill:none;stroke:#1e1e2e;stroke-width:1.05833;stroke-linecap:round;stroke-linejoin:round;stroke-dasharray:none"
       sodipodi:nodetypes="ccc" /><g
       style="fill:none;stroke:#1e1e2e;stroke-width:2.3619;stroke-dasharray:none"
       id="g4"
       transform="matrix(0.22404259,0,0,0.22404259,-467.85756,-278.74654)"><path
         d="M 18,10 H 13"
         stroke="#1c274c"
         stroke-width="1.5"
         stroke-linecap="round"
         id="path1-5"
         style="stroke:#1e1e2e;stroke-width:2.3619;stroke-dasharray:none" /><path
         d="m 10,3 h 6.5 c 0.4644,0 0.6966,0 0.8916,0.02567 1.3462,0.17723 2.4055,1.23655 2.5827,2.58275 C 20,5.80337 20,6.03558 20,6.5"
         stroke="#1c274c"
         stroke-width="1.5"
         id="path2-3"
         style="stroke:#1e1e2e;stroke-width:2.3619;stroke-dasharray:none" /><path
         d="M 2,6.94975 C 2,6.06722 2,5.62595 2.06935,5.25839 2.37464,3.64031 3.64031,2.37464 5.25839,2.06935 5.62595,2 6.06722,2 6.94975,2 7.33642,2 7.52976,2 7.71557,2.01738 8.51665,2.09229 9.27652,2.40704 9.89594,2.92051 10.0396,3.03961 10.1763,3.17633 10.4497,3.44975 L 11,4 c 0.8158,0.81578 1.2237,1.22367 1.7121,1.49543 0.2683,0.14928 0.553,0.26717 0.8483,0.35135 C 14.0979,6 14.6747,6 15.8284,6 h 0.3737 c 2.6324,0 3.9485,0 4.8041,0.76946 0.0787,0.07078 0.1536,0.14568 0.2243,0.22437 C 22,7.84935 22,9.16554 22,11.7979 V 14 c 0,3.7712 0,5.6569 -1.1716,6.8284 C 19.6569,22 17.7712,22 14,22 H 10 C 6.22876,22 4.34315,22 3.17157,20.8284 2,19.6569 2,17.7712 2,14 Z"
         stroke="#1c274c"
         stroke-width="1.5"
         id="path3-5"
         style="stroke:#1e1e2e;stroke-width:2.3619;stroke-dasharray:none" /></g></g></svg>
